<svg id="SvgjsSvg1059" width="288" height="288" xmlns="http://www.w3.org/2000/svg" version="1.1" xmlns:xlink="http://www.w3.org/1999/xlink" xmlns:svgjs="http://svgjs.com/svgjs"><defs id="SvgjsDefs1060"></defs><g id="SvgjsG1061"><svg xmlns="http://www.w3.org/2000/svg" viewBox="0 0 54 54" width="288" height="288"><path fill="#ffffff" d="M40.93,19c-11,0-11,11-11,11s-.76,11,11,11c0,0,8.87.51,9.75-6.48a1,1,0,0,0-1-1.16H46.58a1,1,0,0,0-1,.71c-.27.91-1.22,2.37-4.51,2.37,0,0-4.27.29-5-3.81a1,1,0,0,1,1-1.18H50a1,1,0,0,0,1-1C51.09,27.51,50.55,19,40.93,19ZM36.76,27.6a.59.59,0,0,1-.57-.78A4.9,4.9,0,0,1,41,23.18a4.08,4.08,0,0,1,4.32,3.74.6.6,0,0,1-.6.68ZM23.53,25a.43.43,0,0,1-.08-.78c1.23-.63,2.68-2,2.68-5,0-5.13-3.58-7.65-8.12-7.65H3.82a.75.75,0,0,0-.75.76V39.64a.75.75,0,0,0,.75.75H18s9.13.28,9.13-8.48C27.14,31.91,27.44,26.34,23.53,25ZM9.65,17.31a.55.55,0,0,1,.55-.54H18s2,0,2,3-1.19,3.42-2.55,3.42H10.2a.55.55,0,0,1-.55-.54Zm7.94,18H10.2a.55.55,0,0,1-.55-.55v-6.6a.55.55,0,0,1,.55-.54H18s3,0,3,4C21,34.91,18.78,35.26,17.59,35.29ZM34.75,12.81v2.46a.54.54,0,0,0,.54.54H46.06a.54.54,0,0,0,.54-.54V12.81a.54.54,0,0,0-.54-.54H35.29A.54.54,0,0,0,34.75,12.81Z" data-name="Icon Line" class="color4176fa svgShape"></path></svg></g></svg>