<svg id="SvgjsSvg1052" width="288" height="288" xmlns="http://www.w3.org/2000/svg" version="1.1" xmlns:xlink="http://www.w3.org/1999/xlink" xmlns:svgjs="http://svgjs.com/svgjs"><defs id="SvgjsDefs1053"></defs><g id="SvgjsG1054"><svg xmlns="http://www.w3.org/2000/svg" data-name="Layer 1" viewBox="0 0 5000 3000" width="288" height="288"><path fill="#ffffff" fill-rule="evenodd" d="M3177 1258.63c45.14-7.55 89.9-15 135.67-22.65v209.69c18.39-3.85 35.81-8.77 53.59-11 43.64-5.49 87.18-5.84 129.7 8.32 40.34 13.47 62.74 42.5 69.44 83.36a451.2 451.2 0 015.7 68.58c.41 45.35.35 90.78-1.75 136.07-2 43.63-14.47 83.67-51 112.11-24.17 18.84-52.47 28-82.08 32.91-59.3 9.9-118.73 7.82-178.11.53-24.39-3-48.66-6.91-73-9.84-6.68-.81-9.12-3.55-8.79-9.91.22-4.19 0-8.4 0-12.61q0-286 .06-572.06C3176.44 1268 3176.81 1263.78 3177 1258.63zm135.87 509.28c26.56 3.16 52.15 4.4 77.4-.59 27.12-5.36 40.91-20.09 42.16-48.13 1.86-42.06 2.37-84.25 1.33-126.3-.69-28.93-13.5-41.37-41.49-46-26.8-4.45-51.24 3.61-74.75 15.19-2.48 1.23-4.44 6-4.46 9.2-.3 37.92-.19 75.87-.19 113.8zM4874 1876.4h-25c-37.29 0-74.6-.28-111.88.19-8.18.09-12.65-2.54-16.83-9.53-36.56-61.56-73.53-122.91-110.36-184.29-1-1.65-2-3.22-4.47-7.11V1875.8c-4.39.2-7.79.52-11.2.52-38.27 0-76.53-.29-114.8.27-9 .11-11.64-2.46-11.55-11.35.38-43.12.17-86.27.17-129.39V1271.76c0-13.44.07-13.16 13.66-15.4 37.31-6.09 74.6-12.48 111.89-18.7 3.14-.53 6.4-.59 10.8-1v389c.74.23 1.46.49 2.21.71 3.38-5.2 6.9-10.32 10.21-15.55q51.69-81.75 103.21-163.59c4.3-6.85 8.77-10.23 17.63-10.1 40.23.63 80.43.24 120.66.24H4874c-2.39 4.49-3.75 7.52-5.51 10.29q-61.33 96.94-122.82 193.72c-4.5 7-5.25 12.07-.58 19.74 41.88 68.92 83.18 138.2 124.62 207.38C4870.87 1870.4 4871.83 1872.39 4874 1876.4zM3121.59 1754.77c.22 3.41.57 6.23.57 9.06.05 30.81-.12 61.63.16 92.4 0 6.54-1.42 9.26-8.63 10.89-61.44 13.56-123.66 17.39-186.29 14.62-29.51-1.29-58.29-7.59-85.33-20.29-49.41-23.17-77.17-62.88-86.52-115.57-3.37-19-3.82-38.6-4.19-58-.58-33.7-1.18-67.46.23-101.12 1.6-37.58 11.75-72.81 37.38-101.86 22-25 50.48-39 82.57-45.91 54.76-11.77 109.34-11.8 162.85 6.09 55.44 18.53 88.08 58.36 94.88 115.5 5.34 44.72 4.36 90.18 6.22 136.69h-14.26c-74.25 0-148.51.17-222.74-.23-8.71 0-11.72 2.61-10.82 10.93.72 6.77.26 13.71 1.53 20.32 4.38 22.9 17 35.93 40.78 37.53 28 2 56.36 2.84 84.36 1 33.81-2.25 67.38-7.9 101-12A57.49 57.49 0 013121.59 1754.77zm-178.8-149.83H2970c29.53 0 29.53 0 26.47-29.45-2.11-20.18-12.88-34.36-32.93-38.06a129.9 129.9 0 00-41.28-.45c-16.58 2.34-28.3 12.88-31.76 30-1.94 9.72-1.82 19.85-2.77 29.77-.61 6.38 2.18 8.46 8.45 8.34C2911.68 1604.73 2927.23 1604.94 2942.79 1604.94zM4433.6 1656.07c-1.82 30.54-1.58 60.21-5.7 89.26-9.76 68.71-50.06 111.31-117.23 127.57-55.47 13.41-111.08 13-165.81-4.3-59.21-18.77-93.06-60.33-102.9-120.88-3.61-22.24-3.83-45.12-4-67.72-.26-33-.95-66.25 1.92-99.08 6.87-77.83 50.09-126.11 127.36-142.47 53.33-11.27 106.87-10.61 159.25 6.51 58 18.94 91.55 59.9 100.92 119.22C4432.23 1594.71 4431.76 1626.05 4433.6 1656.07zm-138.73 1h-.11c-.05-21.43.33-42.82-.17-64.2-.43-20.57-13.5-37.29-33.05-43.35a89.64 89.64 0 00-48.88-1.3c-22.19 5.52-37.12 21.55-37.43 42.81q-1 65.6 0 131.29c.32 20.86 13.48 37.3 33.91 42.24a122.83 122.83 0 0037.4 3.18c30.65-2.1 48.08-21.66 48.31-52.32C4295 1696 4294.87 1676.53 4294.87 1657.08zM4003.74 1660.91c-2.25 28.19-2.36 61.12-8 93.14-11.6 66.32-54.25 104.89-118.36 119.78-52.17 12.1-104.67 11.61-156.49-3.17-61.39-17.53-97.77-58.28-109.18-120.87a278.3 278.3 0 01-4-46.31c-.54-36.29-1.25-72.64.25-108.88 1.94-46.33 15.47-88.62 51.95-120.31 24.68-21.43 54.26-32.43 86-37.67 52.46-8.65 104.52-8 155.15 10.11 56.32 20.16 87.76 61.65 96.3 119.68C4001.78 1596 4001.58 1626.34 4003.74 1660.91zm-259-4.43h-.67q0 29.19 0 58.37a67.24 67.24 0 00.67 8.73c2.42 20.15 12.28 35.38 32.34 40.47a124.25 124.25 0 0040.17 3.55c28.81-2.47 47-21.92 47.16-48.56q.43-62.25-.05-124.51c-.13-22-13.39-39-34.54-45.24a89.2 89.2 0 00-50.78-.14c-20.31 5.86-33.29 20.95-34.13 42.21C3744.07 1613 3744.74 1634.76 3744.74 1656.48zM2213.83 1853.25c-25.78 8.16-50.3 17.46-75.59 23.52-30.1 7.18-60.92 8.62-91.32.14-47.89-13.33-74.16-46.32-83.62-93.74a174.8 174.8 0 01.64-70.4c9.11-43.42 36.67-69.19 79.15-78.26 19.77-4.22 40.35-5.5 60.64-6.28 27.21-1 54.49-.58 81.72 0 8.35.15 10.94-2.61 10.12-10.52a171.6 171.6 0 01-.62-20.42c.67-35-16.56-42.51-44.12-43.69-44-1.88-88.14-1.53-132.21-2.13-3.86 0-7.7 0-13.07 0 .84-10.68 1.44-20.51 2.39-30.3 2.51-25.76 5-51.53 8.11-77.23.29-2.39 4.74-6.15 7.23-6.12 56.73.33 113.47.3 170.17 2.25 18.15.6 36.51 5.26 54.12 10.28 48.63 13.83 73.32 48.68 80.19 97a448.1 448.1 0 014.07 60.93c.46 85.94.07 171.89.38 257.84.05 9.16-2.16 12.28-11.8 12.1q-45.67-.95-91.43 0c-9.06.15-12-3.52-12.88-11.45C2215.58 1861.68 2214.43 1856.64 2213.83 1853.25zm-59-132.9v.12c-10 0-20.06-.27-30.13.07-19.77.64-28.13 9.71-27.7 29.36.48 22.51 10.73 33 33.24 34.33 21.76 1.31 41.5-5.4 60.23-15.39 2.59-1.39 4.6-6 4.79-9.24.6-10.35 0-20.72.33-31.09.24-6.54-2.58-8.44-8.69-8.23C2176.22 1720.59 2165.52 1720.35 2154.81 1720.35zM1973.8 1223.86v75.79c0 10.36-.32 20.75.06 31.11.21 6.32-1.91 8.57-8.35 8.45-17.8-.3-35.66-.23-53.5.09a82.77 82.77 0 00-18.21 2.35c-11.57 2.82-18.87 10.56-19.22 22.68-.69 23.89-.22 47.81-.22 72.89h100.08c-1.73 18.24-3.24 35.21-5 52.15s-4 34.08-5.34 51.19c-.61 7.76-2.77 11.27-11.57 11.06-26.21-.63-52.44-.21-79.55-.21v324.15H1737.13c-.35-4.39-1-9.06-1-13.72 0-99.58-.14-199.15.18-298.69 0-9.11-1.84-12.47-11.64-12-18 .89-36.15.25-55.48.25v-11.54c0-29.19-.15-58.38 0-87.58.08-16.3-1.94-14.72 14.36-14.84 14.61-.1 29.2-.44 43.79.09 7.09.25 8.82-2.5 8.83-9 .14-26.9-.3-53.84 1.3-80.69 2-33.68 11.17-65.11 36.76-89.35a109.49 109.49 0 0168-30.25C1885.46 1225.08 1928.87 1225.19 1973.8 1223.86zM2713.3 1560c-21.71-3.39-41.76-6.8-61.88-9.59-34.39-4.71-68.88-8.47-103.34-1.06-21.79 4.68-34.55 18.45-34.95 40.61q-1.29 67.42 0 135c.37 20.8 12.37 36.06 32.93 38.8a387.45 387.45 0 0075.26 3c28.28-1.84 56.3-7.76 84.47-11.87a58.4 58.4 0 016.55 0 54.36 54.36 0 011 7.39c0 31.46-.11 62.91.09 94.35.05 6.1-1.3 8.91-8 10.42-50.48 11.35-101.45 18.13-153.16 14.82-45.66-2.93-88.95-13.86-124.35-45.4-30-26.72-46.87-61.25-49.6-100.3-3.33-48-4.4-96.54-1.8-144.53 2.95-54.55 25-100.91 73.93-130.59 27-16.45 56.92-24.16 88.12-27.54 56.44-6.11 111.71 1.66 166.58 13.91 3.11.7 7.81 4.6 7.83 7.08C2713.46 1489.07 2713.3 1523.68 2713.3 1560z" class="color036dae svgShape"></path><path fill="#ffffff" d="M1417.18,1887.8c0,136.29-110.55,246.84-246.84,246.84H462.24c-136.33,0-246.84-110.55-246.84-246.84V1179.74c0-136.34,110.51-246.91,246.84-246.91h708.1c136.29,0,246.84,110.57,246.84,246.91Z" class="color036dae svgShape"></path><path fill="#000000" d="M852.15,2140.57c54.87,11.47,140.54,14.57,198.57,2.78-.45-115.94.14-500.37.14-500.37h138.63l14.79-166.61H1050.86v-94.88c0-39.28,7.88-54.81,45.87-54.81h107.55V1153.77h-137.6c-147.86,0-214.53,65.12-214.53,189.76v132.84H748.8v168.7H852.15S851.81,2019.38,852.15,2140.57Z" class="colorfff svgShape"></path></svg></g></svg>