<svg width="156" height="63" viewBox="0 0 156 63" fill="none" xmlns="http://www.w3.org/2000/svg">
<g clip-path="url(#clip0_166_88)">
<path d="M11.5239 42.8572H5.82936V28.5249H1.9502V23.8583H5.82936V20.5382C5.82936 16.6034 7.54497 13.7812 13.2244 13.7812C14.4255 13.7812 16.3116 14.0254 16.3116 14.0254V18.3587H14.3306C12.3122 18.3587 11.5245 18.9788 11.5245 20.692V23.8583H16.2361L15.8165 28.5249H11.5245V42.8572H11.5239ZM24.5904 23.4854C24.5076 23.4854 24.4224 23.4885 24.3378 23.4903C19.0573 23.4903 16.6417 27.5002 16.6417 33.1927C16.6417 40.364 19.7755 43.2338 24.3795 43.2338C27.0133 43.2338 28.7441 42.1144 29.7959 40.0253V42.8584H35.2124V23.8602H29.7959V26.7818C28.9369 24.902 27.1584 23.5074 24.591 23.4848L24.5904 23.4854ZM25.9675 27.975C28.1855 27.975 29.5166 29.5368 29.5166 32.1936L29.5215 34.9071C29.5215 36.6978 28.4219 38.7924 25.9675 38.7924C22.1935 38.7924 22.2945 34.6782 22.2945 33.308C22.2945 28.6988 24.3051 27.975 25.9675 27.975ZM37.3989 33.3611C37.3989 31.0523 37.2895 23.4983 47.0378 23.4983C50.9509 23.4983 52.5849 24.7543 52.5849 24.7543L51.2713 28.8667C51.2713 28.8667 49.6391 27.9597 47.513 27.9597C44.7897 27.9597 43.0517 29.5539 43.0517 32.3584L43.0547 34.3694C43.0547 37.0646 44.7316 38.8632 47.5184 38.8632C49.4553 38.8632 51.241 37.9477 51.241 37.9477L52.551 41.9741C52.551 41.9741 51.0573 43.238 47.0644 43.238C37.7827 43.238 37.3983 36.4604 37.3983 33.3611H37.3989ZM84.3436 23.4909C89.624 23.4909 92.0784 27.5008 92.0784 33.1939C92.0784 40.3652 88.9446 43.235 84.3406 43.235C81.7067 43.235 79.7596 42.1157 78.7077 40.0265V42.8596L73.3596 42.8572V14.3586L79.0384 13.8588V26.5249C79.8581 24.3088 82.5512 23.4909 84.3442 23.4909H84.3436ZM82.7519 27.975C80.534 27.975 79.0378 29.5368 79.0378 32.1936L79.0323 34.9071C79.0287 36.6978 80.0685 38.7924 82.7519 38.7924C86.5253 38.7924 86.4249 34.6782 86.4249 33.308C86.4249 28.6988 84.4143 27.975 82.7519 27.975ZM62.4378 23.5062C56.4483 23.5062 53.2867 26.8032 53.2867 32.6617V33.7505C53.2867 41.3546 57.7269 43.3125 63.0206 43.3125C68.3143 43.3125 70.4954 41.8593 70.4954 41.8593L69.4327 37.9898C69.4327 37.9898 66.693 39.1666 63.7019 39.1666C60.7107 39.1666 59.2672 38.3689 58.925 35.3599H70.9494V32.2558C70.9494 25.9005 67.4009 23.5062 62.4378 23.5062ZM62.5823 27.3805C64.6552 27.3805 65.999 28.6641 65.9253 31.6406H58.9359C59.0574 28.5078 60.5058 27.3805 62.5829 27.3805H62.5823ZM103.401 23.4799C97.2506 23.4799 94.0122 26.9789 94.0122 33.25C94.0122 41.8538 99.5937 43.2393 103.411 43.2393C108.999 43.2393 112.717 40.2017 112.717 33.3282C112.717 26.4547 108.537 23.4799 103.401 23.4799ZM103.324 27.9903C106.028 27.9903 107.1 30.0336 107.1 32.3602V34.3602C107.1 37.1781 105.601 38.8077 103.313 38.8077C101.174 38.8077 99.6711 37.2831 99.6711 34.3602V32.3602C99.6711 29.2426 101.46 27.9903 103.324 27.9903ZM124.03 23.4799C117.88 23.4799 114.641 26.9789 114.641 33.25C114.641 41.8538 120.223 43.2393 124.04 43.2393C129.628 43.2393 133.346 40.2017 133.346 33.3282C133.346 26.4547 129.166 23.4799 124.03 23.4799ZM123.953 27.9903C126.657 27.9903 127.728 30.0336 127.728 32.3602V34.3602C127.728 37.1781 126.229 38.8077 123.942 38.8077C121.804 38.8077 120.3 37.2831 120.3 34.3602V32.3602C120.3 29.2426 122.089 27.9903 123.953 27.9903ZM135.492 42.8572V14.3586L141.187 13.8588V32.9601L146.837 23.8583H152.851L146.957 33.2854L153.079 42.8578H147.047L141.187 33.5631V42.8578H135.492V42.8572Z" fill="#AAB4BE"/>
</g>
<defs>
<clipPath id="clip0_166_88">
<rect width="151.128" height="29.5312" fill="white" transform="translate(1.9502 13.7812)"/>
</clipPath>
</defs>
</svg>
