<svg width="156" height="63" viewBox="0 0 156 63" fill="none" xmlns="http://www.w3.org/2000/svg">
<path d="M31.9359 25.4788C34.6952 27.4756 38.0775 28.6524 41.7275 28.6524V21.5354C41.0377 21.5354 40.3479 21.4617 39.6697 21.3172V26.9181C36.0167 26.9181 32.6374 25.7413 29.878 23.7445V38.2676C29.878 45.532 24.0624 51.4221 16.8904 51.4221C14.2125 51.4221 11.7268 50.6021 9.66016 49.1982C12.0178 51.6403 15.3069 53.1563 18.9483 53.1563C26.1232 53.1563 31.9388 47.2663 31.9388 40.0018V25.4788H31.9359ZM34.474 18.2999C33.0623 16.7396 32.1367 14.7222 31.9359 12.4924V11.5781H29.9857C30.4776 14.4125 32.1484 16.834 34.4711 18.2999H34.474ZM14.1951 43.6237C13.4062 42.5767 12.9813 41.2966 12.9842 39.9812C12.9842 36.6572 15.6446 33.9643 18.925 33.9643C19.5362 33.9643 20.1446 34.0587 20.7267 34.2475V26.9712C20.0456 26.8768 19.3587 26.8356 18.6717 26.8503V32.5132C18.0896 32.3245 17.4813 32.2301 16.8671 32.2301C13.5867 32.2301 10.9263 34.9229 10.9263 38.2469C10.9263 40.5976 12.2565 42.6298 14.1951 43.6237Z" fill="#AAB4BE"/>
<path d="M29.8778 23.7475C32.6372 25.7443 36.0194 26.9211 39.6694 26.9211V21.3201C37.6319 20.8806 35.8273 19.8012 34.4709 18.2999C32.1482 16.8311 30.4745 14.4096 29.9855 11.5781H24.8655V40.0048C24.8539 43.3199 22.1993 46.001 18.9248 46.001C16.995 46.001 15.2805 45.069 14.1948 43.6267C12.2563 42.6357 10.9261 40.6006 10.9261 38.2528C10.9261 34.9288 13.5865 32.236 16.8669 32.236C17.4956 32.236 18.101 32.3362 18.6715 32.5191V26.8562C11.6247 27.0037 5.95752 32.8347 5.95752 40.0077C5.95752 43.5883 7.36922 46.8327 9.65995 49.2041C11.7266 50.608 14.2152 51.4279 16.8902 51.4279C24.0651 51.4279 29.8778 45.5379 29.8778 38.2735V23.7504V23.7475Z" fill="#AAB4BE"/>
<path d="M39.6697 21.3171V19.801C37.833 19.801 36.0284 19.2819 34.4712 18.2968C35.8509 19.8276 37.67 20.8835 39.6697 21.3171ZM29.9858 11.5751C29.9392 11.3037 29.9043 11.0324 29.8781 10.7581V9.84375H22.8108V38.2704C22.7992 41.5826 20.1446 44.2666 16.8701 44.2666C15.9095 44.2666 15.0014 44.0366 14.198 43.6236C15.2837 45.0659 16.9981 45.9979 18.9279 45.9979C22.2025 45.9979 24.8571 43.3139 24.8687 40.0017V11.5751H29.9887H29.9858ZM18.6718 26.8502V25.2369C18.0809 25.1543 17.4871 25.113 16.8904 25.113C9.71552 25.113 3.8999 31.003 3.8999 38.2675C3.8999 42.8214 6.18482 46.8356 9.6573 49.1981C7.36657 46.8267 5.95487 43.5794 5.95487 40.0017C5.95487 32.8287 11.622 26.9977 18.6689 26.8502H18.6718Z" fill="#AAB4BE"/>
<path d="M121.571 45.4701C126.703 45.4701 130.865 41.2878 130.865 36.1292C130.865 30.9706 126.703 26.7883 121.571 26.7883H120.171C125.303 26.7883 129.465 30.9706 129.465 36.1292C129.465 41.2878 125.303 45.4701 120.171 45.4701H121.571Z" fill="#AAB4BE"/>
<path d="M120.044 26.7854H118.644C113.512 26.7854 109.35 30.9677 109.35 36.1263C109.35 41.2848 113.512 45.4671 118.644 45.4671H120.044C114.909 45.4671 110.75 41.2848 110.75 36.1263C110.75 30.9677 114.912 26.7854 120.044 26.7854Z" fill="#AAB4BE"/>
<path d="M49.3857 22.5647V27.2986H54.8579V45.3403H60.333V27.4254H64.7893L66.3174 22.5618H49.3857V22.5647ZM94.1992 22.5647V27.2986H99.6713V45.3403H105.146V27.4254H109.603L111.131 22.5618H94.1992V22.5647ZM67.3361 25.2517C67.3361 23.7681 68.5324 22.5647 70.0082 22.5647C71.4839 22.5647 72.6831 23.7681 72.6831 25.2517C72.6831 26.7352 71.4868 27.9386 70.0082 27.9386C68.5324 27.9386 67.3361 26.7352 67.3361 25.2517ZM67.3361 29.8587H72.6802V45.3432H67.3361V29.8587ZM74.9739 22.5647V45.3432H80.3208V39.4561L81.977 37.9195L87.196 45.47H92.9243L85.4117 34.4657L92.1587 27.8118H85.6649L80.3179 33.1856V22.5647H74.9709H74.9739ZM132.647 22.5647V45.3432H137.994V39.4561L139.647 37.9195L144.869 45.47H150.597L143.085 34.4657L149.832 27.8118H143.338L137.991 33.1856V22.5647H132.644H132.647Z" fill="#AAB4BE"/>
<path d="M120.172 45.4701C125.303 45.4701 129.465 41.2878 129.465 36.1292C129.465 30.9706 125.303 26.7883 120.172 26.7883H120.043C114.912 26.7883 110.75 30.9706 110.75 36.1292C110.75 41.2878 114.912 45.4701 120.043 45.4701H120.172ZM115.587 36.1292C115.587 33.6192 117.613 31.5871 120.107 31.5871C122.602 31.5871 124.628 33.6192 124.628 36.1292C124.628 38.6392 122.605 40.6713 120.107 40.6713C117.61 40.6713 115.587 38.6362 115.587 36.1292Z" fill="#AAB4BE"/>
</svg>
