<svg id="SvgjsSvg1038" width="288" height="288" xmlns="http://www.w3.org/2000/svg" version="1.1" xmlns:xlink="http://www.w3.org/1999/xlink" xmlns:svgjs="http://svgjs.com/svgjs"><defs id="SvgjsDefs1039"></defs><g id="SvgjsG1040"><svg xmlns="http://www.w3.org/2000/svg" data-name="Layer 1" viewBox="0 0 5000 3000" width="288" height="288"><defs><radialGradient id="a" cx="-4709.45" cy="-3336.35" r="5895.88" gradientTransform="matrix(.23 0 0 .23 1473.71 2850.35)" gradientUnits="userSpaceOnUse"><stop offset="0" stop-color="#ffffff" class="stopColorfbe18a svgShape"></stop><stop offset=".21" stop-color="#949494" class="stopColorfcbb45 svgShape"></stop><stop offset=".38" stop-color="#a6a6a6" class="stopColorf75274 svgShape"></stop><stop offset=".52" stop-color="#858585" class="stopColord53692 svgShape"></stop><stop offset=".74" stop-color="#838383" class="stopColor8f39ce svgShape"></stop><stop offset="1" stop-color="#9c9c9c" class="stopColor5b4fe9 svgShape"></stop></radialGradient></defs><path fill="#ffffff" d="M1763.14,1187.6v457.17s-6.68,194.59-113.31,196c12-30.73,29.35-74.69,29.35-177.31V1174.23s-81.4,57.39-92.07,162.72,28,149.23,28,149.23,0,13.36-21.23,12c0,0-74.68-21.27-81.34-130.55s109.32-217.32,168-243.89C1728.48,1123.71,1763.14,1118.33,1763.14,1187.6Zm2951.65,570.49c-97.72,0-94.95-135.71-94.95-163.52V1436.71s-62.77,110.72-72.71,218.59c-8,45-5.09,69.3-33.58,69.3s-60.74-27.18-62.93-150.09-2.11-125.6-2.11-125.6-7.88-30-25.65,2.82-53.64,102.93-53.64,189.88v105.75h-94.95c2.16,0,0-57.84,0-57.84s-27.12,67.1-87.09,67.1-84.23-92.78-84.23-92.78-32.54,91.57-119.31,91.57c-86.58,0-102.53-57.36-102.53-57.36s-33.33,62.72-93.3,62.72-99.95-73.28-98.65-164,28-161.32,28-161.32h-62.7s-26.62,6.69-32,24.07-45.33,165.3-146.59,247.94c8,115.93,0,185.16,0,185.16s4,168-150.56,168-115.65-135.92-37.41-214.58c61.09-61.5,109.32-118.39,109.32-118.39l.06-35s-38.71,64-110.62,64c-72.07,0-93.3-61.28-93.3-61.28s-37.4,64-86.71,64-81.33-40-89.32-81.21c0,0-26.58,77.22-117.2,77.22s-120-103.93-120-103.93-26.67,103.93-111.91,103.93c-85.41,0-93.4-95.9-100-154.64,0,0-43.93,154.64-174.57,154.64,0,0-76,9.33-110.61-24s0-68,23.9-69.3c24.06-1.25,18.72,35.93,57.36,34.63s72-44,44-94.64-69.29-57.23-81.33-86.61c0,0-70.61,146.62-141.24,213.24S2067,1735.46,2067,1656.8V1430.28s4.14-30.78-15.95-4.08c-19.86,26.61-106.65,128-121.35,331.89l-37.21,1.31c-46.76,0-44-54.6-44-54.6V1340.93s71.85-8,71.85,44v167.95s49.37-102.7,81.39-161.36,82.57-56,106.64-46.6,43.93,40,43.93,40v265.2s6.75,50.7,25.4,25.34,111.92-162.61,116-178.55c3.92-16.11-26.74-42.73-18.75-84s40-78.66,93.37-78.66,49.27,33.39,33.33,60-57.33,57.29-10.72,83.94,128,89.35,110.64,174.57c29.35-33.33,69.3-81.3,69.3-154.61V1320.87h-108s-5.37-61.27,26.68-61.27h81.27V1129s13.4-18.59,33.32-18.59c20.09,0,52.66,18,68,33.23v121.28h124s10.72,58.76-49.32,58.76h-82.63v277.13s-1.37,90.76,36,90.76c37.24,0,70.6-81.43,71.84-85.34,1.37-4.08-9.3-196,82.71-262.65S3004,1378.23,3004,1378.23v-33.32s78.66-12,78.66,42.62v250.61s-1.3,76,40,76,58.73-42.69,56-60-40-168,54.57-281.26c0,0,69.39-94.64,159.92,6.68l2.77-28.07s84-31.9,84,44.08-1.42,253.2-1.42,253.2,75.94-103.9,85.4-154.61,8-74.68-4-86.55c-12.1-12-18.68-84,33.2-88S3658.5,1377,3658.5,1377s10.57,21.25,37.31,2.6,96-21.35,93.24,21.33c-2.54,42.59-29.29,145.25-16,245.3,0,0,2.61,62.58,45.4,62.58,0,0,42.55-2.74,49.14-50.74-17.25-79.93-8-189.14,29.42-254.5s112-93.23,181.31-29.38c3.92-10.63,8-29.25,13.27-26.58s68-14.7,68,48v217.23s1.3,101.35,46.6,101.35,61.35-105.4,61.35-105.4V1339.63s82.63-8,82.63,46.56v117.27s43.36-105.29,44.73-108.83,11.45-55.77,53.56-55.77,62.88,34.28,63.6,94.32,4.28,134.94,4.28,134.94,50.67-147.11,61.34-175.65,22.24-54.28,57.1-50c35,4.24,58.57,19.26,57.21,92.06s-3.57,160,5.66,211.36c9.42,51.48,20.72,60.67,42.11,61.41s49.38-60.64,51.48-95l15.72,1.47S4812.75,1758.09,4714.79,1758.09ZM2931.36,1399.5c-30.94,0-63.86,64.4-68.63,148s27.69,153.37,58.7,153.37c30.82,0,69.33-48.06,77.29-146.65C3007.21,1448.84,2976,1399.5,2931.36,1399.5Zm391.92,0c-30.94,0-63.86,64.4-68.66,148s27.78,153.37,58.67,153.37,69.29-48.06,77.25-146.65C3399.11,1448.84,3367.93,1399.5,3323.28,1399.5Zm85.18,395.13s-70.38,60.68-101.58,103.14c-26.67,36.48-67,120.42,29.52,109.41C3420.63,1997.59,3408.46,1794.63,3408.46,1794.63Zm603.8-395.13c-30.82,0-63.79,64.4-68.51,148s27.76,153.37,58.64,153.37,69.33-48.06,77.28-146.65C4088.24,1448.84,4057.08,1399.5,4012.26,1399.5Z" class="color336390 svgShape"></path><path fill="url(#a)" d="M566.73,1500c0-103.22,83.66-186.9,186.89-186.9s186.9,83.68,186.9,186.9-83.68,186.9-186.9,186.9S566.73,1603.23,566.73,1500Zm-101,0c0,159,128.91,287.91,287.93,287.91S1041.53,1659,1041.53,1500s-128.88-287.93-287.91-287.93S465.69,1341,465.69,1500Zm520-299.3a67.29,67.29,0,1,0,67.28-67.28,67.29,67.29,0,0,0-67.28,67.28ZM527.06,1956.38c-54.68-2.48-84.36-11.6-104.11-19.29-26.19-10.18-44.84-22.33-64.47-41.95s-31.77-38.29-42-64.46c-7.68-19.75-16.81-49.45-19.31-104.12C294.53,1667.44,294,1649.7,294,1500s.58-167.45,3.27-226.58c2.5-54.66,11.63-84.34,19.31-104.1,10.18-26.18,22.33-44.86,42-64.47s38.28-31.78,64.47-41.94c19.75-7.67,49.43-16.81,104.11-19.31,59.11-2.7,76.85-3.27,226.56-3.27s167.43.57,226.58,3.27c54.65,2.5,84.34,11.64,104.1,19.31,26.18,10.16,44.85,22.32,64.47,41.94s31.76,38.29,41.94,64.47c7.68,19.76,16.81,49.44,19.31,104.1,2.7,59.13,3.25,76.86,3.25,226.58s-.55,167.44-3.25,226.56c-2.5,54.67-11.63,84.37-19.31,104.12-10.18,26.17-22.31,44.84-41.94,64.46s-38.29,31.77-64.47,41.95c-19.76,7.69-49.45,16.81-104.1,19.29-59.13,2.71-76.86,3.28-226.58,3.28s-167.45-.57-226.56-3.28ZM522.45,942.69c-59.69,2.71-100.44,12.19-136.1,26.06-36.88,14.32-68.13,33.49-99.3,64.66s-50.36,62.44-64.68,99.31c-13.86,35.67-23.35,76.43-26.05,136.11s-3.4,78.88-3.4,231.17.66,171.36,3.4,231.17,12.19,100.44,26.05,136.09c14.32,36.88,33.49,68.15,64.68,99.32s62.42,50.33,99.3,64.67c35.66,13.87,76.41,23.34,136.1,26.05s78.89,3.39,231.17,3.39S925,2060,984.79,2057.3s100.44-12.18,136.12-26.05c36.84-14.34,68.13-33.5,99.3-64.67s50.32-62.44,64.66-99.32c13.86-35.65,23.36-76.4,26.07-136.09s3.36-78.89,3.36-231.17-.63-171.38-3.36-231.17-12.21-100.44-26.07-136.11c-14.34-36.87-33.49-68.13-64.66-99.31s-62.46-50.34-99.3-64.66c-35.68-13.87-76.44-23.35-136.12-26.06s-78.89-3.38-231.17-3.38-171.36.65-231.17,3.38Z"></path></svg></g></svg>