<svg id="SvgjsSvg1081" width="288" height="288" xmlns="http://www.w3.org/2000/svg" version="1.1" xmlns:xlink="http://www.w3.org/1999/xlink" xmlns:svgjs="http://svgjs.com/svgjs"><defs id="SvgjsDefs1082"></defs><g id="SvgjsG1083"><svg xmlns="http://www.w3.org/2000/svg" data-name="Layer 1" viewBox="0 0 5000 3000" width="288" height="288"><path fill="#ffffff" d="M1125.06,948.08A175.89,175.89,0,0,1,1300.94,1124V1876c0,97.13-78.76,175.89-175.88,175.89H373A175.9,175.9,0,0,1,197.11,1876V1124A175.89,175.89,0,0,1,373,948.08Z" class="colorfffc00 svgShape"></path><path fill="#000000" d="M753.08,1879.5c-2.09,0-4.13-.06-6.18-.16h0c-1.3.1-2.67.16-4,.16-47.91,0-78.66-21.73-108.39-42.76-20.53-14.5-39.9-28.2-62.73-32A203,203,0,0,0,538.8,1802c-19.3,0-34.53,3-45.65,5.15-6.75,1.32-12.58,2.47-17,2.47-4.63,0-9.64-1-11.82-8.46-1.89-6.45-3.26-12.69-4.58-18.74-3.4-15.55-5.81-25.12-12.33-26.12-76-11.74-97.73-27.74-102.57-39.09a14.55,14.55,0,0,1-1.17-4.86,8.55,8.55,0,0,1,7.15-8.92c116.8-19.24,169.18-138.61,171.35-143.68l.19-.42c7.15-14.48,8.55-27,4.18-37.36-8-18.89-34.17-27.19-51.47-32.69-4.23-1.33-8.24-2.6-11.41-3.85-34.53-13.65-37.4-27.66-36.05-34.81,2.32-12.17,18.58-20.65,31.73-20.65a22.16,22.16,0,0,1,9.45,1.89c15.53,7.27,29.54,11,41.61,11,16.7,0,24-7,24.87-7.94-.43-7.9-.95-16.16-1.49-24.68-3.47-55.22-7.79-123.84,9.68-163,52.36-117.4,163.4-126.52,196.18-126.52l14.38-.15H756c32.86,0,144.14,9.14,196.53,126.6,17.47,39.19,13.16,107.87,9.67,163.05l-.15,2.39c-.48,7.69-.94,15.16-1.33,22.31.83.85,7.53,7.3,22.66,7.88h0c11.5-.44,24.71-4.11,39.22-10.9a29.48,29.48,0,0,1,12.18-2.41,37.16,37.16,0,0,1,14,2.68l.24.1c11.74,4.16,19.43,12.38,19.59,21,.15,8.1-6,20.26-36.32,32.23-3.14,1.23-7.16,2.51-11.41,3.85-17.32,5.5-43.45,13.8-51.47,32.68-4.38,10.3-3,22.87,4.17,37.36.07.15.14.28.2.43,2.17,5.06,54.5,124.41,171.35,143.66a8.58,8.58,0,0,1,7.16,8.93,14.49,14.49,0,0,1-1.2,4.89c-4.81,11.27-26.55,27.25-102.55,39-6.21,1-8.61,9-12.32,26-1.35,6.17-2.71,12.24-4.59,18.62-1.62,5.53-5.07,8.12-10.87,8.12h-1a95.59,95.59,0,0,1-17-2.14,226.58,226.58,0,0,0-45.65-4.84,203.21,203.21,0,0,0-33,2.78c-22.8,3.8-42.16,17.47-62.65,32C831.74,1857.77,801,1879.5,753.08,1879.5Z" class="colorfff svgShape"></path><path fill="#030303" d="M756,1129.05c31.11,0,138.23,8.35,188.71,121.54,16.63,37.25,12.37,104.76,9,159-.54,8.59-1.07,16.94-1.49,24.91l-.19,3.42,2.29,2.54c.92,1,9.56,10.06,28.78,10.81h.63c12.7-.48,27-4.42,42.57-11.71a20.75,20.75,0,0,1,8.55-1.59,28.58,28.58,0,0,1,10.8,2l.48.2c8.15,2.85,13.91,8.24,14,13.11,0,2.76-2,12.68-30.91,24.09-2.82,1.12-6.54,2.3-10.85,3.66-18.79,6-47.2,15-56.76,37.49-5.39,12.71-3.92,27.67,4.37,44.5,3.42,8,57.07,128.86,177.84,148.75a5.67,5.67,0,0,1-.5,1.94c-2,4.82-15.06,21.46-96,34-12.68,2-15.79,16.14-19.38,32.66-1.29,5.9-2.63,11.85-4.44,18-.55,1.87-.66,2-2.66,2h-1a90.09,90.09,0,0,1-15.36-2,236.43,236.43,0,0,0-47.3-5,210.67,210.67,0,0,0-34.34,2.9c-24.78,4.12-44.93,18.37-66.27,33.45C827.88,1850,798.27,1871,753.08,1871c-2,0-3.9-.07-5.83-.17l-.51,0-.51,0c-1.11.09-2.23.14-3.37.14-45.18,0-74.8-20.94-103.45-41.19-21.33-15.09-41.49-29.34-66.26-33.46a210.88,210.88,0,0,0-34.35-2.9c-20.08,0-35.81,3.06-47.3,5.31-6.31,1.24-11.78,2.3-15.36,2.3-2.93,0-3-.17-3.61-2.29-1.81-6.17-3.14-12.28-4.43-18.18-3.61-16.51-6.72-30.78-19.38-32.74-81-12.5-94-29.19-96-34a5.45,5.45,0,0,1-.49-2C473,1691.94,526.62,1571.07,530,1563.08c8.29-16.84,9.77-31.8,4.38-44.5-9.56-22.51-38-31.53-56.76-37.5-4.31-1.36-8-2.54-10.85-3.66-24.41-9.64-31.91-19.35-30.79-25.23,1.3-6.79,13.06-13.69,23.32-13.69a14,14,0,0,1,5.82,1.07c16.68,7.8,31.91,11.78,45.24,11.78,21,0,30.34-9.77,31.33-10.88l2.28-2.54-.19-3.41c-.42-8-1-16.29-1.49-24.89-3.42-54.24-7.67-121.71,8.95-159,50.29-112.76,156.89-121.44,188.36-121.44l14.45-.14,1.86,0Zm0-17.11H753.9l-14.29.13c-34.05,0-149.51,9.49-204,131.6-18.32,41.08-13.93,110.86-10.41,166.93.42,6.61.86,13.47,1.23,20.11-2.81,1.56-8,3.5-16.06,3.5-10.81,0-23.59-3.42-38-10.16a30.69,30.69,0,0,0-13.08-2.68c-16.85,0-37,11.08-40.14,27.61-2.26,11.89,3.06,29.24,41.31,44.35,3.45,1.37,7.6,2.68,12,4.07,15.8,5,39.68,12.59,46.17,27.86,3.36,7.91,2,18.09-4,30.24l-.38.83c-2.1,4.9-52.65,120.13-164.87,138.6a17.12,17.12,0,0,0-14.31,17.85,23.14,23.14,0,0,0,1.82,7.69c8.43,19.69,44,34.12,108.65,44.16,2.16,2.92,4.41,13.25,5.79,19.55s2.74,12.61,4.72,19.37,7,14.57,20,14.57c5.26,0,11.47-1.2,18.65-2.62,10.77-2.1,25.54-5,44-5a194,194,0,0,1,31.56,2.67c20.87,3.48,38.61,16,59.14,30.53,29.41,20.8,62.73,44.34,113.36,44.34,1.39,0,2.79,0,4.17-.14,1.64.07,3.78.14,6.05.14,50.64,0,83.94-23.55,113.34-44.33,20.58-14.54,38.3-27.07,59.18-30.54a193.71,193.71,0,0,1,31.54-2.67,219.35,219.35,0,0,1,44,4.68,103.72,103.72,0,0,0,18.64,2.3h1c9.62,0,16.4-5.08,19.09-14.3,2-6.61,3.35-12.85,4.73-19.17s3.61-16.56,5.77-19.47c64.7-10,100.23-24.45,108.63-44a22.87,22.87,0,0,0,1.85-7.74,17.12,17.12,0,0,0-14.31-17.84c-112.27-18.51-162.77-133.71-164.87-138.59-.12-.29-.25-.56-.39-.84-6-12.15-7.32-22.32-4-30.23,6.47-15.27,30.34-22.85,46.14-27.85,4.43-1.4,8.58-2.73,12-4.08,28-11,42-24.63,41.73-40.35-.24-12.35-9.86-23.36-25.14-28.82h0a45.79,45.79,0,0,0-17.22-3.3,38.09,38.09,0,0,0-15.81,3.2c-13.31,6.24-25.27,9.63-35.59,10.09-6.84-.31-11.32-2-13.87-3.44.32-5.69.69-11.55,1.07-17.67l.15-2.38c3.54-56.11,7.93-125.94-10.4-167.05C905.81,1121.44,790.12,1111.94,756,1111.94Z" class="color030303 svgShape"></path><path fill="#ffffff" d="M1556.56,1733.68V1616c21,16.81,46.26,33.63,71.49,42l75.69,12.62,37.85-4.2,29.43-12.62,16.83-16.83,4.21-21-8.42-29.45-25.24-21-33.62-21-46.27-21c-42-16.81-71.49-37.85-92.51-63.07s-29.44-54.67-29.44-88.31c0-29.43,4.22-50.47,16.83-71.48s25.23-37.85,46.25-50.46l67.29-29.45a517.68,517.68,0,0,1,155.58-4.2l58.88,16.82v109.34L1872,1325.79l-33.64-12.61-33.65-8.42-29.42-4.2-37.85,4.2c-12.61,4.2-21,4.2-29.45,12.62l-16.81,16.81-8.42,25.23,8.42,25.24,21,21,33.63,16.82,42.06,16.83,58.87,29.43,42.06,33.65,29.43,42c8.41,16.81,8.41,33.64,8.41,54.65a143,143,0,0,1-63.07,126.15c-21,12.62-42.07,21-67.3,25.24l-79.89,8.42-84.11-8.42c-33.63,0-54.66-8.42-75.69-16.82Zm807.38,21H2246.2V1544.46c4.21-63.09-16.83-92.51-58.87-92.51-21,0-42,8.4-50.46,25.23-12.62,16.81-21,33.63-21,58.86V1754.7H1998.1V1376.25h117.73v58.87a143,143,0,0,1,122-71.48c84.11,0,126.15,50.46,126.15,155.59Zm412.1,0H2662.49V1700A126.11,126.11,0,0,1,2549,1763.12c-37.85,0-67.3-12.62-88.31-29.44s-33.65-50.46-33.65-84.1c0-75.7,42.05-117.74,130.35-126.16l105.12-12.61c0-42-21-63.08-67.27-63.08s-88.31,12.62-130.35,42.06v-88.31a210.29,210.29,0,0,1,67.27-21l75.7-8.42c113.53-8.4,168.2,46.26,168.2,155.6Zm-113.55-155.59v-25.23l-67.27,8.42c-37.85,4.2-58.86,21-58.86,50.46,0,12.62,4.2,25.23,12.62,33.65s21,12.61,37.84,12.61c21,0,42-8.41,54.67-21s21-33.65,21-58.88Zm323.81,109.34v218.67H2868.57V1372H2986.3v58.87a138.74,138.74,0,0,1,121.95-67.27q75.69,0,113.54,50.46c25.24,33.63,42,79.89,42,138.77,0,63.08-16.8,113.54-46.25,151.37s-71.48,58.88-126.16,58.88c-46.25,0-79.89-16.82-105.12-54.67Zm-4.2-155.58v33.63a103.32,103.32,0,0,0,21,63.08c12.62,16.83,33.65,25.23,54.68,25.23,25.23,0,46.24-8.4,63.08-29.43s21-50.47,21-88.31c0-67.28-25.23-100.92-79.89-100.92-21,0-46.26,8.42-58.88,25.22s-21,42.05-21,71.5Zm647.58,189.21c-25.23,16.84-63.07,21-113.54,21-58.87,0-105.14-16.82-143-54.67s-54.66-79.88-54.66-134.57c0-63.07,21-117.73,58.87-151.38s92.51-54.66,155.59-54.66c46.26,0,75.69,4.2,96.72,16.82v100.91c-25.23-16.81-50.46-29.42-84.1-29.42s-58.88,8.42-79.89,29.42-29.46,46.27-29.46,79.91,8.42,58.86,29.46,79.9,46.24,29.43,75.69,29.43a126.19,126.19,0,0,0,84.09-29.43Zm441.52,12.62H3953.46V1536c0-54.67-21-84.09-58.85-84.09q-31.56,0-50.46,25.23c-12.62,16.81-21,33.63-21,58.86V1754.7H3705.38V1191.22h117.73v239.69c29.44-42,67.28-67.27,117.74-67.27,88.31,0,130.35,50.46,130.35,155.59Zm407.91,0H4369.77V1700a126.15,126.15,0,0,1-113.53,63.09c-37.85,0-67.28-12.62-88.32-29.44s-33.64-50.46-33.64-84.1c0-75.7,42.06-117.74,130.37-126.16l105.12-12.61c0-42-21-63.08-67.27-63.08s-88.31,12.62-130.37,42.06v-88.31a210.38,210.38,0,0,1,67.3-21l75.69-8.42q164,0,164,164Zm-109.34-155.59v-25.23l-67.27,8.42c-37.85,4.2-58.88,21-58.88,50.46,0,12.62,4.2,25.23,12.62,33.65s21,12.61,37.84,12.61c21,0,37.84-8.41,54.66-21s21-33.65,21-58.88Zm433.12,151.39c-16.81,8.42-42,12.62-79.88,12.62-84.12,0-122-42-122-130.36V1460.35H4538V1372h63.07V1288l117.74-33.65v113.54h84.1v92.51h-84.1V1616c0,37.84,16.83,58.86,46.26,58.86l37.84-12.62Zm0,0" class="color404040 svgShape"></path></svg></g></svg>