<svg id="SvgjsSvg1135" width="288" height="288" xmlns="http://www.w3.org/2000/svg" version="1.1" xmlns:xlink="http://www.w3.org/1999/xlink" xmlns:svgjs="http://svgjs.com/svgjs"><defs id="SvgjsDefs1136"></defs><g id="SvgjsG1137"><svg xmlns="http://www.w3.org/2000/svg" viewBox="0 0 48 48" width="288" height="288"><rect width="44" height="44" x="2" y="2" fill="#ffffff" rx="9.04" class="color039be5 svgShape"></rect><path fill="#000000" d="M8.27,22.41l19.39-8c1.92-.84,8.41-3.5,8.41-3.5s3-1.16,2.74,1.66c-.08,1.17-.75,5.25-1.41,9.66L35.32,35.31s-.17,1.92-1.58,2.25-3.75-1.17-4.16-1.5-6.25-4-8.41-5.82a1.58,1.58,0,0,1,.08-2.67c3-2.74,6.58-6.15,8.74-8.32,1-1,2-3.33-2.16-.5L16.09,26.66a4.88,4.88,0,0,1-3.82.08C9.77,26,6.86,25,6.86,25s-2-1.24,1.41-2.58Zm0,0" class="colorfff svgShape"></path></svg></g></svg>