<svg id="SvgjsSvg1064" width="288" height="288" xmlns="http://www.w3.org/2000/svg" version="1.1" xmlns:xlink="http://www.w3.org/1999/xlink" xmlns:svgjs="http://svgjs.com/svgjs"><defs id="SvgjsDefs1065"></defs><g id="SvgjsG1066" transform="matrix(1,0,0,1,0,0)"><svg xmlns="http://www.w3.org/2000/svg" data-name="Layer 1" viewBox="0 0 5000 3000" width="288" height="288"><path fill="#ffffff" d="M1112.52 1105.7c-72.13-79.36-68.08-182.44-68.08-182.44H988.33C997.51 975 1025.85 1056.46 1112.52 1105.7zM626.41 1489.25a162.77 162.77 0 00-68.19 310.56 162.76 162.76 0 01178.65-254.6V1341.65a365.36 365.36 0 00-50-3.45c-3.47 0-6.93.06-10.38.16v158.76A162.58 162.58 0 00626.41 1489.25zM1260.22 1186.18v160s-120.84 17.25-273.74-86.33v184.94c0 125.35 16.33 255.62-41.72 371.6-60.8 121.51-182 198.74-318.35 198.74a360.8 360.8 0 01-194.08-56.29 361.38 361.38 0 00254.5 104.38c136.37 0 257.54-77.24 318.35-198.74 58.05-116 41.72-246.25 41.72-371.6V1308c152.9 103.59 273.75 86.32 273.75 86.32V1194.54A424.83 424.83 0 011260.22 1186.18z" class="colored2c58 svgShape"></path><path fill="#ffffff" d="M1260.22,1186.18v-39.73c-62.16-4.29-110.35-19.53-147.7-40.75C1144.48,1140.86,1191.4,1171.35,1260.22,1186.18Z" class="color00b8bd svgShape"></path><path fill="#ffffff" d="M324.31,1700.73c0-196.74,156.72-356.88,352.14-362.37v-44.8a365.47,365.47,0,0,0-50-3.45c-200.21,0-362.53,162.31-362.53,362.53,0,128.82,67.2,241.93,168.45,306.24A361.4,361.4,0,0,1,324.31,1700.73Z" class="color00b7bc svgShape"></path><path fill="#ffffff" d="M686.83,1862.88c88.52,0,154.74-69,161.13-154.35,8.24-110.06,4.11-220.51,4.11-330.75V923.26H988.33c-5.08-28.57-4.32-48.09-4.32-48.09H791.65v454.52c0,110.24,4.13,220.69-4.12,330.75-6.39,85.35-72.61,154.35-161.12,154.35a162.11,162.11,0,0,1-68.19-15A162.48,162.48,0,0,0,686.83,1862.88Z" class="color00b7bc svgShape"></path><path fill="#ffffff" d="M944.76,1816.43c58-116,41.72-246.25,41.72-371.6V1259.89c152.9,103.58,273.74,86.33,273.74,86.33v-160c-68.82-14.83-115.74-45.32-147.7-80.48-86.67-49.24-115-130.7-124.19-182.44H852.07v454.52c0,110.24,4.13,220.69-4.11,330.75-6.39,85.35-72.61,154.35-161.13,154.35a162.48,162.48,0,0,1-128.61-63.07,162.77,162.77,0,0,1,118.23-302.69V1338.36C481,1343.85,324.31,1504,324.31,1700.73a361.4,361.4,0,0,0,108,258.15,360.8,360.8,0,0,0,194.08,56.29C762.78,2015.17,884,1937.94,944.76,1816.43Z" class="color0d0d0d svgShape"></path><polygon fill="#ffffff" points="1563.38 1188.86 1563.38 1343.99 1733.28 1343.99 1733.28 1886.94 1910.57 1886.94 1910.57 1347.68 2047.23 1347.68 2106.33 1188.86 1563.38 1188.86" class="color0d0d0d svgShape"></polygon><polygon fill="#ffffff" points="2966.92 1188.86 2966.92 1343.99 3136.82 1343.99 3136.82 1886.94 3314.11 1886.94 3314.11 1347.68 3450.77 1347.68 3509.87 1188.86 2966.92 1188.86" class="color0d0d0d svgShape"></polygon><rect width="177.3" height="465.38" x="2121.1" y="1421.55" fill="#ffffff" class="color0d0d0d svgShape"></rect><path fill="#ffffff" d="M2298.39 1277.51a88.65 88.65 0 11-88.65-88.65A88.65 88.65 0 012298.39 1277.51zM2353.79 1188.86v698.08s171.75-5.54 177.29 0 0-169.91 0-169.91l59.1-48 147.74 218h188.37L2689.9 1554.52l214.23-188.37H2693.6l-155.13 151.44V1188.86zM4163.62 1188.86v698.08s171.75-5.54 177.29 0 0-169.91 0-169.91l59.1-48 147.74 218h188.37l-236.39-332.54L4714 1366.15H4503.43l-155.14 151.44V1188.86z" class="color0d0d0d svgShape"></path><path fill="#ffffff" d="M3480.32,1604.38c0-157.38,122.29-286.11,277-296.56-6.73-.46-13.48-.77-20.32-.77-164.21,0-297.33,133.12-297.33,297.33s133.12,297.33,297.33,297.33c6.84,0,13.59-.31,20.32-.77C3602.61,1890.49,3480.32,1761.76,3480.32,1604.38Z" class="color00b9bf svgShape"></path><path fill="#ffffff" d="M3807.19,1307.05c-5,0-9.88.14-14.77.37,157.35,7.71,282.56,137.7,282.56,297s-125.21,289.25-282.56,297q7.34.36,14.77.37c164.21,0,297.33-133.12,297.33-297.33S3971.4,1307.05,3807.19,1307.05Z" class="colored2d58 svgShape"></path><path fill="#ffffff" d="M3792.42,1307.42c-4.89-.23-9.82-.37-14.78-.37-6.83,0-13.59.31-20.3.77-154.73,10.45-277,139.18-277,296.56s122.29,286.11,277,296.56c6.71.46,13.47.77,20.3.77q7.44,0,14.78-.37c157.34-7.71,282.56-137.7,282.56-297S3949.76,1315.13,3792.42,1307.42Zm-145.64,297a131.88,131.88,0,0,1,130.86-130.87,133.31,133.31,0,0,1,14.78.88,130.82,130.82,0,0,1,0,260,133.31,133.31,0,0,1-14.78.88,131.88,131.88,0,0,1-130.86-130.87Z" class="color0d0d0d svgShape"></path></svg></g></svg>