<svg width="156" height="63" viewBox="0 0 156 63" fill="none" xmlns="http://www.w3.org/2000/svg">
<g clip-path="url(#clip0_166_92)">
<path d="M50.2696 17.8271C48.1145 18.7746 45.745 21.4482 44.9967 24.8063C44.0491 29.0601 47.9928 30.8587 48.3163 30.2698C48.6972 29.5765 47.6098 29.3422 47.3856 27.135C47.0962 24.2846 48.3593 21.0989 49.9486 19.7013C50.2439 19.4418 50.23 19.803 50.23 20.4716C50.23 21.6671 50.1672 32.3983 50.1672 34.6381C50.1672 37.6686 50.048 38.6258 49.8335 39.5711C49.6166 40.5292 49.2677 41.1769 49.5319 41.4263C49.8272 41.7053 51.0887 41.0416 51.8188 39.9721C52.6944 38.6895 53.0011 37.149 53.0559 35.476C53.1224 33.4594 53.1195 30.2596 53.1224 28.434C53.125 26.7601 53.1494 21.8581 53.0946 18.9112C53.0811 18.1883 51.1713 17.4301 50.2696 17.8262V17.8271ZM149.677 33.7477C149.364 33.7477 149.222 34.0859 149.104 34.6554C148.694 36.6348 148.264 37.0818 147.709 37.0818C147.089 37.0818 146.532 36.1016 146.389 34.1398C146.276 32.5972 146.295 29.7569 146.438 26.9316C146.468 26.3511 146.315 25.7768 144.831 25.2113C144.193 24.9677 143.265 24.61 142.803 25.7803C141.497 29.0871 140.986 31.7129 140.866 32.7789C140.86 32.8342 140.796 32.8453 140.784 32.7166C140.707 31.8624 140.536 30.31 140.515 27.0488C140.511 26.4126 140.382 25.871 139.713 25.4275C139.279 25.1397 137.96 24.6308 137.485 25.2365C137.074 25.7317 136.597 27.0643 136.102 28.6436C135.7 29.9271 135.42 30.7955 135.42 30.7955C135.42 30.7955 135.425 27.3318 135.43 26.0177C135.432 25.5221 135.108 25.3567 135.01 25.3271C134.571 25.1932 133.704 24.9694 133.337 24.9694C132.883 24.9694 132.772 25.2356 132.772 25.6234C132.772 25.6742 132.7 30.184 132.7 33.3374C132.7 33.4744 132.7 33.6239 132.701 33.7826C132.45 35.2319 131.636 37.1994 130.751 37.1994C129.866 37.1994 129.447 36.3771 129.447 32.6176C129.447 30.4245 129.51 29.4709 129.54 27.8849C129.559 26.9714 129.593 26.2693 129.591 26.1106C129.584 25.6225 128.78 25.3762 128.405 25.2851C128.029 25.1936 127.703 25.1578 127.447 25.1733C127.086 25.1945 126.83 25.4434 126.83 25.7852C126.83 25.9687 126.833 26.3171 126.833 26.3171C126.367 25.55 125.619 25.0159 125.121 24.8611C123.78 24.4433 122.381 24.8138 121.325 26.3635C120.486 27.5949 119.981 28.9898 119.782 30.994C119.636 32.4588 119.683 33.9449 119.942 35.201C119.629 36.6185 119.049 37.1994 118.414 37.1994C117.492 37.1994 116.823 35.6201 116.901 32.8881C116.953 31.0913 117.295 29.8303 117.67 28.006C117.83 27.2283 117.7 26.8211 117.375 26.4311C117.076 26.073 116.44 25.8904 115.526 26.1155C114.874 26.2755 113.943 26.4484 113.092 26.5806C113.092 26.5806 113.143 26.3653 113.185 25.9859C113.407 23.9963 111.346 24.1577 110.689 24.793C110.297 25.1724 110.03 25.6198 109.928 26.4245C109.767 27.7014 110.759 28.3036 110.759 28.3036C110.434 29.8679 109.636 31.911 108.812 33.3882C108.371 34.1796 108.033 34.7659 107.597 35.3898C107.596 35.1581 107.594 34.9264 107.594 34.6943C107.584 31.4061 107.625 28.8178 107.644 27.8853C107.662 26.9719 107.697 26.2888 107.695 26.1296C107.69 25.7724 107.491 25.6375 107.078 25.4668C106.713 25.3156 106.281 25.2113 105.832 25.175C105.267 25.129 104.926 25.4434 104.935 25.8161C104.937 25.8864 104.937 26.318 104.937 26.318C104.471 25.5508 103.723 25.0167 103.225 24.862C101.884 24.4442 100.485 24.8147 99.4293 26.3644C98.5905 27.5957 98.0415 29.3241 97.8856 30.9794C97.7407 32.5225 97.7672 33.8334 97.9648 34.9379C97.7516 36.0437 97.1386 37.2003 96.4451 37.2003C95.559 37.2003 95.0547 36.378 95.0547 32.6184C95.0547 30.4254 95.1175 29.4717 95.1482 27.8858C95.1663 26.9723 95.2009 26.2702 95.1988 26.1115C95.192 25.6234 94.3877 25.3771 94.0132 25.286C93.6213 25.1909 93.2834 25.156 93.0235 25.1759C92.6805 25.2029 92.4399 25.5243 92.4399 25.7644V26.318C91.9748 25.5508 91.2261 25.0167 90.7285 24.862C89.3874 24.4442 87.9958 24.8204 86.9327 26.3644C86.2392 27.3711 85.678 28.4871 85.389 30.9573C85.3056 31.6714 85.2685 32.3399 85.2736 32.9646C84.9972 34.7389 83.7762 36.7843 82.7768 36.7843C82.1924 36.7843 81.6354 35.5945 81.6354 33.0588C81.6354 29.6809 81.8347 24.8722 81.8684 24.4084C81.8684 24.4084 83.1307 24.3858 83.3751 24.3827C84.0049 24.3756 84.575 24.3911 85.4134 24.346C85.8339 24.3235 86.2392 22.7397 85.8053 22.5434C85.6085 22.4545 84.2181 22.3767 83.667 22.3648C83.2036 22.3537 81.913 22.2534 81.913 22.2534C81.913 22.2534 82.0289 19.0611 82.0559 18.7242C82.0786 18.443 81.7323 18.2984 81.5334 18.2105C81.0502 17.996 80.6179 17.8934 80.1055 17.7825C79.3977 17.629 79.0762 17.7789 79.0139 18.4063C78.9195 19.3578 78.8706 22.145 78.8706 22.145C78.3511 22.145 76.5765 22.0385 76.057 22.0385C75.5742 22.0385 75.053 24.2174 75.7208 24.2443C76.4889 24.2757 77.827 24.3027 78.7143 24.3305C78.7143 24.3305 78.6747 29.2188 78.6747 30.7283C78.6747 30.8888 78.6751 31.0435 78.6764 31.1934C78.1881 33.8644 76.4678 35.3071 76.4678 35.3071C76.8373 33.5403 76.0827 32.213 74.7235 31.09C74.2225 30.6761 73.2341 29.8927 72.1281 29.0336C72.1281 29.0336 72.7685 28.3713 73.3369 27.0382C73.7393 26.0942 73.757 25.0136 72.7685 24.7753C71.1363 24.3814 69.7902 25.6393 69.3886 26.9825C69.0777 28.0233 69.2433 28.7953 69.8529 29.5973C69.8976 29.6561 69.9456 29.7158 69.9954 29.7759C69.6267 30.5214 69.1207 31.5246 68.6918 32.3028C67.5015 34.4635 66.6028 36.1724 65.9232 36.1724C65.3801 36.1724 65.3877 34.4374 65.3877 32.813C65.3877 31.4127 65.4863 29.3073 65.5651 27.1271C65.5912 26.4059 65.2474 25.9956 64.6715 25.6234C64.3218 25.3974 63.5747 24.9531 63.1425 24.9531C62.4953 24.9531 60.6275 25.0455 58.863 30.402C58.6406 31.0771 58.2036 32.3072 58.2036 32.3072L58.2411 25.8656C58.2411 25.7144 58.1645 25.5685 57.9888 25.4686C57.6913 25.2993 56.8971 24.9526 56.191 24.9526C55.8547 24.9526 55.6866 25.1167 55.6866 25.4443L55.6251 35.5224C55.6251 36.2882 55.6441 37.1813 55.7165 37.5722C55.7882 37.9635 55.9049 38.2814 56.049 38.471C56.1931 38.6598 56.3595 38.804 56.6342 38.8637C56.8899 38.9189 58.2896 39.1077 58.3625 38.5462C58.4497 37.8733 58.4531 37.1459 59.1879 34.4321C60.3322 30.207 61.8241 28.1458 62.5256 27.4136C62.6482 27.2858 62.7881 27.2778 62.7814 27.4874C62.7515 28.4137 62.6461 30.7283 62.5753 32.6945C62.3853 37.9568 63.2975 38.9322 64.6011 38.9322C65.5984 38.9322 67.0043 37.8923 68.5114 35.2598C69.451 33.6194 70.3632 32.0109 71.0188 30.8512C71.4755 31.2951 71.9878 31.7726 72.5002 32.2829C73.6904 33.4682 74.0814 34.5948 73.8219 35.6639C73.6234 36.481 72.8768 37.3228 71.5471 36.5044C71.1595 36.2656 70.9939 36.0813 70.6046 35.812C70.3952 35.6674 70.0758 35.6241 69.8841 35.7758C69.3861 36.1697 69.1017 36.6706 68.9391 37.2905C68.7811 37.894 69.357 38.2128 69.9536 38.4918C70.4677 38.7319 71.5724 38.9494 72.2768 38.9742C75.0218 39.0706 77.2211 37.5832 78.7518 33.7468C79.0261 37.0602 80.1919 38.9348 82.2185 38.9348C83.5731 38.9348 84.9314 37.0973 85.5255 35.2894C85.6961 36.0265 85.9485 36.6671 86.2742 37.2087C87.8357 39.8045 90.8646 39.2461 92.386 37.0416C92.8562 36.3603 92.9278 36.1153 92.9278 36.1153C93.1499 38.1969 94.7471 38.9242 95.6618 38.9242C96.6861 38.9242 97.7436 38.4162 98.4851 36.6649C98.5702 36.8519 98.6655 37.0332 98.7704 37.2087C100.332 39.8045 103.361 39.2461 104.882 37.0416C104.954 36.9381 105.016 36.8444 105.07 36.76L105.115 38.1275L103.715 39.4756C101.367 41.7336 99.5827 43.4469 99.4517 45.4414C99.2848 47.9845 101.249 48.9298 102.738 49.0536C104.315 49.185 105.669 48.2697 106.5 46.9884C107.231 45.861 107.71 43.4336 107.675 41.0363C107.661 40.0764 107.638 38.8557 107.62 37.5474C108.444 36.5429 109.373 35.2735 110.227 33.7875C111.159 32.1679 112.158 29.9935 112.669 28.301C112.669 28.301 113.536 28.3089 114.462 28.2452C114.759 28.2249 114.843 28.2881 114.789 28.5163C114.723 28.7913 113.619 33.2591 114.626 36.2347C115.316 38.2721 116.87 38.9273 117.792 38.9273C118.87 38.9273 119.902 38.0727 120.455 36.8028C120.522 36.9443 120.592 37.0814 120.668 37.2078C122.229 39.8036 125.247 39.2421 126.779 37.0407C127.125 36.5442 127.321 36.1144 127.321 36.1144C127.65 38.2685 129.246 38.9344 130.161 38.9344C131.076 38.9344 132.017 38.5245 132.751 36.7034C132.782 37.5054 132.83 38.1607 132.906 38.3676C132.952 38.494 133.223 38.6528 133.42 38.7292C134.291 39.0679 135.18 38.9079 135.509 38.8385C135.737 38.7903 135.914 38.5984 135.939 38.1032C136.002 36.8028 135.963 34.6187 136.339 32.9951C136.969 30.2707 137.557 29.2135 137.836 28.6905C137.993 28.3973 138.169 28.3491 138.175 28.6591C138.188 29.2869 138.218 31.1302 138.462 33.6071C138.642 35.4287 138.881 36.5053 139.065 36.8462C139.591 37.8207 140.24 37.8666 140.768 37.8666C141.105 37.8666 141.808 37.7694 141.745 37.149C141.714 36.8466 141.768 34.9786 142.39 32.2948C142.795 30.5417 143.472 28.9584 143.716 28.3792C143.807 28.1657 143.848 28.3341 143.847 28.3668C143.796 29.5739 143.68 33.5222 144.149 35.682C144.784 38.6077 146.621 38.9348 147.262 38.9348C148.629 38.9348 149.747 37.8436 150.124 34.972C150.215 34.28 150.081 33.7468 149.678 33.7468L149.677 33.7477ZM92.4109 31.9725C92.3325 33.4921 92.0498 34.7624 91.5964 35.6851C90.7761 37.3551 89.1531 37.8848 88.4377 35.4716C87.9216 33.7317 88.0973 31.3588 88.3122 30.077C88.6307 28.1749 89.4283 26.8264 90.6733 26.9542C91.9524 27.0855 92.5739 28.8103 92.4109 31.9725ZM104.907 31.9946C104.834 33.4298 104.479 34.8711 104.092 35.6856C103.294 37.367 101.625 37.8927 100.933 35.472C100.461 33.818 100.574 31.6771 100.808 30.3286C101.112 28.5782 101.847 26.9546 103.169 26.9546C104.454 26.9546 105.088 28.434 104.907 31.9946ZM105.233 41.7849C105.215 44.4028 104.823 46.6979 103.981 47.3647C102.787 48.31 101.182 47.6008 101.514 45.6907C101.808 44.0004 103.199 42.2739 105.236 40.1649C105.236 40.1649 105.24 40.6459 105.233 41.7853V41.7849ZM126.804 32.0101C126.734 33.5854 126.402 34.8172 125.989 35.6856C125.191 37.367 123.534 37.8892 122.831 35.472C122.447 34.1544 122.43 31.9535 122.705 30.1151C122.986 28.2421 123.769 26.8273 125.066 26.9551C126.346 27.0811 126.945 28.8112 126.804 32.0105V32.0101Z" fill="#AAB4BE"/>
</g>
<path d="M16.3437 29.6708C16.3437 26.7461 18.6912 24.3736 21.5893 24.3736C24.4873 24.3736 26.8361 26.7449 26.8361 29.6708C26.8361 32.5967 24.4873 34.968 21.5893 34.968C18.6912 34.968 16.3437 32.5967 16.3437 29.6708ZM13.5072 29.6708C13.5072 34.1768 17.125 37.8294 21.5881 37.8294C26.0512 37.8294 29.669 34.1768 29.669 29.6708C29.669 25.1648 26.0512 21.5122 21.5881 21.5122C17.125 21.5122 13.5072 25.1648 13.5072 29.6708ZM28.1016 21.1883C28.1016 22.2413 28.9468 23.0959 29.991 23.0959C31.0351 23.0959 31.8804 22.2413 31.8804 21.1883C31.8804 20.1353 31.0351 19.2819 29.991 19.2819C28.9468 19.2819 28.1016 20.1353 28.1016 21.1883ZM15.2297 42.6043C13.6954 42.5338 12.8608 42.2757 12.3068 42.0581C11.5716 41.7689 11.0483 41.4258 10.4967 40.8701C9.94619 40.3143 9.60406 39.786 9.31994 39.0438C9.10329 38.4844 8.84877 37.6418 8.77892 36.0928C8.70316 34.4182 8.68777 33.9151 8.68777 29.672C8.68777 25.429 8.70434 24.927 8.77892 23.2513C8.84877 21.7022 9.10566 20.862 9.31994 20.3003C9.60643 19.558 9.94619 19.0297 10.4967 18.4728C11.0472 17.917 11.5704 17.5716 12.3068 17.2847C12.8608 17.066 13.6954 16.809 15.2297 16.7385C16.8882 16.662 17.3866 16.6464 21.5881 16.6464C25.7895 16.6464 26.2879 16.6632 27.9477 16.7385C29.4819 16.809 30.3142 17.0684 30.8706 17.2847C31.6058 17.5727 32.129 17.917 32.6807 18.4728C33.2312 19.0285 33.5721 19.558 33.8574 20.3003C34.0741 20.8596 34.3286 21.7022 34.3984 23.2513C34.4742 24.927 34.4896 25.429 34.4896 29.672C34.4896 33.9151 34.4742 34.417 34.3984 36.0928C34.3286 37.6418 34.0717 38.4844 33.8574 39.0438C33.5709 39.786 33.2312 40.3143 32.6807 40.8701C32.1302 41.4258 31.6058 41.7701 30.8706 42.0581C30.3166 42.2768 29.4819 42.5338 27.9477 42.6043C26.2891 42.6808 25.7907 42.6964 21.5881 42.6964C17.3855 42.6964 16.8882 42.6808 15.2297 42.6043ZM15.0995 13.8783C13.4243 13.9548 12.2795 14.2237 11.2792 14.6158C10.2445 15.0209 9.36729 15.566 8.49125 16.448C7.61639 17.3313 7.07774 18.217 6.67642 19.2628C6.28694 20.274 6.02175 21.4285 5.94599 23.1198C5.86786 24.8134 5.8501 25.3561 5.8501 29.6708C5.8501 33.9856 5.86786 34.527 5.94599 36.2218C6.02175 37.9131 6.28812 39.0689 6.67642 40.0788C7.07774 41.1235 7.61639 42.0103 8.49125 42.8936C9.36611 43.7769 10.2433 44.3195 11.2792 44.7259C12.2807 45.1191 13.4243 45.3868 15.0995 45.4633C16.7793 45.5398 17.3144 45.5601 21.5881 45.5601C25.8618 45.5601 26.398 45.5422 28.0767 45.4633C29.7519 45.3868 30.8966 45.1179 31.897 44.7259C32.9317 44.3195 33.8089 43.7757 34.6849 42.8936C35.5598 42.0103 36.0973 41.1235 36.4998 40.0788C36.8892 39.0689 37.1556 37.9131 37.2302 36.2218C37.306 34.5258 37.3237 33.9856 37.3237 29.6708C37.3237 25.3561 37.306 24.8146 37.2302 23.1198C37.1544 21.4285 36.8881 20.2728 36.4998 19.2628C36.0973 18.2182 35.5586 17.3325 34.6849 16.448C33.8101 15.5648 32.9317 15.0209 31.8982 14.6158C30.8966 14.2225 29.7519 13.9536 28.0779 13.8783C26.4004 13.8018 25.8629 13.7815 21.5893 13.7815C17.3156 13.7815 16.7793 13.7994 15.0995 13.8783Z" fill="#AAB4BE"/>
<defs>
<clipPath id="clip0_166_92">
<rect width="105.3" height="31.3486" fill="white" transform="translate(44.8501 17.7188)"/>
</clipPath>
</defs>
</svg>
