<svg width="156" height="63" viewBox="0 0 156 63" fill="none" xmlns="http://www.w3.org/2000/svg">
<path d="M50.9129 20.8272C50.387 18.8317 48.826 17.2581 46.8423 16.7174C43.2544 15.75 28.8618 15.75 28.8618 15.75C28.8618 15.75 14.4765 15.75 10.8814 16.7199C8.90248 17.2509 7.34387 18.8269 6.81072 20.8272C5.8501 24.4496 5.8501 32.0121 5.8501 32.0121C5.8501 32.0121 5.8501 39.5746 6.81072 43.1946C7.33666 45.1901 8.89767 46.7637 10.8814 47.3044C14.4765 48.2743 28.8618 48.2743 28.8618 48.2743C28.8618 48.2743 43.2544 48.2743 46.8423 47.3044C48.8188 46.7734 50.3774 45.1974 50.9129 43.1946C51.8736 39.5722 51.8736 32.0121 51.8736 32.0121C51.8736 32.0121 51.8736 24.4496 50.9129 20.8296V20.8272Z" fill="#FF0000"/>
<path d="M24.2627 25.0413V38.983L36.2201 32.0121L24.2627 25.0413Z" fill="white"/>
<path d="M80.104 26.0983C79.2035 25.4776 78.0099 25.1672 76.5161 25.1672C75.0223 25.1672 73.7783 25.4776 72.8489 26.0838C71.9195 26.6899 71.2327 27.6574 70.7908 28.9885C70.3513 30.3196 70.1304 32.0799 70.1304 34.2742V37.2299C70.1304 39.4024 70.3273 41.1408 70.7091 42.4501C71.091 43.7595 71.7418 44.7196 72.6496 45.3403C73.5574 45.961 74.8158 46.2714 76.4128 46.2617C77.9715 46.2617 79.2107 45.9513 80.1185 45.3452C81.0334 44.739 81.6939 43.7716 82.0949 42.455C82.4984 41.1384 82.7025 39.3951 82.7025 37.2202V34.2645C82.7025 32.0775 82.496 30.3172 82.0805 29.003C81.6627 27.6889 81.0046 26.719 80.104 26.0983ZM78.1348 38.8956C78.1348 40.3965 78.0027 41.4803 77.7529 42.1471C77.4983 42.8114 77.0589 43.1436 76.4128 43.1436C75.7668 43.1436 75.3369 42.8114 75.0944 42.1471C74.8542 41.49 74.7366 40.4037 74.7366 38.8956V32.5454C74.7366 31.081 74.8686 30.0093 75.1184 29.3376C75.3754 28.6636 75.8077 28.3241 76.4224 28.3241C77.0372 28.3241 77.5056 28.6636 77.7553 29.3376C78.0123 30.019 78.1372 31.0834 78.1372 32.5454V38.8956H78.1348Z" fill="black"/>
<path d="M92.8249 41.7546C92.6495 42.1304 92.3782 42.4432 92.0203 42.6856C91.6625 42.9281 91.2807 43.0469 90.8844 43.0469C90.4233 43.0469 90.0943 42.8481 89.8974 42.4626C89.7004 42.0771 89.6044 41.4272 89.6044 40.518V25.5652H85.0654V40.7774C85.0654 42.6638 85.38 44.0459 86.0188 44.9309C86.6553 45.8183 87.6447 46.262 88.9848 46.262C90.9108 46.262 92.359 45.3237 93.3268 43.4373H93.4228L93.8191 45.9274H97.3686V25.5652H92.8273V41.7521L92.8249 41.7546Z" fill="black"/>
<path d="M66.7851 18.0459L64.9095 26.6195C64.3835 29.1265 64.0449 30.9087 63.8912 31.9707H63.7591C63.5382 30.4868 63.202 28.6974 62.7409 26.5904L60.9325 18.0532H56.4224L61.5929 36.8951V45.9342H66.0646V36.8951L71.2928 18.0459H66.7827H66.7851Z" fill="black"/>
<path d="M116.12 41.7546C115.944 42.1304 115.673 42.4432 115.315 42.6856C114.957 42.9281 114.576 43.0469 114.179 43.0469C113.718 43.0469 113.389 42.8481 113.192 42.4626C112.995 42.0771 112.899 41.4272 112.899 40.518V25.5652H108.36V40.7774C108.36 42.6638 108.675 44.0459 109.314 44.9309C109.95 45.8183 110.94 46.262 112.28 46.262C114.206 46.262 115.654 45.3237 116.622 43.4373H116.718L117.114 45.9274H120.664V25.5652H116.122V41.7521L116.12 41.7546Z" fill="black"/>
<path d="M142.544 37.2758H150.15V33.7867C150.15 31.6409 149.975 29.9558 149.639 28.7386C149.295 27.519 148.709 26.6243 147.873 26.0472C147.038 25.4702 145.844 25.1816 144.286 25.1816C142.023 25.1816 140.426 25.8848 139.497 27.2887C138.567 28.6998 138.099 30.9256 138.099 33.9855V37.5425C138.099 40.5127 138.546 42.7022 139.446 44.1206C140.345 45.5414 141.913 46.2494 144.153 46.2494C146.022 46.2494 147.463 45.7839 148.481 44.8528C149.499 43.9218 150.011 42.5179 150.011 40.6315C150.011 40.3212 150.001 40.0763 149.98 39.8993L146.063 39.6689C146.041 40.9103 145.902 41.7978 145.652 42.3288C145.405 42.8598 144.936 43.1265 144.254 43.1265C143.75 43.1265 143.375 42.9713 143.133 42.6755C142.893 42.3797 142.729 41.8996 142.657 41.2474C142.578 40.5903 142.54 39.6156 142.54 38.3063V37.2734L142.544 37.2758ZM142.544 34.5553V33.0933C142.544 31.7694 142.583 30.7705 142.662 30.1207C142.741 29.4708 142.895 28.998 143.123 28.7095C143.351 28.421 143.709 28.2731 144.192 28.2803C144.677 28.2803 145.035 28.421 145.261 28.695C145.489 28.9689 145.647 29.449 145.736 30.1231C145.823 30.7971 145.868 31.7864 145.868 33.0957V34.5578H142.544V34.5553Z" fill="black"/>
<path d="M134.36 26.033C133.745 25.4559 132.902 25.1674 131.826 25.1674C130.991 25.1674 130.215 25.4026 129.49 25.8827C128.764 26.3555 128.21 26.9835 127.813 27.7618H127.775V17.0303H123.397V45.937H127.146L127.607 44.0094H127.703C128.054 44.698 128.582 45.2362 129.286 45.6363C129.987 46.0364 130.765 46.2352 131.622 46.2352C133.159 46.2352 134.288 45.5199 135.011 44.0918C135.736 42.6637 136.094 40.433 136.094 37.3949V34.1726C136.099 31.8958 135.962 30.1137 135.691 28.8286C135.412 27.5436 134.972 26.6125 134.358 26.0354L134.36 26.033ZM131.344 40.6245C131.226 41.4683 131.022 42.0648 130.736 42.4212C130.45 42.7776 130.068 42.9522 129.586 42.9522C129.211 42.9522 128.868 42.8625 128.546 42.6855C128.231 42.5085 127.967 42.2418 127.77 41.8878V30.3198C127.924 29.7645 128.188 29.316 128.56 28.9596C128.935 28.6056 129.336 28.4286 129.776 28.4286C130.237 28.4286 130.594 28.6128 130.844 28.9741C131.092 29.3354 131.267 29.9561 131.37 30.8144C131.466 31.68 131.517 32.9069 131.517 34.5023V37.1355H131.524C131.524 38.6242 131.466 39.7832 131.341 40.627L131.344 40.6245Z" fill="black"/>
<path d="M109.703 18.0562H96.2451V21.744H100.755V45.9324H105.201V21.744H109.703V18.0562Z" fill="black"/>
</svg>
