<svg xmlns="http://www.w3.org/2000/svg" xmlns:xlink="http://www.w3.org/1999/xlink" width="64" height="24.134" viewBox="0 0 64 24.134">
  <defs>
    <clipPath id="clip-path">
      <rect id="Rectangle_1777" data-name="Rectangle 1777" width="55.097" height="23.757" fill="#fff"/>
    </clipPath>
  </defs>
  <g id="Group_12012" data-name="Group 12012" transform="translate(0.154)">
    <rect id="Rectangle_1786" data-name="Rectangle 1786" width="64" height="24" transform="translate(-0.154 0.134)" fill="none"/>
    <g id="Group_12005" data-name="Group 12005" transform="translate(3.583 0)">
      <g id="Group_12004" data-name="Group 12004" transform="translate(0 0)" clip-path="url(#clip-path)">
        <path id="Path_8966" data-name="Path 8966" d="M59.8,43.735l-2.761,7.447-.295-1.513a8.424,8.424,0,0,0-3.911-4.591l2.527,9.562h2.986l4.441-10.9Z" transform="translate(-37.513 -31.056)" fill="#fff"/>
        <path id="Path_8967" data-name="Path 8967" d="M85.023,54.626,86.789,43.7H89.61L87.844,54.626Z" transform="translate(-60.375 -31.03)" fill="#fff"/>
        <path id="Path_8968" data-name="Path 8968" d="M109.318,43.5a6.961,6.961,0,0,0-2.528-.46c-2.791,0-4.752,1.483-4.769,3.606-.018,1.572,1.4,2.448,2.469,2.97,1.1.534,1.47.877,1.466,1.355-.011.732-.881,1.065-1.69,1.065a5.656,5.656,0,0,1-2.653-.571l-.366-.174-.395,2.445a8.548,8.548,0,0,0,3.145.582c2.962,0,4.889-1.467,4.912-3.731.012-1.247-.742-2.19-2.371-2.97-.983-.506-1.592-.842-1.583-1.356,0-.453.51-.939,1.617-.939a4.94,4.94,0,0,1,2.111.42l.252.126Z" transform="translate(-71.614 -30.564)" fill="#fff"/>
        <path id="Path_8969" data-name="Path 8969" d="M135.792,43.738h-2.18a1.4,1.4,0,0,0-1.48.907l-4.188,10.012h2.963s.485-1.347.594-1.643l3.612.007c.087.381.344,1.636.344,1.636h2.62Zm-3.479,7.041c.234-.627,1.124-3.054,1.124-3.054-.017.03.231-.632.375-1.041l.188.942.655,3.153Z" transform="translate(-90.852 -31.058)" fill="#fff"/>
        <path id="Path_8970" data-name="Path 8970" d="M47.288,43.717h-4.55l-.027.188a9.489,9.489,0,0,1,6.844,5.754l-.989-5.022a1.184,1.184,0,0,0-1.278-.92" transform="translate(-30.329 -31.043)" fill="#fff"/>
        <path id="Path_8971" data-name="Path 8971" d="M3.875,10.88h-1.8L0,1.525l1.988-.332,1.42,7.321L7.025,1.29h1.91Z" transform="translate(0 -0.847)" fill="#fff"/>
        <path id="Path_8972" data-name="Path 8972" d="M31.053,14.738h-4.29c-.117,1.3.487,1.868,1.512,1.868a4.475,4.475,0,0,0,2.425-.83l-.006,1.3a5.171,5.171,0,0,1-2.8.817c-1.868,0-3.1-1.066-2.731-3.474a3.741,3.741,0,0,1,3.582-3.487c2.006,0,2.674,1.508,2.382,3.4-.021.138-.061.3-.075.4m-2.525-2.657c-.664,0-1.285.526-1.578,1.619h2.657c.049-1.038-.276-1.619-1.079-1.619" transform="translate(-17.823 -7.763)" fill="#fff"/>
        <path id="Path_8973" data-name="Path 8973" d="M49.77,13.921l-.59,3.833H47.519l1.029-6.684h1.412v1.342a3.17,3.17,0,0,1,2.373-1.481l.01,1.647a3.688,3.688,0,0,0-2.573,1.343" transform="translate(-33.743 -7.763)" fill="#fff"/>
        <path id="Path_8974" data-name="Path 8974" d="M64.084,10.67l1.029-6.684h1.661L65.745,10.67ZM66.13,2.865a.794.794,0,0,1-.851-.941A1.159,1.159,0,0,1,66.424.955a.8.8,0,0,1,.833.969,1.138,1.138,0,0,1-1.127.941" transform="translate(-45.506 -0.678)" fill="#fff"/>
        <path id="Path_8975" data-name="Path 8975" d="M79.483,1.786a.894.894,0,0,0-1,.844l-.151.982H79.6V4.969H78.121L77.3,10.3H75.654l.82-5.328H75.5l.209-1.356h.969l.177-1.149A2.316,2.316,0,0,1,79.483.43a3.888,3.888,0,0,1,.67.055l.012,1.356a4.209,4.209,0,0,0-.683-.055" transform="translate(-53.616 -0.305)" fill="#fff"/>
        <path id="Path_8976" data-name="Path 8976" d="M89.288,10.67l1.029-6.684h1.661L90.949,10.67Zm2.046-7.805a.794.794,0,0,1-.851-.941A1.159,1.159,0,0,1,91.628.955a.8.8,0,0,1,.833.969,1.138,1.138,0,0,1-1.127.941" transform="translate(-63.403 -0.678)" fill="#fff"/>
        <path id="Path_8977" data-name="Path 8977" d="M106.191,14.738H101.9c-.117,1.3.487,1.868,1.511,1.868a4.476,4.476,0,0,0,2.425-.83l-.006,1.3a5.172,5.172,0,0,1-2.8.817c-1.868,0-3.1-1.066-2.731-3.474a3.741,3.741,0,0,1,3.581-3.487c2.007,0,2.674,1.508,2.382,3.4-.021.138-.061.3-.076.4m-2.525-2.657c-.664,0-1.285.526-1.578,1.619h2.657c.049-1.038-.277-1.619-1.079-1.619" transform="translate(-71.178 -7.763)" fill="#fff"/>
        <path id="Path_8978" data-name="Path 8978" d="M127.231,9.992l0-.927a3.117,3.117,0,0,1-2.212,1.066c-1.4,0-2.359-1.038-2.012-3.294.383-2.491,1.924-3.6,3.474-3.6A4.378,4.378,0,0,1,128,3.487l.5-3.224,1.7-.263-1.538,9.992Zm.555-5.134a2.438,2.438,0,0,0-1.256-.291c-.872,0-1.617.706-1.843,2.173-.2,1.3.26,1.91.993,1.91a2.375,2.375,0,0,0,1.663-.913Z" transform="translate(-87.299 0)" fill="#fff"/>
        <path id="Path_8979" data-name="Path 8979" d="M155.251,15.991a5.933,5.933,0,0,1-2.024-.335l1.092-7.1,1.288-.2-.473,3.072a2.351,2.351,0,0,1,1.539-.671c1.069,0,1.785.8,1.524,2.495a2.856,2.856,0,0,1-2.948,2.736m.928-4.12a1.855,1.855,0,0,0-1.213.661l-.353,2.3a1.86,1.86,0,0,0,.776.136c.8,0,1.353-.482,1.531-1.635.15-.975-.174-1.457-.74-1.457" transform="translate(-108.805 -5.936)" fill="#fff"/>
        <path id="Path_8980" data-name="Path 8980" d="M173.949,22.157c-.643,1.247-1.279,1.635-2.254,1.635a1.546,1.546,0,0,1-.453-.052l-.008-1.038a2.157,2.157,0,0,0,.576.073,1,1,0,0,0,.9-.534l.167-.336-1.067-4.99,1.336-.168.619,3.606,1.676-3.533h1.247Z" transform="translate(-121.592 -11.893)" fill="#fff"/>
      </g>
    </g>
  </g>
</svg>
