<svg xmlns="http://www.w3.org/2000/svg" xmlns:xlink="http://www.w3.org/1999/xlink" width="63" height="24" viewBox="0 0 63 24">
  <defs>
    <clipPath id="clip-path">
      <path id="Path_8962" data-name="Path 8962" d="M392.682,7.23l.047.009,1.158,5.552h-3.221l2.016-5.561m-.4-4.215a1.8,1.8,0,0,0-1.874,1.249q-2.556,6.1-5.111,12.191c-.238.568-.473,1.138-.72,1.734,1.359,0,2.68,0,4-.009.07,0,.171-.112.2-.192.226-.6.447-1.194.649-1.8a.331.331,0,0,1,.378-.274c1.466.012,2.931.016,4.4,0,.294,0,.378.1.425.361.113.634.257,1.263.39,1.905h3.655v-.108c-.118-.512-.245-1.022-.353-1.537q-1.26-6.023-2.514-12.048c-.1-.489-.209-.977-.315-1.473H392.28" transform="translate(-384.575 -3.015)" fill="none"/>
    </clipPath>
    <clipPath id="clip-path-2">
      <path id="Path_8963" data-name="Path 8963" d="M269.234,0a2.014,2.014,0,0,1-.227.054,7.078,7.078,0,0,0-3.766,1.462,4.321,4.321,0,0,0-1.684,3.99,3.553,3.553,0,0,0,1.59,2.527c.666.48,1.415.846,2.119,1.275a9.637,9.637,0,0,1,1.322.87,1.092,1.092,0,0,1-.123,1.8,2.848,2.848,0,0,1-1.031.43,7.075,7.075,0,0,1-4.006-.5c-.27-.109-.535-.232-.816-.355l-.708,3.314a.888.888,0,0,0,.11.067c.108.044.216.09.327.126a12.439,12.439,0,0,0,3.9.631h.008q.582,0,1.169-.055A7.4,7.4,0,0,0,270.9,14.51a4.566,4.566,0,0,0,2.158-4.664,3.578,3.578,0,0,0-1.723-2.561c-.777-.514-1.617-.932-2.416-1.413a5.82,5.82,0,0,1-1-.721.853.853,0,0,1,.026-1.348,2.517,2.517,0,0,1,.935-.5,5.092,5.092,0,0,1,2.484.021c.6.132,1.184.339,1.8.518l.684-3.2c-.463-.132-.89-.272-1.326-.373-.478-.11-.964-.184-1.446-.273Z" transform="translate(-261.906 -0.001)" fill="none"/>
    </clipPath>
    <clipPath id="clip-path-3">
      <path id="Path_8964" data-name="Path 8964" d="M14.183,3.2q-1.926,4.9-3.865,9.794c-.025.062-.062.119-.116.22-.034-.17-.06-.29-.083-.411Q9.338,8.657,8.555,4.514A1.808,1.808,0,0,0,6.671,2.966H.439c-.433,0-.433,0-.439.455l.151.038a19.645,19.645,0,0,1,3.4,1.1A2.066,2.066,0,0,1,4.787,6.072C5.782,10,6.8,13.915,7.811,17.837c.058.226.14.314.392.311,1.187-.016,2.374-.013,3.561,0a.372.372,0,0,0,.415-.268q2.81-6.735,5.637-13.463c.2-.47.391-.941.6-1.435-.11-.005-.188-.012-.266-.012h-1c-.871,0-1.742,0-2.614-.006h-.007a.312.312,0,0,0-.342.237" transform="translate(0 -2.961)" fill="none"/>
    </clipPath>
    <clipPath id="clip-path-4">
      <path id="Path_8965" data-name="Path 8965" d="M191.232,3.2l-3.243,15.158h.323c1.079,0,2.159-.013,3.237.008.3.006.4-.086.465-.376q1.323-6.259,2.669-12.512c.161-.754.322-1.508.485-2.277Z" transform="translate(-187.989 -3.196)" fill="none"/>
    </clipPath>
  </defs>
  <g id="Group_12014" data-name="Group 12014" transform="translate(-0.462 -0.134)">
    <rect id="Rectangle_1788" data-name="Rectangle 1788" width="63" height="24" transform="translate(0.462 0.134)" fill="none"/>
    <g id="Group_11996" data-name="Group 11996" transform="translate(7.402 3.877)">
      <g id="Group_11997" data-name="Group 11997" transform="translate(34.451 0.27)">
        <g id="Group_11996-2" data-name="Group 11996" clip-path="url(#clip-path)">
          <rect id="Rectangle_1773" data-name="Rectangle 1773" width="14.195" height="15.269" transform="translate(-0.1 0.001) rotate(-0.377)" fill="#fff"/>
        </g>
      </g>
      <g id="Group_11999" data-name="Group 11999" transform="translate(23.462 0)">
        <g id="Group_11998" data-name="Group 11998" clip-path="url(#clip-path-2)">
          <rect id="Rectangle_1774" data-name="Rectangle 1774" width="12.038" height="15.766" transform="matrix(1, -0.007, 0.007, 1, -0.103, 0.001)" fill="#fff"/>
        </g>
      </g>
      <g id="Group_12001" data-name="Group 12001" transform="translate(0 0.265)">
        <g id="Group_12000" data-name="Group 12000" clip-path="url(#clip-path-3)">
          <rect id="Rectangle_1775" data-name="Rectangle 1775" width="18.513" height="15.31" transform="matrix(1, -0.007, 0.007, 1, -0.1, 0.001)" fill="#fff"/>
        </g>
      </g>
      <g id="Group_12003" data-name="Group 12003" transform="translate(16.84 0.286)">
        <g id="Group_12002" data-name="Group 12002" clip-path="url(#clip-path-4)">
          <rect id="Rectangle_1776" data-name="Rectangle 1776" width="7.28" height="15.219" transform="translate(-0.1 0.001) rotate(-0.377)" fill="#fff"/>
        </g>
      </g>
    </g>
  </g>
</svg>
