<svg xmlns="http://www.w3.org/2000/svg" xmlns:xlink="http://www.w3.org/1999/xlink" width="20" height="20" viewBox="0 0 20 20">
  <defs>
    <clipPath id="clip-path">
      <rect id="Rectangle_6360" data-name="Rectangle 6360" width="20" height="20" transform="translate(0)" fill="none" stroke="#828e99" stroke-width="1"/>
    </clipPath>
  </defs>
  <g id="chat" transform="translate(0)" clip-path="url(#clip-path)">
    <path id="Path_14037" data-name="Path 14037" d="M13.942,14.077H8.826c-.305.34-.67.731-1.01,1.115a8.019,8.019,0,0,1-2.836,1.655c-.263.07-.963.035-.542-.453a4.844,4.844,0,0,0,.839-2.317H4.07a2.032,2.032,0,0,1-2.03-2.022V5.575A2.032,2.032,0,0,1,4.07,3.554h9.873a2.032,2.032,0,0,1,2.032,2.021v6.481a2.032,2.032,0,0,1-2.032,2.022M11.968,7.844a.834.834,0,0,0-.391.382.985.985,0,1,0,.391-.382m-2.892,0a.976.976,0,1,0,.98.977.98.98,0,0,0-.98-.977m-3.361.1a.976.976,0,1,0,.98.976.98.98,0,0,0-.98-.976m11.8-1.009h-.155a.116.116,0,0,0-.116.116v6.3a1.892,1.892,0,0,1-1.891,1.881H9.624a.531.531,0,0,0-.391.171l-.757.821a.236.236,0,0,0-.009.311.936.936,0,0,0,.751.334H14.45A3.219,3.219,0,0,0,15.536,18.3a3.391,3.391,0,0,0,1.619.731c.56.025.621-.157.525-.28a8.247,8.247,0,0,1-.49-1.08,2.462,2.462,0,0,1-.052-.809h.377A1.892,1.892,0,0,0,19.4,14.982V8.816a1.89,1.89,0,0,0-1.891-1.881" transform="translate(-0.514 -1.346)" fill="none" stroke="#828e99" stroke-width="1" fill-rule="evenodd"/>
  </g>
</svg>
