<svg xmlns="http://www.w3.org/2000/svg" xmlns:xlink="http://www.w3.org/1999/xlink" width="168" height="43.273" viewBox="0 0 168 43.273">
  <defs>
    <clipPath id="clip-path">
      <rect id="Rectangle_6113" data-name="Rectangle 6113" width="168" height="43.273" fill="none"/>
    </clipPath>
  </defs>
  <g id="logo_dark_-_En" data-name="logo dark - En" clip-path="url(#clip-path)">
    <path id="Path_13364" data-name="Path 13364" d="M183.106,67.662a1.236,1.236,0,1,1-1.236-1.243,1.236,1.236,0,0,1,1.236,1.243" transform="translate(-69.721 -25.636)" fill="#e3001b" fill-rule="evenodd"/>
    <path id="Path_13365" data-name="Path 13365" d="M96.732,59.117l-3.626,6.888h2.386l.585-1.17h4.528l.585,1.17h2.361l-3.576-6.888Zm.083,4.218,1.319-2.621h.414l1.318,2.621ZM179,59.021a43.776,43.776,0,0,0-6.1,0,1.572,1.572,0,0,0-1.464,1.153,9.134,9.134,0,0,0-.186,2.254,9.7,9.7,0,0,0,.186,2.328,1.575,1.575,0,0,0,1.464,1.153,29.63,29.63,0,0,0,3.066.1,29.137,29.137,0,0,0,3.03-.1,1.587,1.587,0,0,0,1.469-1.153,10.333,10.333,0,0,0,.182-2.3,10.211,10.211,0,0,0-.182-2.281A1.584,1.584,0,0,0,179,59.021m-.513,4.53a.712.712,0,0,1-.248.408,1.146,1.146,0,0,1-.61.2c-.268.032-.83.049-1.661.049-.895,0-1.491-.019-1.8-.056a.8.8,0,0,1-.755-.6,4.6,4.6,0,0,1-.062-.906,5.128,5.128,0,0,1,.119-1.39.683.683,0,0,1,.5-.457,13.26,13.26,0,0,1,1.982-.081,16.281,16.281,0,0,1,1.816.053.752.752,0,0,1,.543.273,1.121,1.121,0,0,1,.182.526,8.716,8.716,0,0,1,.046,1.088,4.6,4.6,0,0,1-.061.9m10.388-4.431.047,5.141H188.7l-3.586-5.141h-3.652v6.888h2.118l-.045-5.141h.227l3.6,5.141H191V59.117ZM92.935,62.462a5.145,5.145,0,0,0,.088-1.1,4.423,4.423,0,0,0-.142-1.305,1.2,1.2,0,0,0-.529-.649,1.614,1.614,0,0,0-.677-.237q-.356-.032-2.113-.032H84.513v6.888h2.1V64.258h2.926a6.778,6.778,0,0,1,.849.037.5.5,0,0,1,.318.149.855.855,0,0,1,.164.38,7.3,7.3,0,0,1,.033.813v.37h2.05v-.642a10.622,10.622,0,0,0-.044-1.171.949.949,0,0,0-.214-.475,1.272,1.272,0,0,0-.936-.375,1.829,1.829,0,0,0,.83-.316,1.087,1.087,0,0,0,.344-.568m-2.062-.288a.463.463,0,0,1-.187.256.432.432,0,0,1-.249.076c-.1.008-.4.021-.9.034h-2.92v-1.7h2.921c.475.007.758.007.858.019a.631.631,0,0,1,.26.059.5.5,0,0,1,.218.237,1.827,1.827,0,0,1,.057.507,1.925,1.925,0,0,1-.055.5M81.364,66h2.2V59.117h-2.2Zm86.872,0h2.19V59.117h-2.19ZM74.612,63.593l-2.038-4.475H68.8v6.888h2.056L70.8,60.866h.371l2.583,5.141h1.73l2.583-5.141h.342l-.056,5.141h2.058V59.117H76.643Zm-12.039-.338H67.82V61.734H62.578v-1H68.1V59.117H60.532v6.888h7.63V64.36H62.578Zm39.88-2.38h3.042v5.131h2.194V60.875h3.035V59.117h-8.264Zm54.67,2.373a1.279,1.279,0,0,1-.193.819.853.853,0,0,1-.537.167,14.806,14.806,0,0,1-1.59.045,11.2,11.2,0,0,1-1.348-.045,1.059,1.059,0,0,1-.552-.179.751.751,0,0,1-.259-.464,7.76,7.76,0,0,1-.055-1.106,6.472,6.472,0,0,1,.07-1.137.857.857,0,0,1,.255-.513,1.174,1.174,0,0,1,.528-.177c.25-.024.7-.033,1.345-.033s1.141.009,1.464.045a1.171,1.171,0,0,1,.6.159.277.277,0,0,1,.119.189,2.692,2.692,0,0,1,.043.454H159.1c.007-.2.014-.311.014-.337a3.391,3.391,0,0,0-.191-1.287,1.363,1.363,0,0,0-.657-.669,3.312,3.312,0,0,0-.962-.23c-.4-.036-1.04-.052-1.92-.052a19.966,19.966,0,0,0-3.516.193,1.51,1.51,0,0,0-1.159.852,2.769,2.769,0,0,0-.178.83c-.027.346-.042.929-.042,1.727,0,.816.014,1.386.042,1.693a2.435,2.435,0,0,0,.237.918,1.312,1.312,0,0,0,.559.531,3.355,3.355,0,0,0,1.249.292q.826.08,2.78.078a12.728,12.728,0,0,0,2.61-.183,1.424,1.424,0,0,0,1.017-.686,2.707,2.707,0,0,0,.237-1.247c0-.093,0-.322-.017-.649Zm2.348-2.373h3.039v5.131h2.2V60.875h3.035V59.117H159.47ZM147.6,62.18c0,.2-.011.453-.025.76a5.317,5.317,0,0,1-.076.631.757.757,0,0,1-.161.316.924.924,0,0,1-.593.247,11.278,11.278,0,0,1-1.484.065,8.082,8.082,0,0,1-1.767-.119.676.676,0,0,1-.517-.535,8.9,8.9,0,0,1-.072-1.363V59.021H140.8v3.166c.008.8.013,1.324.027,1.542a7.372,7.372,0,0,0,.093.741A1.549,1.549,0,0,0,142.2,65.8a6.611,6.611,0,0,0,1.172.161c.45.027,1.088.046,1.915.046a23.637,23.637,0,0,0,2.373-.081,2.61,2.61,0,0,0,1.109-.317,1.661,1.661,0,0,0,.83-1.266c.042-.342.079-1.053.1-2.158V59.021H147.6Zm-34.348,1.068h5.258V61.734h-5.258v-1h5.536V59.117h-7.58v6.888h7.631V64.36H113.25Zm13.693-1.261a2.38,2.38,0,0,0-.889-.261c-.374-.039-1.118-.082-2.221-.119a20.649,20.649,0,0,1-2.213-.119.408.408,0,0,1-.294-.442.437.437,0,0,1,.3-.475,8.378,8.378,0,0,1,1.621-.089c.734,0,1.211.014,1.438.033a.979.979,0,0,1,.475.1.335.335,0,0,1,.146.174,1.207,1.207,0,0,1,.049.386h2.024v-.33a2.024,2.024,0,0,0-.356-1.324,2.063,2.063,0,0,0-1.3-.527,18.271,18.271,0,0,0-2.119-.085,23.59,23.59,0,0,0-2.837.107,1.672,1.672,0,0,0-1.026.467,2.433,2.433,0,0,0-.443,1.655,2.246,2.246,0,0,0,.386,1.483,1.285,1.285,0,0,0,.631.387,5.045,5.045,0,0,0,1.153.14c.26.007.813.037,1.67.075.83.038,1.369.063,1.631.063a1.508,1.508,0,0,1,.669.112.453.453,0,0,1,.16.413c0,.28-.081.457-.237.521a1.438,1.438,0,0,1-.419.077c-.176.006-.712.017-1.586.021-.841-.014-1.341-.021-1.5-.031a.738.738,0,0,1-.388-.119c-.144-.095-.208-.313-.2-.652h-2.017v.319a3.156,3.156,0,0,0,.147,1.107,1.186,1.186,0,0,0,.536.581,2.861,2.861,0,0,0,1.11.288,22.448,22.448,0,0,0,2.279.081c1.234,0,2.07-.019,2.528-.063a2.742,2.742,0,0,0,.974-.229,1.254,1.254,0,0,0,.552-.523,3.16,3.16,0,0,0,.26-1.451,3.215,3.215,0,0,0-.161-1.134,1.221,1.221,0,0,0-.532-.622m6.975-2.866-3.63,6.888h2.386l1.33-2.672h-.007l1.314-2.621h.418l1.32,2.621h-.014l1.335,2.672h2.366l-3.578-6.888Z" transform="translate(-23.364 -22.734)" fill="#f7fafc" fill-rule="evenodd"/>
    <path id="Path_13366" data-name="Path 13366" d="M111.287,34.427a1.233,1.233,0,1,1-.359-.875,1.233,1.233,0,0,1,.359.875" transform="translate(-42.005 -12.81)" fill="#e3001b" fill-rule="evenodd"/>
    <path id="Path_13367" data-name="Path 13367" d="M261.636,37.68c0,.193-.011.445-.024.763a4.786,4.786,0,0,1-.075.624.769.769,0,0,1-.163.317,1.057,1.057,0,0,1-.593.254,11.39,11.39,0,0,1-1.491.063,8.2,8.2,0,0,1-1.756-.128.865.865,0,0,1-.388-.237v2.074c.093.011.184.011.267.018q.672.05,1.907.049a21.431,21.431,0,0,0,2.35-.084,2.866,2.866,0,0,0,1.113-.3,1.677,1.677,0,0,0,.816-1.269c.047-.333.081-1.055.1-2.146v-3.14h-2.065Z" transform="translate(-99.254 -13.33)" fill="#f7fafc" fill-rule="evenodd"/>
    <rect id="Rectangle_6108" data-name="Rectangle 6108" width="1.8" height="4.869" transform="translate(159.26 20.994)" fill="#f7fafc"/>
    <path id="Path_13368" data-name="Path 13368" d="M187.024,41.591h-8.671a8.777,8.777,0,0,1-1.173-.056,1.068,1.068,0,0,1-.532-.185.787.787,0,0,1-.237-.453,4.279,4.279,0,0,1-.075-.949c0-.16,0-.3.011-.429H174.3v.289a12.085,12.085,0,0,0,.051,1.4,4.063,4.063,0,0,0,.168.854,1.592,1.592,0,0,0,1.249,1.11,5.161,5.161,0,0,0,.949.133c.343.025.891.037,1.653.037h10.7V39.519h-2.048Z" transform="translate(-67.275 -15.254)" fill="#f7fafc" fill-rule="evenodd"/>
    <rect id="Rectangle_6109" data-name="Rectangle 6109" width="1.807" height="6.85" transform="translate(123.175 21.301)" fill="#f7fafc"/>
    <path id="Path_13369" data-name="Path 13369" d="M205.686,43.625a6.239,6.239,0,0,1-.033.774c-.046.253-.218.37-.51.37h-.25v1.237c.18.014.371.017.566.017a4.106,4.106,0,0,0,1.248-.151,1.116,1.116,0,0,0,.619-.553,1.513,1.513,0,0,0,.134-.467,8.093,8.093,0,0,0,.033-.965v-4.57h-1.807Z" transform="translate(-79.084 -15.175)" fill="#f7fafc" fill-rule="evenodd"/>
    <path id="Path_13370" data-name="Path 13370" d="M125.321,39.335a1.013,1.013,0,0,1-.186.492.691.691,0,0,1-.183.119,4.648,4.648,0,0,1-2.428,0,.623.623,0,0,1-.176-.119.967.967,0,0,1-.192-.492c0-.119-.014-.237-.014-.376a2.078,2.078,0,0,1,.1-.72.63.63,0,0,1,.3-.348h.011a2.335,2.335,0,0,1,.689-.134c.153-.007.316-.012.5-.012s.356,0,.507.012a2.319,2.319,0,0,1,.692.134h.011a.624.624,0,0,1,.3.348,2.009,2.009,0,0,1,.095.72,2.849,2.849,0,0,1-.015.376M143.87,37.68c0,.193,0,.445-.025.763a3.5,3.5,0,0,1-.068.624.712.712,0,0,1-.165.317,1.049,1.049,0,0,1-.593.254,11.269,11.269,0,0,1-1.482.063,8.186,8.186,0,0,1-1.763-.128.653.653,0,0,1-.517-.528,9.41,9.41,0,0,1-.075-1.316V34.535h-2.067v4.059a3.525,3.525,0,0,1-.04.606.542.542,0,0,1-.147.269c-.18.153-6.384.231-7.118.231-.456,0-1.77-.039-2.681-.1.021-.214.021-.457.021-.769a5.212,5.212,0,0,0-.126-1.342,1.3,1.3,0,0,0-.488-.676,1.723,1.723,0,0,0-.25-.142.236.236,0,0,0-.046-.02,1.085,1.085,0,0,0-.208-.078.161.161,0,0,1-.05-.014h-.014a3.933,3.933,0,0,0-.388-.1,11.312,11.312,0,0,0-1.838-.093h-.019a11.4,11.4,0,0,0-1.839.093,3.559,3.559,0,0,0-.381.1h-.027c0,.011-.027.011-.037.014a.981.981,0,0,0-.209.078.221.221,0,0,0-.053.02,1.621,1.621,0,0,0-.243.142,1.274,1.274,0,0,0-.486.676,4.934,4.934,0,0,0-.129,1.342c0,.312.011.555.02.769-.9.057-7.8.1-8.261.1a2.434,2.434,0,0,1-1.364-.231.389.389,0,0,1-.119-.165V37.471h-1.81v4.308a5.99,5.99,0,0,1-.031.774c-.049.253-.211.37-.51.37H108V44.16c.185.014.365.017.559.017a4.162,4.162,0,0,0,1.254-.151,1.106,1.106,0,0,0,.611-.553,1.478,1.478,0,0,0,.142-.467c.017-.172.028-.489.028-.965v-.609c.37.033.813.049,1.336.049,1.146,0,7.554-.059,8.067-.186a1.41,1.41,0,0,0,.752-.414,1.407,1.407,0,0,0,.8.439,1.1,1.1,0,0,0,.167.042c.034.008.069.014.1.019a11.982,11.982,0,0,0,1.516.1h.8a12.025,12.025,0,0,0,1.521-.1.612.612,0,0,0,.108-.019,1.049,1.049,0,0,0,.165-.042,1.406,1.406,0,0,0,.789-.439,1.423,1.423,0,0,0,.755.414,11.478,11.478,0,0,0,2.483.186c.949,0,7.379-.049,7.806-.142a2.267,2.267,0,0,0,.448-.154,2.266,2.266,0,0,0,.288.091,7.507,7.507,0,0,0,1.159.158q.667.05,1.891.049a21.491,21.491,0,0,0,2.357-.084,2.816,2.816,0,0,0,1.112-.3,1.676,1.676,0,0,0,.826-1.266c.046-.333.078-1.055.1-2.146V34.535h-2.068Z" transform="translate(-41.689 -13.33)" fill="#f7fafc" fill-rule="evenodd"/>
    <path id="Path_13371" data-name="Path 13371" d="M236.022,39.89a2.521,2.521,0,0,1-1.305.217,3.249,3.249,0,0,1-1.231-.161.565.565,0,0,1-.3-.307,2.041,2.041,0,0,1-.082-.681,2.067,2.067,0,0,1,.095-.72.616.616,0,0,1,.323-.356,3.373,3.373,0,0,1,1.2-.138,3.219,3.219,0,0,1,1.178.146.539.539,0,0,1,.317.327,1.888,1.888,0,0,1,.1.693,1.22,1.22,0,0,1-.291.98m1.479-3.074a2.219,2.219,0,0,0-.96-.356,11.192,11.192,0,0,0-1.831-.094,9.231,9.231,0,0,0-2.254.189,1.4,1.4,0,0,0-.929.719,1.638,1.638,0,0,0-.18.567,6.4,6.4,0,0,0-.047.921c0,.32,0,.593.025.83-.909.057-15.82.1-16.281.1a2.492,2.492,0,0,1-1.373-.231.512.512,0,0,1-.154-.269,3.606,3.606,0,0,1-.034-.606V34.535H211.41v4.1a8.007,8.007,0,0,0,.091,1.424,1.523,1.523,0,0,0,.356.75,1.707,1.707,0,0,0,.974.527,10.525,10.525,0,0,0,2.065.145c1.144,0,15.559-.061,16.068-.189a1.488,1.488,0,0,0,.764-.424.958.958,0,0,0,.127.119,1.933,1.933,0,0,0,.93.383,13.322,13.322,0,0,0,1.934.1,10.2,10.2,0,0,0,2.179-.165,1.362,1.362,0,0,0,1.048-.86,2.425,2.425,0,0,0,.139-.606c.023-.229.03-.571.03-1.017a5.047,5.047,0,0,0-.125-1.341,1.282,1.282,0,0,0-.486-.677" transform="translate(-81.601 -13.33)" fill="#f7fafc" fill-rule="evenodd"/>
    <path id="Path_13372" data-name="Path 13372" d="M73.155,41.591H64.489a8.653,8.653,0,0,1-1.172-.056,1.019,1.019,0,0,1-.529-.185.83.83,0,0,1-.248-.453,5.2,5.2,0,0,1-.063-.949v-.429H60.424v.289c0,.618.018,1.082.045,1.4a4.345,4.345,0,0,0,.178.854,1.592,1.592,0,0,0,1.255,1.11,4.962,4.962,0,0,0,.949.133q.5.037,1.647.037H75.205V39.519h-2.05Z" transform="translate(-23.325 -15.254)" fill="#f7fafc" fill-rule="evenodd"/>
    <rect id="Rectangle_6110" data-name="Rectangle 6110" width="1.809" height="6.85" transform="translate(63.666 21.301)" fill="#f7fafc"/>
    <rect id="Rectangle_6111" data-name="Rectangle 6111" width="1.806" height="6.85" transform="translate(53.247 21.301)" fill="#f7fafc"/>
    <path id="Path_13373" data-name="Path 13373" d="M96.118,37.133a16.7,16.7,0,0,0-1.786-.058H91.784v1.717h2.552a5.671,5.671,0,0,1,1.086.063.483.483,0,0,1,.262.252,1.478,1.478,0,0,1,.072.531,1.722,1.722,0,0,1-.062.543.467.467,0,0,1-.217.26.906.906,0,0,1-.279.079c-.1.006-.388.013-.861.013H91.784v1.715h2.568q1.207,0,1.654-.047a2.692,2.692,0,0,0,.983-.257,1.354,1.354,0,0,0,.55-.516,3.907,3.907,0,0,0,.3-1.791,3.559,3.559,0,0,0-.356-1.852,1.876,1.876,0,0,0-1.369-.653" transform="translate(-35.427 -14.31)" fill="#f7fafc" fill-rule="evenodd"/>
    <path id="Path_13374" data-name="Path 13374" d="M70.788,34.427a1.237,1.237,0,1,1-.363-.876,1.236,1.236,0,0,1,.363.876" transform="translate(-26.368 -12.81)" fill="#f7fafc" fill-rule="evenodd"/>
    <path id="Path_13375" data-name="Path 13375" d="M75.36,34.427a1.235,1.235,0,1,1-1.234-1.237,1.235,1.235,0,0,1,1.234,1.237" transform="translate(-28.135 -12.81)" fill="#f7fafc" fill-rule="evenodd"/>
    <path id="Path_13376" data-name="Path 13376" d="M184.688,34.462a1.237,1.237,0,1,1-.363-.879,1.235,1.235,0,0,1,.363.879" transform="translate(-70.335 -12.822)" fill="#f7fafc" fill-rule="evenodd"/>
    <path id="Path_13377" data-name="Path 13377" d="M189.262,34.462a1.237,1.237,0,1,1-.362-.879,1.235,1.235,0,0,1,.362.879" transform="translate(-72.098 -12.822)" fill="#f7fafc" fill-rule="evenodd"/>
    <path id="Path_13378" data-name="Path 13378" d="M31.472,18.033v-8.7L15.737,0,0,9.332v8.7L15.737,8.7Z" fill="#f7fafc" fill-rule="evenodd"/>
    <path id="Path_13379" data-name="Path 13379" d="M31.472,38.1V29.4L15.737,20.069,0,29.4v8.7l15.737-9.336Z" transform="translate(0 -7.746)" fill="#c00020" fill-rule="evenodd"/>
    <path id="Path_13380" data-name="Path 13380" d="M31.472,58.17v-8.7l-15.735-9.33L0,49.473v8.7l15.737-9.334Z" transform="translate(0 -15.495)" fill="#f7fafc" fill-rule="evenodd"/>
    <path id="Path_13381" data-name="Path 13381" d="M26.41,65.6A2.1,2.1,0,1,1,24.3,63.439,2.135,2.135,0,0,1,26.41,65.6" transform="translate(-8.571 -24.487)" fill="#c00020" fill-rule="evenodd"/>
    <rect id="Rectangle_6112" data-name="Rectangle 6112" width="2.183" height="6.849" transform="translate(165.817 21.236)" fill="#f7fafc"/>
  </g>
</svg>
