<svg xmlns="http://www.w3.org/2000/svg" width="20" height="16.363" viewBox="0 0 20 16.363">
  <g id="Icon_feather-mail" data-name="Icon feather-mail" transform="translate(-1.5 -4.5)">
    <path id="Path_12321" data-name="Path 12321" d="M4.227,4.5H18.772A2.73,2.73,0,0,1,21.5,7.227V18.136a2.73,2.73,0,0,1-2.727,2.727H4.227A2.73,2.73,0,0,1,1.5,18.136V7.227A2.73,2.73,0,0,1,4.227,4.5ZM18.772,19.045a.91.91,0,0,0,.909-.909V7.227a.91.91,0,0,0-.909-.909H4.227a.91.91,0,0,0-.909.909V18.136a.91.91,0,0,0,.909.909Z" transform="translate(0 0)" fill="#828e99"/>
    <path id="Path_12322" data-name="Path 12322" d="M11.5,15.682a.908.908,0,0,1-.521-.164L1.888,9.154A.909.909,0,1,1,2.93,7.664l8.569,6,8.569-6a.909.909,0,0,1,1.043,1.489l-9.091,6.363A.908.908,0,0,1,11.5,15.682Z" transform="translate(0 -1.182)" fill="#828e99"/>
  </g>
</svg>
