<svg id="visual" viewBox="0 0 900 600" width="900" height="600" xmlns="http://www.w3.org/2000/svg" xmlns:xlink="http://www.w3.org/1999/xlink" version="1.1"><rect x="0" y="0" width="900" height="600" fill="#002233"></rect><path d="M0 480L21.5 482.2C43 484.3 86 488.7 128.8 490.2C171.7 491.7 214.3 490.3 257.2 475.7C300 461 343 433 385.8 435.7C428.7 438.3 471.3 471.7 514.2 475.5C557 479.3 600 453.7 642.8 453.3C685.7 453 728.3 478 771.2 487.2C814 496.3 857 489.7 878.5 486.3L900 483L900 601L878.5 601C857 601 814 601 771.2 601C728.3 601 685.7 601 642.8 601C600 601 557 601 514.2 601C471.3 601 428.7 601 385.8 601C343 601 300 601 257.2 601C214.3 601 171.7 601 128.8 601C86 601 43 601 21.5 601L0 601Z" fill="#040B11" stroke-linecap="round" stroke-linejoin="miter"></path></svg>