<svg id="visual" viewBox="0 0 900 350" width="900" height="350" xmlns="http://www.w3.org/2000/svg" xmlns:xlink="http://www.w3.org/1999/xlink" version="1.1"><rect x="0" y="0" width="900" height="350" fill="#272727"></rect><path d="M0 201L25 215.5C50 230 100 259 150 263.7C200 268.3 250 248.7 300 251.7C350 254.7 400 280.3 450 281.8C500 283.3 550 260.7 600 256C650 251.3 700 264.7 750 269C800 273.3 850 268.7 875 266.3L900 264L900 351L875 351C850 351 800 351 750 351C700 351 650 351 600 351C550 351 500 351 450 351C400 351 350 351 300 351C250 351 200 351 150 351C100 351 50 351 25 351L0 351Z" fill="#040B11" stroke-linecap="round" stroke-linejoin="miter"></path></svg>