<svg id="visual" viewBox="0 0 900 100" width="900" height="100" xmlns="http://www.w3.org/2000/svg" xmlns:xlink="http://www.w3.org/1999/xlink" version="1.1"><rect x="0" y="0" width="900" height="100" fill="#272727"></rect><path d="M0 55L13.7 53.7C27.3 52.3 54.7 49.7 82 49.7C109.3 49.7 136.7 52.3 163.8 57C191 61.7 218 68.3 245.2 64.7C272.3 61 299.7 47 327 43.8C354.3 40.7 381.7 48.3 409 56.7C436.3 65 463.7 74 491 71.7C518.3 69.3 545.7 55.7 573 44.7C600.3 33.7 627.7 25.3 654.8 20.7C682 16 709 15 736.2 20.3C763.3 25.7 790.7 37.3 818 47.5C845.3 57.7 872.7 66.3 886.3 70.7L900 75L900 101L886.3 101C872.7 101 845.3 101 818 101C790.7 101 763.3 101 736.2 101C709 101 682 101 654.8 101C627.7 101 600.3 101 573 101C545.7 101 518.3 101 491 101C463.7 101 436.3 101 409 101C381.7 101 354.3 101 327 101C299.7 101 272.3 101 245.2 101C218 101 191 101 163.8 101C136.7 101 109.3 101 82 101C54.7 101 27.3 101 13.7 101L0 101Z" fill="#040B11" stroke-linecap="round" stroke-linejoin="miter"></path></svg>