<svg id="visual" viewBox="0 0 900 450" width="900" height="450" xmlns="http://www.w3.org/2000/svg" xmlns:xlink="http://www.w3.org/1999/xlink" version="1.1"><path d="M0 363L25 357C50 351 100 339 150 341.3C200 343.7 250 360.3 300 372.5C350 384.7 400 392.3 450 373C500 353.7 550 307.3 600 300.8C650 294.3 700 327.7 750 338C800 348.3 850 335.7 875 329.3L900 323L900 451L875 451C850 451 800 451 750 451C700 451 650 451 600 451C550 451 500 451 450 451C400 451 350 451 300 451C250 451 200 451 150 451C100 451 50 451 25 451L0 451Z" fill="#040B11" stroke-linecap="round" stroke-linejoin="miter"></path></svg>