<svg id="visual" viewBox="0 0 900 100" width="900" height="100" xmlns="http://www.w3.org/2000/svg" xmlns:xlink="http://www.w3.org/1999/xlink" version="1.1"><rect x="0" y="0" width="900" height="100" fill="#272727"></rect><path d="M0 74L21.5 68.5C43 63 86 52 128.8 49.3C171.7 46.7 214.3 52.3 257.2 57.2C300 62 343 66 385.8 68.2C428.7 70.3 471.3 70.7 514.2 69.7C557 68.7 600 66.3 642.8 60.2C685.7 54 728.3 44 771.2 42C814 40 857 46 878.5 49L900 52L900 101L878.5 101C857 101 814 101 771.2 101C728.3 101 685.7 101 642.8 101C600 101 557 101 514.2 101C471.3 101 428.7 101 385.8 101C343 101 300 101 257.2 101C214.3 101 171.7 101 128.8 101C86 101 43 101 21.5 101L0 101Z" fill="#040B11" stroke-linecap="round" stroke-linejoin="miter"></path></svg>