<svg id="visual" viewBox="0 0 900 100" width="900" height="100" xmlns="http://www.w3.org/2000/svg" xmlns:xlink="http://www.w3.org/1999/xlink" version="1.1"><rect x="0" y="0" width="900" height="100" fill="#272727"></rect><path d="M0 68L30 67.2C60 66.3 120 64.7 180 57C240 49.3 300 35.7 360 39.3C420 43 480 64 540 69.7C600 75.3 660 65.7 720 55C780 44.3 840 32.7 870 26.8L900 21L900 101L870 101C840 101 780 101 720 101C660 101 600 101 540 101C480 101 420 101 360 101C300 101 240 101 180 101C120 101 60 101 30 101L0 101Z" fill="#040B11" stroke-linecap="round" stroke-linejoin="miter"></path></svg>