<svg width="268" height="353" viewBox="0 0 268 353" fill="none" xmlns="http://www.w3.org/2000/svg">
<g opacity="0.1">
<path d="M91.5 353C138.311 353 183.204 334.405 216.304 301.304C249.405 268.204 268 223.311 268 176.5C268 129.689 249.405 84.7958 216.304 51.6957C183.204 18.5955 138.311 0 91.5 0C44.6893 0 -0.204178 18.5955 -33.3043 51.6957C-66.4045 84.7958 -85 129.689 -85 176.5C-85 223.311 -66.4045 268.204 -33.3043 301.304C-0.204178 334.405 44.6893 353 91.5 353ZM126.455 224.141L26.9672 262.406C13.5918 267.577 0.423241 254.408 5.59414 241.033L43.8588 141.545C46.134 135.684 50.6844 131.134 56.5447 128.859L156.033 90.5941C169.408 85.4232 182.577 98.5918 177.406 111.967L139.141 211.455C136.935 217.316 132.316 221.866 126.455 224.141ZM113.562 176.5C113.562 170.649 111.238 165.037 107.101 160.899C102.963 156.762 97.3513 154.438 91.5 154.438C85.6487 154.438 80.037 156.762 75.8995 160.899C71.7619 165.037 69.4375 170.649 69.4375 176.5C69.4375 182.351 71.7619 187.963 75.8995 192.101C80.037 196.238 85.6487 198.562 91.5 198.562C97.3513 198.562 102.963 196.238 107.101 192.101C111.238 187.963 113.562 182.351 113.562 176.5Z" fill="#C4CCD8"/>
</g>
</svg>
