<svg width="103" height="118" viewBox="0 0 103 118" fill="none" xmlns="http://www.w3.org/2000/svg">
<mask id="mask0_89_902" style="mask-type:luminance" maskUnits="userSpaceOnUse" x="0" y="21" width="37" height="37">
<path d="M12.8651 21.9091L36.2197 33.8228L24.3026 57.184L0.947992 45.2704L12.8651 21.9091Z" fill="white"/>
</mask>
<g mask="url(#mask0_89_902)">
<path d="M34.6871 35.6098C34.3936 35.9517 9.85602 46.3516 8.0965 47.0546C5.7429 47.9978 4.07611 46.912 3.08183 45.1078C2.0876 43.3035 3.14961 41.2523 6.66762 40.4843C8.7504 40.0274 34.6011 33.6708 34.6011 33.6708L34.6855 35.6163L34.6871 35.6098Z" fill="#F1B71C"/>
<path d="M34.6875 35.61C34.3939 35.9519 9.85639 46.3518 8.09687 47.0548C5.74327 47.998 4.07648 46.9122 3.0822 45.108C2.08796 43.3037 3.14998 41.2525 6.66799 40.4845C8.75076 40.0276 34.6015 33.671 34.6015 33.671" stroke="#00793E" stroke-width="0.525391" stroke-linecap="round" stroke-linejoin="round"/>
</g>
<path d="M2.94308 39.8034C2.94308 39.8034 3.62497 39.4511 4.20284 39.5728C4.78071 39.6945 5.56615 40.3163 5.56615 40.3163C5.56615 40.3163 6.45985 39.9912 7.06011 40.3802C7.66038 40.7691 10.169 45.4984 10.1787 45.8764C10.1884 46.2543 9.94009 46.5469 9.36616 46.9083C8.79224 47.2698 4.73299 48.0948 4.73299 48.0948L1.55261 43.5477L4.03958 41.0554L2.95195 39.8075L2.94308 39.8034Z" fill="#F1B71C" stroke="#00793E" stroke-width="0.4375" stroke-linecap="round" stroke-linejoin="round"/>
<path d="M2.48248 44.9208C2.48248 44.9208 4.87809 43.4458 5.93335 42.6064" stroke="#00793E" stroke-width="0.4375" stroke-linecap="round" stroke-linejoin="round"/>
<path d="M3.7107 46.4648C3.7107 46.4648 5.17357 46.2013 5.94586 45.7938C6.85715 45.315 7.35483 44.8576 7.35483 44.8576" stroke="#00793E" stroke-width="0.4375" stroke-linecap="round" stroke-linejoin="round"/>
<path d="M41.609 54.4085C41.9994 55.0574 45.6338 99.6954 45.8263 102.874C46.0882 107.127 43.4759 109.212 40.0724 109.846C38.4078 110.156 34.085 110.46 30.1765 109.986C24.7594 109.328 27.8855 105.723 31.7111 101.832C42.89 90.4609 38.4702 53.5218 38.4702 53.5218L41.4836 53.522L41.609 54.4085Z" fill="#F1B71C"/>
<path d="M69.2145 54.4085C69.605 55.0574 73.2394 99.6954 73.4318 102.874C73.6938 107.127 71.0815 109.212 67.678 109.846C66.0134 110.156 61.6906 110.46 57.7821 109.986C52.365 109.328 55.4911 105.723 59.3166 101.832C70.4956 90.4609 66.0758 53.5218 66.0758 53.5218L69.0892 53.522L69.2145 54.4085Z" fill="#F1B71C"/>
<path d="M41.3722 54.5338C41.3714 54.5307 41.3707 54.5279 41.3701 54.5256L41.3541 54.499L41.3466 54.4456L41.2534 53.787L38.767 53.7868C38.7712 53.8246 38.7757 53.866 38.7806 53.9108C38.8103 54.1852 38.8524 54.5886 38.9021 55.1059C39.0013 56.1404 39.1305 57.6305 39.2505 59.4538C39.4906 63.0999 39.6941 68.0813 39.5476 73.42C39.4012 78.7572 38.9047 84.4598 37.7416 89.5453C36.58 94.6244 34.7461 99.1226 31.9 102.018C30.9442 102.99 30.0381 103.938 29.2992 104.825C28.5572 105.715 27.9994 106.525 27.7241 107.219C27.4498 107.911 27.4766 108.428 27.7967 108.812C28.1376 109.221 28.869 109.56 30.2084 109.723C34.0903 110.194 38.386 109.89 40.0239 109.585C41.6894 109.275 43.134 108.615 44.1292 107.537C45.1189 106.466 45.689 104.955 45.5618 102.89L45.5617 102.89C45.4658 101.304 44.5094 89.3544 43.5278 77.7148C43.0371 71.8961 42.5402 66.157 42.1417 61.8323C41.9424 59.6698 41.7678 57.862 41.6309 56.575C41.5624 55.9312 41.5035 55.4195 41.4558 55.0596C41.432 54.8793 41.4113 54.7398 41.3939 54.6418C41.3852 54.5925 41.3779 54.5571 41.3722 54.5338Z" stroke="#00793E" stroke-width="0.53"/>
<path d="M68.9778 54.5338C68.977 54.5307 68.9763 54.5279 68.9757 54.5256L68.9597 54.499L68.9522 54.4456L68.859 53.787L66.3726 53.7868C66.3768 53.8246 66.3813 53.866 66.3861 53.9108C66.4159 54.1852 66.458 54.5886 66.5077 55.1059C66.6069 56.1404 66.7361 57.6305 66.8561 59.4538C67.0962 63.0999 67.2997 68.0813 67.1532 73.42C67.0067 78.7572 66.5103 84.4598 65.3472 89.5453C64.1856 94.6244 62.3517 99.1226 59.5056 102.018C58.5498 102.99 57.6437 103.938 56.9047 104.825C56.1628 105.715 55.605 106.525 55.3297 107.219C55.0554 107.911 55.0822 108.428 55.4022 108.812C55.7432 109.221 56.4746 109.56 57.814 109.723C61.6959 110.194 65.9916 109.89 67.6295 109.585C69.295 109.275 70.7396 108.615 71.7348 107.537C72.7245 106.466 73.2946 104.955 73.1673 102.89L73.1673 102.89C73.0714 101.304 72.115 89.3544 71.1334 77.7148C70.6427 71.8961 70.1458 66.157 69.7473 61.8323C69.548 59.6698 69.3734 57.862 69.2365 56.575C69.168 55.9312 69.1091 55.4195 69.0614 55.0596C69.0376 54.8793 69.0168 54.7398 68.9995 54.6418C68.9908 54.5925 68.9835 54.5571 68.9778 54.5338Z" stroke="#00793E" stroke-width="0.53"/>
<mask id="mask1_89_902" style="mask-type:luminance" maskUnits="userSpaceOnUse" x="19" y="0" width="84" height="88">
<path d="M102.974 26.7436L50.5499 0.000976562L19.7788 60.3223L72.2028 87.0649L102.974 26.7436Z" fill="white"/>
</mask>
<g mask="url(#mask1_89_902)">
<path d="M81.9519 61.6146L25.725 61.5715C23.4657 61.5717 21.602 59.9326 22.9092 56.788C23.8888 54.4335 49.0511 4.20612 49.0511 4.20612C50.4493 0.890457 53.5941 0.899711 55.0304 4.17199C55.0304 4.17199 84.0313 53.8649 85.375 56.4372C86.9448 59.4481 84.2127 61.6065 81.9534 61.6067L81.9519 61.6146Z" fill="#F1B71C" stroke="#00793E" stroke-width="0.584077" stroke-linecap="round" stroke-linejoin="round"/>
<path d="M51.0145 54.3645L50.0966 49.3457L55.1769 48.6006L55.1823 54.1109L51.0145 54.3645Z" fill="#00793E"/>
<path d="M50.2254 43.0279L54.5479 42.799L54.7272 20.2455L50.8974 18.6517L46.9939 18.984L50.2254 43.0279Z" fill="#00793E"/>
<path d="M46.2292 12.9844C49.0203 19.6939 55.7447 21.0135 62.3138 23.1243" stroke="#00793E" stroke-width="0.584077"/>
</g>
<mask id="mask2_89_902" style="mask-type:luminance" maskUnits="userSpaceOnUse" x="39" y="24" width="37" height="37">
<path d="M51.7417 24.785L75.0963 36.6987L63.1792 60.06L39.8246 48.1463L51.7417 24.785Z" fill="white"/>
</mask>
<g mask="url(#mask2_89_902)">
<path d="M73.5637 38.486C73.2701 38.8279 48.7326 49.2278 46.9731 49.9308C44.6195 50.874 42.9527 49.7883 41.9584 47.984C40.9642 46.1798 42.0262 44.1285 45.5442 43.3605C47.627 42.9036 73.4777 36.5471 73.4777 36.5471L73.5621 38.4925L73.5637 38.486Z" fill="#F1B71C"/>
<path d="M75.7086 37.2058C75.4151 37.5477 48.7326 49.2277 46.9731 49.9307C44.6195 50.8739 42.9527 49.7882 41.9584 47.9839C40.9642 46.1797 42.0262 44.1284 45.5442 43.3604C47.627 42.9035 73.4778 36.547 73.4778 36.547" stroke="#00793E" stroke-width="0.525391" stroke-linecap="round" stroke-linejoin="round"/>
</g>
<path d="M45.815 52.5651C45.815 52.5651 46.4845 52.2983 46.7281 51.8043C46.9718 51.3104 46.9515 50.3481 46.9515 50.3481C46.9515 50.3481 47.7238 49.9114 47.7747 49.231C47.8256 48.5505 45.648 43.7289 45.3626 43.481C45.0772 43.2331 44.7069 43.2255 44.0934 43.4087C43.4799 43.5919 40.4743 45.991 40.4743 45.991L42.1193 51.1806L45.491 50.9771L45.817 52.5561L45.815 52.5651Z" fill="#F1B71C" stroke="#00793E" stroke-width="0.4375" stroke-linecap="round" stroke-linejoin="round"/>
<path d="M41.6047 49.6353C41.6047 49.6353 44.1395 48.8492 45.4021 48.6238" stroke="#00793E" stroke-width="0.4375" stroke-linecap="round" stroke-linejoin="round"/>
<path d="M41.1326 47.7664C41.1326 47.7664 42.1898 46.8803 42.9545 46.5835C43.8554 46.2321 44.4982 46.165 44.4982 46.165" stroke="#00793E" stroke-width="0.4375" stroke-linecap="round" stroke-linejoin="round"/>
</svg>
