<svg width="43" height="50" viewBox="0 0 43 50" fill="none" xmlns="http://www.w3.org/2000/svg">
<g clip-path="url(#clip0_89_795)">
<mask id="mask0_89_795" style="mask-type:luminance" maskUnits="userSpaceOnUse" x="0" y="0" width="43" height="50">
<path d="M42.6385 0H0.00146484V49.06H42.6385V0Z" fill="white"/>
</mask>
<g mask="url(#mask0_89_795)">
<path d="M40.5516 29.4256L4.25019 47.9086C2.79217 48.6525 1.04978 48.2083 0.85816 45.7485C0.715244 43.9065 0.418508 3.20733 0.418508 3.20733C0.229348 0.607163 2.26191 -0.422161 4.26619 1.21679C4.26619 1.21679 39.3422 23.7396 41.0562 24.9573C43.0606 26.3836 42.008 28.676 40.55 29.42L40.5516 29.4256Z" fill="#F1B71C" stroke="#00793E" stroke-width="0.584077" stroke-linecap="round" stroke-linejoin="round"/>
<path d="M18.1988 34.9315L15.9541 31.9947L18.9874 29.8413L20.805 33.3958L18.1988 34.9315Z" fill="#00793E"/>
<path d="M9.18889 11.9963L16.2874 26.1892L14.0441 27.4874L4.37067 13.5077L6.45959 12.2078L9.18889 11.9963Z" fill="#00793E" stroke="#00793E" stroke-width="0.584077"/>
<path d="M1.4873 9.80151C5.49747 13.2128 10.2716 11.8506 15.206 11.0502" stroke="#00793E" stroke-width="0.584077"/>
</g>
<mask id="mask1_89_795" style="mask-type:luminance" maskUnits="userSpaceOnUse" x="0" y="21" width="28" height="31">
<path d="M27.956 21.75H0.633789V51.17H27.956V21.75Z" fill="white"/>
</mask>
<g mask="url(#mask1_89_795)">
<path d="M1.21031 24.3172C1.32089 24.8085 19.1746 47.7095 20.4751 49.309C22.2133 51.4513 24.2747 51.216 26.0522 49.9198C27.8295 48.6237 27.815 46.0325 24.9129 43.4717C23.1958 41.9533 2.20831 22.4233 2.20831 22.4233L1.20874 24.3244L1.21031 24.3172Z" fill="#F1B71C"/>
<path d="M1.21021 24.3172C1.32079 24.8085 19.1745 47.7095 20.475 49.309C22.2132 51.4513 24.2746 51.216 26.0521 49.9198C27.8294 48.6237 27.8149 46.0325 24.9128 43.4717C23.1957 41.9533 2.2082 22.4233 2.2082 22.4233" stroke="#00793E" stroke-width="0.525391" stroke-linecap="round" stroke-linejoin="round"/>
</g>
</g>
<defs>
<clipPath id="clip0_89_795">
<rect width="42.64" height="49.06" fill="white"/>
</clipPath>
</defs>
</svg>
