<svg width="92" height="138" viewBox="0 0 92 138" fill="none" xmlns="http://www.w3.org/2000/svg">
<path d="M22.1724 27.5786C36.8232 27.5786 46.966 27.5786 71.7595 27.5786C99.0465 27.5786 78.5213 106.193 71.7595 106.193C64.9977 106.193 46.966 137.893 46.966 137.893C46.966 137.893 32.3152 106.193 22.1724 106.193C12.0296 106.193 -3.14213 27.5786 22.1724 27.5786Z" fill="#E36018"/>
<path d="M26.4766 27.5786C38.5794 27.5786 46.9582 27.5786 67.4399 27.5786C89.9813 27.5786 73.0257 86.5397 67.4399 86.5397C61.854 86.5397 46.9582 110.314 46.9582 110.314C46.9582 110.314 34.8555 86.5397 26.4766 86.5397C18.0978 86.5397 5.56459 27.5786 26.4766 27.5786Z" fill="#FFAE44"/>
<path d="M32.9334 27.5786C41.2142 27.5786 46.9471 27.5786 60.9609 27.5786C76.3839 27.5786 64.7828 66.886 60.9609 66.886C57.139 66.886 46.9471 82.7358 46.9471 82.7358C46.9471 82.7358 38.6663 66.886 32.9334 66.886C27.2005 66.886 18.6252 27.5786 32.9334 27.5786Z" fill="#FCE25E"/>
<path d="M0.0400391 0H91.0494L85.5336 33.0943H8.31361L0.0400391 0Z" fill="#5B6575"/>
</svg>
