<svg width="9" height="50" viewBox="0 0 9 50" fill="none" xmlns="http://www.w3.org/2000/svg">
<path d="M3.70098 39.8423C3.70098 39.8423 2.01116 41.2028 1.87107 42.3578C1.66969 43.9981 1.56462 47.393 2.17751 48.001C2.63718 48.4604 4.77353 49.0685 5.68849 48.6879C6.60344 48.3073 7.67162 47.1611 7.67162 47.1611L7.79858 42.4059C7.79858 42.4059 6.69538 42.6377 5.77604 42.6815C4.85671 42.7252 3.85858 42.279 3.85858 42.279L3.70536 39.8379L3.70098 39.8423Z" fill="#F1B71C" stroke="#00793E" stroke-width="0.4375" stroke-linecap="round" stroke-linejoin="round"/>
<path d="M7.62356 46.0718C7.62356 46.0718 6.37152 46.8417 5.64919 46.9861C4.92685 47.1305 3.48218 46.7455 3.48218 46.7455" stroke="#00793E" stroke-width="0.4375" stroke-linecap="round" stroke-linejoin="round"/>
<path d="M7.62355 44.0557C7.62355 44.0557 6.2752 44.7775 5.64917 44.8737C5.02315 44.97 3.6748 44.6813 3.6748 44.6813" stroke="#00793E" stroke-width="0.4375" stroke-linecap="round" stroke-linejoin="round"/>
<path d="M3.67493 10.0544C3.67493 10.0544 2.92195 9.90564 2.54546 9.45066C2.16897 8.99568 1.94133 8.02011 1.94133 8.02011C1.94133 8.02011 1.03951 7.71825 0.811861 7.04016C0.584218 6.36207 1.56484 1.09924 1.79249 0.797377C2.02013 0.495517 2.39662 0.421145 3.0708 0.495517C3.74498 0.569889 7.43543 2.45103 7.43543 2.45103L7.09396 7.98948L3.59613 8.39196L3.67055 10.0456L3.67493 10.0544Z" fill="#F1B71C" stroke="#00793E" stroke-width="0.4375" stroke-linecap="round" stroke-linejoin="round"/>
<path d="M7.22099 6.33588C7.22099 6.33588 4.42795 5.99902 3.07959 5.99902" stroke="#00793E" stroke-width="0.4375" stroke-linecap="round" stroke-linejoin="round"/>
<path d="M7.22087 4.36286C7.22087 4.36286 5.91191 3.65851 5.05387 3.49664C4.04258 3.30415 3.36841 3.35227 3.36841 3.35227" stroke="#00793E" stroke-width="0.4375" stroke-linecap="round" stroke-linejoin="round"/>
</svg>
