<svg width="52" height="191" viewBox="0 0 52 191" fill="none" xmlns="http://www.w3.org/2000/svg">
<mask id="mask0_89_858" style="mask-type:luminance" maskUnits="userSpaceOnUse" x="0" y="0" width="52" height="191">
<path d="M51.4791 0H0.000976562V190.03H51.4791V0Z" fill="white"/>
</mask>
<g mask="url(#mask0_89_858)">
<path d="M50.7221 0.766878L4.29339 45.6851C4.29339 45.6851 0.758057 49.2207 0.758057 54.263C0.758057 59.3052 21.1979 183.476 21.9549 186.504C22.712 189.533 26.7469 190.29 26.4971 185.997C26.2776 182.234 28.9347 132.501 28.9347 116.844C28.9347 115.33 29.1013 112.976 29.6085 111.795C30.3201 110.129 32.5534 109.107 32.5534 109.107L50.2149 93.632C50.2149 93.632 51.2217 0.259642 50.7221 0.759323V0.766878Z" fill="#21E786" stroke="#452650" stroke-width="0.757096" stroke-miterlimit="10"/>
<path d="M50.2224 93.6397C50.2224 93.6397 50.3587 80.9735 50.5101 64.9985L7.6167 99.6889C13.6351 137.248 21.5006 184.65 21.9624 186.512C22.7195 189.54 26.7544 190.298 26.5046 186.005C26.2851 182.242 28.859 133.856 28.859 118.2C28.859 116.686 29.0255 114.331 29.5327 113.15C30.2444 111.484 33.2346 108.774 33.2346 108.774L50.2224 93.6321V93.6397Z" fill="#279D63" stroke="#452650" stroke-width="0.757096" stroke-miterlimit="10"/>
</g>
</svg>
