<svg width="52" height="191" viewBox="0 0 52 191" fill="none" xmlns="http://www.w3.org/2000/svg">
<mask id="mask0_89_865" style="mask-type:luminance" maskUnits="userSpaceOnUse" x="0" y="0" width="52" height="191">
<path d="M51.9691 0H0.490967V190.03H51.9691V0Z" fill="white"/>
</mask>
<g mask="url(#mask0_89_865)">
<path d="M1.38716 0.766878L47.8159 45.6851C47.8159 45.6851 51.3512 49.2207 51.3512 54.263C51.3512 59.3052 30.9114 183.476 30.1544 186.504C29.3973 189.533 25.3624 190.29 25.6122 185.997C25.8317 182.234 23.1745 132.501 23.1745 116.844C23.1745 115.33 23.008 112.976 22.5008 111.795C21.7892 110.129 19.5559 109.107 19.5559 109.107L1.89441 93.632C1.89441 93.632 0.887519 0.259642 1.38716 0.759323V0.766878Z" fill="#21E786" stroke="#452650" stroke-width="0.757096" stroke-miterlimit="10"/>
<path d="M1.89436 93.6397C1.89436 93.6397 1.7581 80.9735 1.60669 64.9985L44.5001 99.6889C38.4817 137.248 30.6161 184.65 30.1543 186.512C29.3972 189.54 25.3623 190.298 25.6121 186.005C25.8316 182.242 23.2578 133.856 23.2578 118.2C23.2578 116.686 23.0912 114.331 22.584 113.15C21.8723 111.484 18.8821 108.774 18.8821 108.774L1.89436 93.6321V93.6397Z" fill="#279D63" stroke="#452650" stroke-width="0.757096" stroke-miterlimit="10"/>
</g>
</svg>
