<svg width="710" height="528" viewBox="0 0 710 528" fill="none" xmlns="http://www.w3.org/2000/svg">
<path d="M15 131L17.0789 142.921L29 145L17.0789 147.079L15 159L12.9211 147.079L1 145L12.9211 142.921L15 131Z" fill="#21E786" fill-opacity="0.51"/>
<path d="M272 0L274.079 11.9211L286 14L274.079 16.0789L272 28L269.921 16.0789L258 14L269.921 11.9211L272 0Z" fill="#21E786" fill-opacity="0.26"/>
<path d="M271.5 368L273.653 379.921L286 382L273.653 384.079L271.5 396L269.347 384.079L257 382L269.347 379.921L271.5 368Z" fill="#21E786" fill-opacity="0.51"/>
<path d="M174.5 461L178.831 480.346L199 484.5L178.831 488.654L174.5 508L170.169 488.654L150 484.5L170.169 480.346L174.5 461Z" fill="#21E786" fill-opacity="0.51"/>
<path d="M528.5 132L530.653 143.921L543 146L530.653 148.079L528.5 160L526.347 148.079L514 146L526.347 143.921L528.5 132Z" fill="#21E786" fill-opacity="0.51"/>
<path d="M528 500L530.227 511.921L543 514L530.227 516.079L528 528L525.773 516.079L513 514L525.773 511.921L528 500Z" fill="#21E786" fill-opacity="0.51"/>
<path d="M15 500L17.2274 511.921L30 514L17.2274 516.079L15 528L12.7726 516.079L0 514L12.7726 511.921L15 500Z" fill="#21E786" fill-opacity="0.51"/>
<path d="M431 329L435.391 348.013L454 352.5L435.391 356.987L431 376L426.609 356.987L408 352.5L426.609 348.013L431 329Z" fill="#21E786" fill-opacity="0.51"/>
<path d="M687 461L691.391 480.013L710 484.5L691.391 488.987L687 508L682.609 488.987L664 484.5L682.609 480.013L687 461Z" fill="#21E786" fill-opacity="0.51"/>
<path d="M83.5 240L84.1611 257.983L92 259.5L84.1611 261.017L83.5 279L82.8389 261.017L75 259.5L82.8389 257.983L83.5 240Z" fill="#21E786" fill-opacity="0.51"/>
<path d="M340.5 106L341.522 125.795L349 128.5L341.522 131.205L340.5 151L339.478 131.205L332 128.5L339.478 125.795L340.5 106Z" fill="#21E786" fill-opacity="0.51"/>
<path d="M596.5 237L597.522 256.795L605 259.5L597.522 262.205L596.5 282L595.478 262.205L588 259.5L595.478 256.795L596.5 237Z" fill="#21E786" fill-opacity="0.51"/>
<circle opacity="0.8" cx="50.5" cy="382.5" r="6.5" fill="#21E786"/>
<circle opacity="0.8" cx="307.5" cy="250.5" r="6.5" fill="#21E786"/>
<circle opacity="0.23" cx="563.5" cy="13.5" r="6.5" fill="#21E786"/>
<circle opacity="0.23" cx="50.5" cy="13.5" r="6.5" fill="#21E786"/>
<circle opacity="0.8" cx="563.5" cy="381.5" r="6.5" fill="#21E786"/>
<line opacity="0.7" x1="518" y1="319" x2="518" y2="340" stroke="#21E786" stroke-width="4"/>
<line opacity="0.7" x1="448" y1="107" x2="448" y2="411" stroke="#21E786" stroke-width="4"/>
<line opacity="0.37" x1="677" y1="155" x2="677" y2="413" stroke="#21E786" stroke-width="4"/>
<line opacity="0.7" x1="217" y1="195" x2="217" y2="406" stroke="#21E786" stroke-width="4"/>
<line opacity="0.7" x1="143" y1="120" x2="143" y2="364" stroke="#21E786" stroke-width="4"/>
</svg>
