<svg width="112" height="128" viewBox="0 0 112 128" fill="none" xmlns="http://www.w3.org/2000/svg">
<mask id="mask0_89_936" style="mask-type:luminance" maskUnits="userSpaceOnUse" x="0" y="23" width="40" height="40">
<path d="M13.829 23.9011L39.1299 36.8076L26.2197 62.1157L0.918876 49.2092L13.829 23.9011Z" fill="white"/>
</mask>
<g mask="url(#mask0_89_936)">
<path d="M37.4695 38.7436C37.1515 39.114 10.5692 50.3805 8.66304 51.1421C6.11331 52.1639 4.30762 50.9877 3.23049 49.0331C2.1534 47.0785 3.30391 44.8563 7.11509 44.0243C9.37143 43.5293 37.3764 36.6431 37.3764 36.6431L37.4678 38.7506L37.4695 38.7436Z" fill="#F1B71C"/>
<path d="M37.47 38.7439C37.152 39.1143 10.5697 50.3808 8.66352 51.1423C6.11379 52.1642 4.3081 50.9879 3.23097 49.0333C2.15388 47.0787 3.30439 44.8565 7.11557 44.0246C9.37191 43.5296 37.3769 36.6433 37.3769 36.6433" stroke="#00793E" stroke-width="0.525391" stroke-linecap="round" stroke-linejoin="round"/>
</g>
<path d="M3.08026 43.2865C3.08026 43.2865 3.81897 42.9048 4.445 43.0367C5.07102 43.1686 5.92192 43.8422 5.92192 43.8422C5.92192 43.8422 6.89009 43.49 7.54038 43.9114C8.19066 44.3328 10.9083 49.4561 10.9188 49.8656C10.9294 50.275 10.6603 50.592 10.0386 50.9836C9.41684 51.3751 5.01933 52.2689 5.01933 52.2689L1.57393 47.3429L4.26814 44.6428L3.08987 43.291L3.08026 43.2865Z" fill="#F1B71C" stroke="#00793E" stroke-width="0.4375" stroke-linecap="round" stroke-linejoin="round"/>
<path d="M2.58114 48.8304C2.58114 48.8304 5.17638 47.2325 6.31958 46.3232" stroke="#00793E" stroke-width="0.4375" stroke-linecap="round" stroke-linejoin="round"/>
<path d="M3.91188 50.5032C3.91188 50.5032 5.49665 50.2177 6.3333 49.7763C7.32053 49.2575 7.85968 48.7621 7.85968 48.7621" stroke="#00793E" stroke-width="0.4375" stroke-linecap="round" stroke-linejoin="round"/>
<path d="M44.9681 59.1087C45.3911 59.8116 49.3284 108.169 49.5368 111.613C49.8206 116.22 46.9906 118.479 43.3035 119.166C41.3839 119.523 36.2015 119.873 31.7706 119.207C26.3744 118.396 29.6105 114.704 33.6596 111.046C46.5081 99.4379 41.5678 58.148 41.5678 58.148L44.8323 58.1483L44.9681 59.1087Z" fill="#F1B71C"/>
<path d="M74.874 59.1087C75.297 59.8116 79.2343 108.169 79.4427 111.613C79.7265 116.22 76.8965 118.479 73.2094 119.166C71.2898 119.523 66.1073 119.873 61.6765 119.207C56.2803 118.396 59.5164 114.704 63.5654 111.046C76.414 99.4379 71.4737 58.148 71.4737 58.148L74.7381 58.1483L74.874 59.1087Z" fill="#F1B71C"/>
<path d="M44.7331 59.2392C44.7318 59.2341 44.7308 59.23 44.7299 59.2268L44.7132 59.1992L44.7057 59.1458L44.6021 58.4133L41.8646 58.4131C41.8703 58.4643 41.8766 58.522 41.8836 58.586C41.9167 58.8923 41.9636 59.3427 42.0188 59.9197C42.129 61.0737 42.272 62.7346 42.4034 64.7638C42.6661 68.8217 42.8826 74.3546 42.6967 80.2523C42.511 86.1484 41.9229 92.4182 40.5731 97.9463C39.2252 103.467 37.1085 108.287 33.8372 111.242C32.8274 112.155 31.8736 113.064 31.094 113.928C30.3114 114.795 29.7192 115.599 29.4163 116.299C29.1141 116.998 29.1215 117.536 29.431 117.944C29.758 118.375 30.4778 118.745 31.81 118.945C36.2096 119.607 41.3623 119.257 43.255 118.905C45.0623 118.569 46.6322 117.852 47.7146 116.68C48.7915 115.514 49.4105 113.871 49.2723 111.629L49.2723 111.629C49.1683 109.911 48.1323 96.9647 47.0689 84.3553C46.5373 78.0517 45.999 71.8342 45.5672 67.1491C45.3513 64.8063 45.1621 62.8477 45.0138 61.4533C44.9396 60.7559 44.8758 60.2013 44.8241 59.8111C44.7982 59.6156 44.7757 59.4641 44.7569 59.3576C44.7474 59.3039 44.7394 59.2651 44.7331 59.2392Z" stroke="#00793E" stroke-width="0.53"/>
<path d="M74.6389 59.2392C74.6377 59.2341 74.6366 59.23 74.6358 59.2268L74.6191 59.1992L74.6116 59.1458L74.508 58.4133L71.7705 58.4131C71.7762 58.4643 71.7825 58.522 71.7895 58.586C71.8226 58.8923 71.8695 59.3427 71.9246 59.9197C72.0349 61.0737 72.1779 62.7346 72.3093 64.7638C72.572 68.8217 72.7885 74.3546 72.6026 80.2523C72.4168 86.1484 71.8288 92.4182 70.479 97.9463C69.131 103.467 67.0143 108.287 63.7431 111.242C62.7333 112.155 61.7795 113.064 60.9999 113.928C60.2172 114.795 59.6251 115.599 59.3222 116.299C59.02 116.998 59.0274 117.536 59.3369 117.944C59.6639 118.375 60.3837 118.745 61.7159 118.945C66.1155 119.607 71.2682 119.257 73.1609 118.905C74.9682 118.569 76.5381 117.852 77.6205 116.68C78.6973 115.514 79.3163 113.871 79.1782 111.629L79.1782 111.629C79.0742 109.911 78.0381 96.9647 76.9747 84.3553C76.4431 78.0517 75.9049 71.8342 75.4731 67.1491C75.2572 64.8063 75.068 62.8477 74.9197 61.4533C74.8455 60.7559 74.7817 60.2013 74.73 59.8111C74.7041 59.6156 74.6816 59.4641 74.6628 59.3576C74.6533 59.3039 74.6453 59.2651 74.6389 59.2392Z" stroke="#00793E" stroke-width="0.53"/>
<mask id="mask1_89_936" style="mask-type:luminance" maskUnits="userSpaceOnUse" x="21" y="0" width="91" height="95">
<path d="M111.447 29.1386L54.6541 0.16748L21.3187 65.5155L78.1113 94.4866L111.447 29.1386Z" fill="white"/>
</mask>
<g mask="url(#mask1_89_936)">
<path d="M88.6729 66.9156L27.7605 66.8689C25.3129 66.8691 23.2939 65.0934 24.7101 61.6868C25.7713 59.1361 53.0304 4.72313 53.0304 4.72313C54.5452 1.13117 57.952 1.14119 59.508 4.68615C59.508 4.68615 90.9256 58.5201 92.3813 61.3067C94.0819 64.5685 91.1222 66.9068 88.6746 66.907L88.6729 66.9156Z" fill="#F1B71C" stroke="#00793E" stroke-width="0.584077" stroke-linecap="round" stroke-linejoin="round"/>
<path d="M55.1574 59.0612L54.163 53.6242L59.6666 52.817L59.6725 58.7865L55.1574 59.0612Z" fill="#00793E"/>
<path d="M54.3026 46.7801L58.9853 46.5321L59.1795 22.0992L55.0307 20.3725L50.8018 20.7325L54.3026 46.7801Z" fill="#00793E"/>
<path d="M49.9734 14.2329C52.9971 21.5015 60.2818 22.9311 67.3983 25.2178" stroke="#00793E" stroke-width="0.584077"/>
</g>
<mask id="mask2_89_936" style="mask-type:luminance" maskUnits="userSpaceOnUse" x="43" y="27" width="39" height="39">
<path d="M55.9452 27.0169L81.2461 39.9233L68.3359 65.2314L43.0351 52.3249L55.9452 27.0169Z" fill="white"/>
</mask>
<g mask="url(#mask2_89_936)">
<path d="M79.5858 41.8593C79.2678 42.2297 52.6855 53.4962 50.7794 54.2578C48.2296 55.2796 46.424 54.1034 45.3468 52.1488C44.2697 50.1942 45.4202 47.972 49.2314 47.14C51.4878 46.645 79.4927 39.7588 79.4927 39.7588L79.5841 41.8663L79.5858 41.8593Z" fill="#F1B71C"/>
<path d="M81.9094 40.4727C81.5914 40.8431 52.6855 53.4964 50.7793 54.2579C48.2296 55.2798 46.4239 54.1036 45.3468 52.1489C44.2697 50.1943 45.4202 47.9721 49.2314 47.1402C51.4877 46.6452 79.4927 39.7589 79.4927 39.7589" stroke="#00793E" stroke-width="0.525391" stroke-linecap="round" stroke-linejoin="round"/>
</g>
<path d="M49.5247 57.1122C49.5247 57.1122 50.25 56.8231 50.5139 56.288C50.7779 55.7529 50.756 54.7105 50.756 54.7105C50.756 54.7105 51.5925 54.2373 51.6477 53.5002C51.7029 52.7631 49.3438 47.5396 49.0346 47.271C48.7255 47.0025 48.3243 46.9943 47.6596 47.1928C46.995 47.3912 43.7389 49.9902 43.7389 49.9902L45.521 55.6123L49.1737 55.3918L49.5268 57.1024L49.5247 57.1122Z" fill="#F1B71C" stroke="#00793E" stroke-width="0.4375" stroke-linecap="round" stroke-linejoin="round"/>
<path d="M44.9635 53.9381C44.9635 53.9381 47.7096 53.0865 49.0774 52.8423" stroke="#00793E" stroke-width="0.4375" stroke-linecap="round" stroke-linejoin="round"/>
<path d="M44.4522 51.9132C44.4522 51.9132 45.5975 50.9533 46.4259 50.6318C47.4019 50.2511 48.0983 50.1783 48.0983 50.1783" stroke="#00793E" stroke-width="0.4375" stroke-linecap="round" stroke-linejoin="round"/>
</svg>
