<svg width="113" height="129" viewBox="0 0 113 129" fill="none" xmlns="http://www.w3.org/2000/svg">
<mask id="mask0_89_970" style="mask-type:luminance" maskUnits="userSpaceOnUse" x="73" y="23" width="40" height="40">
<path d="M99.0996 23.7913L73.5659 36.7285L86.5949 62.0968L112.129 49.1596L99.0996 23.7913Z" fill="white"/>
</mask>
<g mask="url(#mask0_89_970)">
<path d="M75.241 38.6694C75.562 39.0407 102.389 50.334 104.313 51.0974C106.886 52.1216 108.708 50.9426 109.795 48.9833C110.882 47.0241 109.721 44.7966 105.875 43.9626C103.598 43.4665 75.335 36.5638 75.335 36.5638L75.2428 38.6764L75.241 38.6694Z" fill="#F1B71C"/>
<path d="M75.2405 38.6696C75.5615 39.0409 102.388 50.3342 104.312 51.0976C106.885 52.1219 108.708 50.9429 109.795 48.9836C110.882 47.0243 109.721 44.7969 105.874 43.9629C103.597 43.4667 75.3345 36.5641 75.3345 36.5641" stroke="#00793E" stroke-width="0.525391" stroke-linecap="round" stroke-linejoin="round"/>
</g>
<path d="M109.947 43.223C109.947 43.223 109.201 42.8404 108.57 42.9726C107.938 43.1047 107.079 43.78 107.079 43.78C107.079 43.78 106.102 43.4269 105.446 43.8493C104.789 44.2717 102.047 49.4073 102.036 49.8177C102.026 50.2281 102.297 50.5458 102.925 50.9384C103.552 51.3309 107.99 52.2268 107.99 52.2268L111.467 47.289L108.748 44.5825L109.937 43.2274L109.947 43.223Z" fill="#F1B71C" stroke="#00793E" stroke-width="0.4375" stroke-linecap="round" stroke-linejoin="round"/>
<path d="M110.451 48.7803C110.451 48.7803 107.831 47.1785 106.678 46.2671" stroke="#00793E" stroke-width="0.4375" stroke-linecap="round" stroke-linejoin="round"/>
<path d="M109.108 50.457C109.108 50.457 107.508 50.1708 106.664 49.7284C105.668 49.2084 105.124 48.7118 105.124 48.7118" stroke="#00793E" stroke-width="0.4375" stroke-linecap="round" stroke-linejoin="round"/>
<path d="M67.6755 59.0817C67.2486 59.7863 63.2751 108.259 63.0647 111.711C62.7783 116.329 65.6343 118.594 69.3554 119.282C71.3008 119.641 76.5673 119.994 81.0514 119.315C86.4638 118.495 83.2104 114.809 79.1319 111.182C66.1101 99.6 71.1071 58.1187 71.1071 58.1187L67.8126 58.119L67.6755 59.0817Z" fill="#F1B71C"/>
<path d="M37.4938 59.0817C37.0669 59.7863 33.0934 108.259 32.8831 111.711C32.5967 116.329 35.4527 118.594 39.1737 119.282C41.1192 119.641 46.3856 119.994 50.8697 119.315C56.2821 118.495 53.0288 114.809 48.9502 111.182C35.9284 99.6 40.9255 58.1187 40.9255 58.1187L37.6309 58.119L37.4938 59.0817Z" fill="#F1B71C"/>
<path d="M67.9112 59.2121C67.9125 59.2069 67.9136 59.2027 67.9145 59.1994L67.9312 59.1718L67.9388 59.1186L68.0435 58.3831L70.8092 58.3828C70.8034 58.4349 70.7969 58.4937 70.7898 58.559C70.7563 58.8667 70.7088 59.319 70.6531 59.8987C70.5417 61.0578 70.3971 62.7262 70.2644 64.7641C69.9991 68.8395 69.781 74.3955 69.9705 80.3155C70.1601 86.2339 70.7573 92.5251 72.1262 98.0675C73.4933 103.603 75.6391 108.43 78.9545 111.378C79.9715 112.283 80.9318 113.186 81.7167 114.045C82.5048 114.907 83.1011 115.708 83.4069 116.406C83.712 117.103 83.7058 117.64 83.396 118.049C83.0687 118.481 82.3473 118.851 81.0113 119.054C76.5589 119.728 71.3226 119.377 69.4041 119.022C67.5799 118.685 65.9952 117.966 64.9026 116.791C63.8155 115.622 63.1907 113.975 63.3301 111.727L63.3301 111.726C63.4351 110.005 64.4807 97.0277 65.5538 84.3882C66.0903 78.0696 66.6336 71.8374 67.0693 67.141C67.2872 64.7927 67.4781 62.8294 67.6278 61.4317C67.7027 60.7326 67.7671 60.1767 67.8193 59.7855C67.8454 59.5896 67.8681 59.4377 67.8871 59.3308C67.8967 59.2771 67.9048 59.2381 67.9112 59.2121Z" stroke="#00793E" stroke-width="0.53"/>
<path d="M37.7295 59.2121C37.7308 59.2069 37.7319 59.2027 37.7328 59.1994L37.7496 59.1718L37.7571 59.1186L37.8619 58.3831L40.6276 58.3828C40.6218 58.4349 40.6153 58.4937 40.6082 58.559C40.5746 58.8667 40.5272 59.319 40.4715 59.8987C40.3601 61.0578 40.2155 62.7262 40.0828 64.7641C39.8174 68.8395 39.5993 74.3955 39.7889 80.3155C39.9784 86.2339 40.5757 92.5251 41.9445 98.0675C43.3116 103.603 45.4575 108.43 48.7728 111.378C49.7899 112.283 50.7501 113.186 51.5351 114.045C52.3231 114.907 52.9195 115.708 53.2252 116.406C53.5303 117.103 53.5242 117.64 53.2143 118.049C52.8871 118.481 52.1657 118.851 50.8296 119.054C46.3773 119.728 41.1409 119.377 39.2224 119.022C37.3983 118.685 35.8136 117.966 34.721 116.791C33.6338 115.622 33.009 113.975 33.1485 111.727L33.1485 111.726C33.2534 110.005 34.299 97.0277 35.3722 84.3882C35.9087 78.0696 36.4519 71.8374 36.8877 67.141C37.1056 64.7927 37.2965 62.8294 37.4462 61.4317C37.5211 60.7326 37.5855 60.1767 37.6376 59.7855C37.6637 59.5896 37.6864 59.4377 37.7055 59.3308C37.7151 59.2771 37.7231 59.2381 37.7295 59.2121Z" stroke="#00793E" stroke-width="0.53"/>
<mask id="mask1_89_970" style="mask-type:luminance" maskUnits="userSpaceOnUse" x="0" y="0" width="92" height="95">
<path d="M0.582969 29.0411L57.8982 0.000976562L91.5403 65.5046L34.2251 94.5447L0.582969 29.0411Z" fill="white"/>
</mask>
<g mask="url(#mask1_89_970)">
<path d="M23.5664 66.908L85.0393 66.8611C87.5094 66.8614 89.547 65.0815 88.1178 61.6667C87.0468 59.1099 59.5369 4.56742 59.5369 4.56742C58.0082 0.966902 54.57 0.976951 52.9997 4.53035C52.9997 4.53035 21.293 58.4925 19.8239 61.2857C18.1077 64.5553 21.0946 66.8991 23.5647 66.8994L23.5664 66.908Z" fill="#F1B71C" stroke="#00793E" stroke-width="0.584077" stroke-linecap="round" stroke-linejoin="round"/>
<path d="M57.3901 59.0351L58.3937 53.5852L52.8394 52.776L52.8335 58.7598L57.3901 59.0351Z" fill="#00793E"/>
<path d="M58.2529 46.7245L53.5271 46.476L53.3311 21.9849L57.5182 20.2541L61.7859 20.615L58.2529 46.7245Z" fill="#00793E"/>
<path d="M62.6221 14.1001C59.5706 21.386 52.2188 22.819 45.0368 25.1112" stroke="#00793E" stroke-width="0.584077"/>
</g>
<path d="M34.2055 39.4099C34.0597 39.9203 39.7388 70.8824 40.188 73.0752C40.7861 76.0101 42.9326 76.9601 45.3493 76.7826C47.7659 76.605 49.0931 74.2347 47.5685 70.2608C46.6681 67.9067 36.166 38.2473 36.166 38.2473L34.2002 39.4156L34.2055 39.4099Z" fill="#F1B71C"/>
<path d="M34.1655 36.833C34.0197 37.3433 39.7391 70.8829 40.1883 73.0756C40.7864 76.0105 42.9329 76.9605 45.3495 76.783C47.7662 76.6054 49.0934 74.2351 47.5688 70.2612C46.6684 67.9071 35.2488 35.2084 35.2488 35.2084" stroke="#00793E" stroke-width="0.525391" stroke-linecap="round" stroke-linejoin="round"/>
<path d="M49.0563 73.0396C49.0563 73.0396 49.0402 72.9474 48.9193 72.253C48.7983 71.5587 48.7324 71.1438 48.7324 71.1438C48.7324 71.1438 48.4393 70.1123 47.6579 69.8619C46.8765 69.6115 40.624 70.8257 40.2536 71.0924C39.8833 71.359 39.7701 71.793 39.8115 72.5666C39.8528 73.3402 41.8114 77.5507 41.8114 77.5507L48.3441 77.0665L49.0563 73.0396Z" fill="#F1B71C" stroke="#00793E" stroke-width="0.4375" stroke-linecap="round" stroke-linejoin="round"/>
<path d="M46.3923 77.2397C46.3923 77.2397 46.1874 74.0351 46.2795 72.4854" stroke="#00793E" stroke-width="0.4375" stroke-linecap="round" stroke-linejoin="round"/>
<path d="M44.0732 77.2723C44.0732 77.2723 43.3349 75.7795 43.2033 74.796C43.0462 73.6369 43.1489 72.8612 43.1489 72.8612" stroke="#00793E" stroke-width="0.4375" stroke-linecap="round" stroke-linejoin="round"/>
</svg>
