<svg width="456" height="112" viewBox="0 0 456 112" fill="none" xmlns="http://www.w3.org/2000/svg">
<mask id="mask0_89_779" style="mask-type:luminance" maskUnits="userSpaceOnUse" x="0" y="0" width="456" height="112">
<path d="M455.559 0.290039H0.0839844V111.109H455.559V0.290039Z" fill="white"/>
</mask>
<g mask="url(#mask0_89_779)">
<path opacity="0.6" d="M24.9775 0.302002C13.9038 0.301963 5.15489 7.66596 18.7934 8.58792C31.4028 9.44031 37.8855 0.302047 24.9775 0.302002Z" fill="#21E786"/>
<path opacity="0.6" d="M48.0283 16.9645C49.1575 14.7128 49.9399 12.7368 54.943 12.7368C61.6878 12.7368 65.3712 15.8646 64.6715 18.7298C64.0321 21.3479 59.5946 23.3398 53.5603 23.3398C44.3404 23.3398 46.6579 19.6965 48.0283 16.9645Z" fill="#21E786"/>
<path opacity="0.6" d="M0.544922 24.7226C0.545166 22.2037 1.45502 21.4956 6.45802 21.4956C13.2029 21.4956 14.8359 23.3396 17.6023 27.4886C19.0974 29.7309 23.6366 33.4816 17.6023 33.4816C8.38244 33.4816 0.544572 28.332 0.544922 24.7226Z" fill="#21E786"/>
<path opacity="0.6" d="M59.5532 60.2189C63.0846 61.7885 73.8443 65.7509 65.0855 65.7509C51.2553 65.7509 28.6666 55.609 37.8866 53.7649C43.4182 52.6585 51.2552 56.5309 59.5532 60.2189Z" fill="#21E786"/>
<path opacity="0.6" d="M160.974 89.2615C166.506 91.1055 183.199 93.5212 176.187 96.6375C167.889 100.326 123.633 88.8005 136.846 85.3047C142.3 83.8618 152.36 86.39 160.974 89.2615Z" fill="#21E786"/>
<path opacity="0.6" d="M280.346 95.4939C286.177 95.587 301.374 91.5942 297.074 97.9483C293.282 103.552 247.182 104.474 255.479 97.9483C259.914 94.4613 271.268 95.3491 280.346 95.4939Z" fill="#21E786"/>
<path opacity="0.6" d="M377.864 85.0882C383.668 85.6572 399.141 82.9182 394.335 88.9C390.099 94.1757 344.077 91.3301 352.879 85.5037C357.584 82.3901 368.827 84.2022 377.864 85.0882Z" fill="#21E786"/>
<path opacity="0.6" d="M55.8654 41.7794C59.0807 43.9229 65.5463 47.7724 68.7733 47.7724C77.5323 47.7722 65.0854 33.0204 54.9433 33.9424C49.3252 34.4531 50.3334 38.0914 55.8654 41.7794Z" fill="#21E786"/>
<path opacity="0.6" d="M109.342 67.595C115.915 68.955 125.938 73.5197 130.548 72.666C142.995 70.361 104.271 56.531 95.0508 60.219C89.813 62.3141 95.9728 64.829 109.342 67.595Z" fill="#21E786"/>
<path opacity="0.6" d="M203.667 87.1424C210.377 87.2822 221.064 89.9445 225.442 88.2654C237.26 83.7314 191.497 76.1187 183.103 81.4246C178.334 84.4388 190.018 86.8581 203.667 87.1424Z" fill="#21E786"/>
<path opacity="0.6" d="M312.357 81.4111C318.928 80.0423 329.939 80.2404 333.828 77.6223C344.33 70.5533 298.024 73.3974 291.034 80.4506C287.064 84.4574 298.991 84.1951 312.357 81.4111Z" fill="#21E786"/>
<path opacity="0.6" d="M431.886 76.1249C438.581 75.6504 449.467 77.3244 453.672 75.2519C465.026 69.6561 410.33 66.1047 408.073 72.2047C406.114 77.495 418.268 77.0901 431.886 76.1249Z" fill="#21E786"/>
</g>
</svg>
