 <svg viewBox="0 0 93 107" fill="none" xmlns="http://www.w3.org/2000/svg" aria-hidden="true" id="SVG 6" xmlns:xlink="http://www.w3.org/1999/xlink"><g clipPath="url(#clip0_817_11851)"><path d="M35.6236 74.9457C35.4636 75.5957 33.9937 103.736 33.9937 103.736L44.2437 104.066L41.3136 73.8057L35.6236 74.9457Z" fill="#F1B71C" stroke="#452650" stroke-linecap="round" stroke-linejoin="round"></path><path d="M59.8536 66.9756C59.6936 67.8556 58.2236 105.906 58.2236 105.906L68.4736 106.346L65.5436 65.5156L59.8536 66.9756Z" fill="#F1B71C" stroke="#452650" stroke-linecap="round" stroke-linejoin="round"></path><path d="M31.3738 36.3359C30.5938 36.8959 4.16381 85.4359 2.35381 88.9259C-0.0661933 93.5859 1.90381 97.0059 5.51381 99.1159C9.12381 101.226 13.6338 99.2459 15.9138 92.2359C17.2638 88.0859 35.4438 36.6359 35.4438 36.6359L31.3738 36.3359Z" fill="#F1B71C"></path><path d="M31.3738 36.3359C30.5938 36.8959 4.16381 85.4359 2.35381 88.9259C-0.0661933 93.5859 1.90381 97.0059 5.51381 99.1159C9.12381 101.226 13.6338 99.2459 15.9138 92.2359C17.2638 88.0859 35.4438 36.6359 35.4438 36.6359" stroke="#452650" stroke-linecap="round" stroke-linejoin="round"></path><path d="M88.4135 66.8157L19.9635 80.1957C17.2135 80.7357 14.5535 79.1857 15.3935 75.0457C16.0235 71.9457 34.6535 4.79567 34.6535 4.79567C35.5635 0.42567 39.3935 -0.31433 41.9235 3.32567C41.9235 3.32567 89.0935 56.8857 91.3435 59.6957C93.9735 62.9857 91.1635 66.2657 88.4135 66.8057V66.8157Z" fill="#F1B71C" stroke="#452650" stroke-linecap="round" stroke-linejoin="round"></path><path d="M48.3936 61.8155L46.7535 56.7155L52.1335 55.4355L52.8535 61.1355L48.3936 61.8155Z" fill="#452650"></path><path d="M46.0736 50.1655L50.7036 49.4955L47.8036 24.1455L39.4736 25.6155L46.0736 50.1655Z" fill="#452650"></path><path d="M65.6838 38.2856C65.3538 39.1856 70.2838 94.2356 70.7138 98.1356C71.2838 103.356 74.8238 105.106 79.0038 104.866C83.1838 104.626 85.8338 100.466 83.8338 93.3756C82.6538 89.1756 69.2338 36.2856 69.2338 36.2856L65.6738 38.2956L65.6838 38.2856Z" fill="#F1B71C"></path><path d="M65.6838 38.2856C65.3538 39.1856 70.2838 94.2356 70.7138 98.1356C71.2838 103.356 74.8238 105.106 79.0038 104.866C83.1838 104.626 85.8338 100.466 83.8338 93.3756C82.6538 89.1756 69.2338 36.2856 69.2338 36.2856" stroke="#452650" stroke-linecap="round" stroke-linejoin="round"></path></g><defs><clipPath id="clip0_817_11851"><rect width="93" height="107" fill="white"></rect></clipPath></defs></svg> 