  <svg viewBox="0 0 119 17" fill="none" xmlns="http://www.w3.org/2000/svg" aria-hidden="true" id="SVG 5" xmlns:xlink="http://www.w3.org/1999/xlink"><g id="right"><path d="M97.77 6.31001C97.77 6.31001 100.88 2.45002 103.52 2.13002C107.27 1.67002 115.03 1.43 116.42 2.83C117.47 3.88 118.86 8.76002 117.99 10.85C117.12 12.94 114.5 15.38 114.5 15.38L103.63 15.67C103.63 15.67 104.16 13.15 104.26 11.05C104.36 8.95 103.34 6.67003 103.34 6.67003L97.76 6.32002L97.77 6.31001Z" fill="#F1B71C" stroke="#452650" stroke-linecap="round" stroke-linejoin="round"></path><path d="M112.02 15.26C112.02 15.26 113.78 12.4 114.11 10.75C114.44 9.1 113.56 5.79999 113.56 5.79999" stroke="#452650" stroke-linecap="round" stroke-linejoin="round"></path><path d="M107.4 15.26C107.4 15.26 109.05 12.18 109.27 10.75C109.49 9.32 108.83 6.23999 108.83 6.23999" stroke="#452650" stroke-linecap="round" stroke-linejoin="round"></path></g><g id="left"><path d="M22.67 7.78998C22.67 7.78998 22.33 6.06997 21.29 5.20997C20.25 4.34997 18.02 3.82996 18.02 3.82996C18.02 3.82996 17.3301 1.76997 15.7801 1.24997C14.2301 0.729975 2.20004 2.96996 1.51004 3.48996C0.820037 4.00996 0.650034 4.86998 0.820034 6.40998C0.990034 7.94998 5.29001 16.38 5.29001 16.38L17.95 15.6L18.87 7.60996L22.6501 7.77997L22.67 7.78998Z" fill="#F1B71C" stroke="#452650" stroke-linecap="round" stroke-linejoin="round"></path><path d="M14.18 15.89C14.18 15.89 13.41 9.50996 13.41 6.42996" stroke="#452650" stroke-linecap="round" stroke-linejoin="round"></path><path d="M9.66999 15.89C9.66999 15.89 8.06001 12.9 7.69001 10.94C7.25001 8.62997 7.36 7.08997 7.36 7.08997" stroke="#452650" stroke-linecap="round" stroke-linejoin="round"></path></g></svg>