<svg width="112" height="67" viewBox="0 0 112 67" fill="none" xmlns="http://www.w3.org/2000/svg">
<path d="M11.499 2.92554C11.3317 2.91149 11.1659 2.88898 10.9916 2.87493C18.4565 4.59815 25.7697 5.91798 33.0238 8.52811L33.4581 8.15424C26.7761 4.75981 18.427 3.27832 10.9832 2.30426C11.194 2.37032 11.3964 2.42939 11.5918 2.50248C11.6373 2.52389 11.6743 2.56013 11.6965 2.60529C11.7188 2.65046 11.725 2.70187 11.7142 2.75105C11.7035 2.80023 11.6763 2.84429 11.6372 2.876C11.5981 2.90771 11.5494 2.92517 11.499 2.92554Z" fill="#E1E5E9"/>
<path d="M22.8206 31.3798C22.8735 31.4848 22.9204 31.5927 22.9612 31.703C27.3971 34.8403 31.999 37.7582 36.6809 40.523C42.3776 43.8809 48.1897 47.0335 54.0171 50.1427C59.6633 53.1562 65.613 54.9525 71.5557 57.2253C71.7947 57.3138 71.9184 56.961 71.6963 56.8514C65.6299 53.9629 59.2514 52.213 53.2834 49.014C47.8256 46.096 42.3833 43.1345 37.0491 39.9889C26.7116 33.9846 17.0169 26.9363 8.11702 18.9546C8.09738 18.9863 8.07165 19.0138 8.04129 19.0354C8.01093 19.0571 7.97656 19.0724 7.94019 19.0807C7.90383 19.0889 7.86618 19.0899 7.82946 19.0834C7.79273 19.077 7.75766 19.0633 7.72628 19.0431C7.4803 18.9026 7.2259 18.7353 6.9729 18.5596C11.7825 23.1906 16.9386 27.4478 22.3962 31.294C22.4291 31.2701 22.4666 31.2532 22.5064 31.2445C22.5462 31.2358 22.5873 31.2355 22.6273 31.2435C22.6672 31.2516 22.705 31.2679 22.7383 31.2913C22.7716 31.3148 22.7996 31.3449 22.8206 31.3798Z" fill="#E1E5E9"/>
<path d="M75.6768 58.8136C84.5403 62.2516 114.959 70.8663 111.437 58.323C111.429 58.2847 111.413 58.2487 111.389 58.2177C111.365 58.1866 111.335 58.1614 111.3 58.1438C111.265 58.1262 111.227 58.1168 111.188 58.1162C111.149 58.1156 111.11 58.1238 111.074 58.1403C111.205 58.7124 111.32 59.2915 111.408 59.8635C111.409 59.9153 111.391 59.9657 111.358 60.0056C111.325 60.0455 111.279 60.0723 111.228 60.0811C111.177 60.09 111.125 60.0803 111.08 60.0538C111.036 60.0273 111.002 59.9857 110.986 59.9366C110.956 59.8411 110.935 59.7455 110.913 59.6555C109.753 70.5936 79.8204 59.9704 74.0014 57.5472C73.6893 57.415 73.5445 57.8845 73.8271 58.0307C74.073 58.1558 74.4146 58.3118 74.8278 58.4847C74.8644 58.4481 74.915 58.4186 74.9515 58.3821C75.2987 58.0293 75.7414 58.4313 75.6768 58.8136Z" fill="#E1E5E9"/>
<path d="M109.552 54.3706C104.007 47.1937 96.1518 42.2222 89.332 36.4159C89.1296 36.2402 88.9103 36.5846 89.093 36.7532C96.0365 42.9855 103.552 48.0947 109.626 55.3066C109.655 55.3444 109.696 55.3724 109.742 55.3868C109.648 55.145 109.547 54.9033 109.437 54.6615C109.423 54.6352 109.415 54.6062 109.413 54.5765C109.412 54.5468 109.416 54.517 109.427 54.4893C109.438 54.4616 109.455 54.4367 109.477 54.4162C109.498 54.3956 109.524 54.3801 109.552 54.3706Z" fill="#E1E5E9"/>
<path d="M81.6421 51.9446C76.3291 51.0127 71.3505 48.8874 66.1106 47.5451C65.8857 47.4861 65.755 47.8164 65.9799 47.8895C70.8642 49.6391 75.8374 51.1296 80.8789 52.355C83.6324 52.927 87.1406 53.4991 89.8871 52.6263C96.2431 50.6107 90.4156 44.3925 87.6691 41.9735C87.4948 41.8203 87.2348 42.1056 87.4007 42.2743C89.3431 44.3053 94.6703 48.3182 91.1184 51.4104C89.3867 52.913 86.2621 52.466 84.2311 52.2833C83.4201 52.2102 82.6147 52.1006 81.8248 51.9684C81.7629 51.9784 81.6994 51.9701 81.6421 51.9446Z" fill="#E1E5E9"/>
<path d="M57.3989 43.9244C57.8154 44.2016 58.2802 44.3981 58.7693 44.5035C58.9872 44.5766 59.1024 44.2392 58.893 44.1732C58.4331 44.0736 57.9956 43.8897 57.6027 43.6307C57.427 43.4845 57.2316 43.7768 57.3989 43.9244Z" fill="#E1E5E9"/>
<path d="M24.1179 24.2493C25.2635 25.1798 26.4512 26.0681 27.6318 26.9396C33.1574 31.0469 38.901 34.8527 44.8373 38.3401C45.0763 38.4806 45.3223 38.1419 45.0833 37.9803C38.2199 33.3756 30.8267 29.2658 24.5438 23.8234C24.5143 23.919 24.4862 24.0061 24.4567 24.1045C24.4459 24.1377 24.4281 24.1682 24.4046 24.194C24.381 24.2197 24.3523 24.2402 24.3202 24.2539C24.2881 24.2676 24.2534 24.2743 24.2186 24.2735C24.1837 24.2727 24.1494 24.2645 24.1179 24.2493Z" fill="#E1E5E9"/>
<path d="M24.0239 23.3877C23.9157 23.2922 23.792 23.1966 23.6837 23.0939C21.4222 21.0629 15.0156 15.0513 19.4952 12.243C22.0687 10.6294 26.2868 12.1025 29.3341 12.1699C29.4929 11.9872 29.6461 11.8031 29.812 11.6274C26.4274 11.5543 21.5192 9.7355 18.5562 12.0238C16.3073 13.761 17.4613 16.5988 18.7446 18.5638C20.1933 20.6847 21.9608 22.5693 23.9845 24.151C23.9508 24.1042 23.9352 24.0467 23.9409 23.9893C23.9662 23.7841 23.9944 23.5859 24.0239 23.3877Z" fill="#E1E5E9"/>
<path d="M56.5077 43.5983C53.4562 41.9342 50.1377 40.4682 46.9499 39.0753C46.7109 38.9727 46.5001 39.3564 46.732 39.4969C49.7434 41.351 52.9484 42.8706 56.2899 44.0284C56.5288 44.0861 56.7607 43.7389 56.5077 43.5983Z" fill="#E1E5E9"/>
<path d="M60.0906 45.895C60.6275 46.1002 61.1489 46.3349 61.6845 46.5472C62.156 46.7822 62.6617 46.9416 63.1828 47.0194C63.2342 47.0218 63.2849 47.0077 63.3278 46.9793C63.3706 46.9508 63.4032 46.9095 63.4209 46.8612C63.4386 46.8129 63.4405 46.7603 63.4262 46.7109C63.412 46.6615 63.3824 46.6179 63.3416 46.5865C62.8812 46.3285 62.3926 46.1243 61.8855 45.9779C61.3485 45.7727 60.806 45.597 60.248 45.4424C60.188 45.4215 60.1221 45.4253 60.0649 45.453C60.0077 45.4807 59.9639 45.53 59.943 45.59C59.9221 45.65 59.9259 45.7158 59.9536 45.773C59.9813 45.8302 60.0305 45.8741 60.0906 45.895Z" fill="#E1E5E9"/>
<path d="M29.8148 11.6288C29.656 11.8115 29.4957 11.9886 29.3369 12.1713C26.518 15.3146 24.6723 19.2086 24.0239 23.3807C23.9944 23.5788 23.9663 23.7841 23.9438 23.9823C23.9381 24.0397 23.9536 24.0971 23.9873 24.1439C24.0206 24.1895 24.0659 24.225 24.1181 24.2465C24.1493 24.262 24.1835 24.2706 24.2183 24.2718C24.2531 24.273 24.2878 24.2667 24.32 24.2534C24.3522 24.2401 24.3812 24.22 24.4051 24.1946C24.4289 24.1692 24.447 24.139 24.4582 24.106C24.4877 24.0104 24.5158 23.9232 24.5454 23.8248C26.1443 17.9996 29.488 12.8033 34.1271 8.9343C39.0269 4.89471 44.6365 2.69498 50.6158 0.8551C50.5216 0.8551 50.4274 0.848072 50.3262 0.8551C50.277 0.860934 50.2271 0.852212 50.1828 0.829964C50.1386 0.807716 50.1018 0.772944 50.0771 0.729977C50.0524 0.68701 50.0409 0.637721 50.0439 0.588254C50.047 0.538787 50.0645 0.491318 50.0943 0.451721C43.982 1.55525 38.2551 4.20822 33.4609 8.15701L33.0265 8.53088C31.8842 9.48643 30.8109 10.5217 29.8148 11.6288Z" fill="#E1E5E9"/>
<path d="M50.3246 0.859387C50.4258 0.85236 50.513 0.859387 50.6142 0.859387C51.6506 0.884311 52.6839 0.982455 53.7064 1.15313C54.5005 1.33557 55.3341 1.21795 56.0467 0.822841C55.7572 0.815814 55.4746 0.800365 55.1837 0.800365C54.8927 0.800365 54.9026 0.367416 55.1612 0.316816C55.2308 0.302888 55.3012 0.293038 55.372 0.287305C54.4965 0.32963 53.6191 0.302874 52.7478 0.207221C51.8945 -0.0138469 50.9928 0.0452783 50.1757 0.375882C50.1421 0.394777 50.1144 0.422493 50.0955 0.456008C50.066 0.495417 50.0486 0.542564 50.0454 0.591726C50.0423 0.640889 50.0536 0.689928 50.0779 0.732763C50.1023 0.775599 50.1386 0.810382 50.1824 0.832879C50.2262 0.855375 50.2756 0.864588 50.3246 0.859387Z" fill="#E1E5E9"/>
<path d="M55.1739 0.798905C55.4634 0.798905 55.753 0.812949 56.0369 0.821382C60.312 0.815837 64.5356 1.75462 68.4059 3.57066C71.7709 5.39569 74.9487 7.54668 77.8934 9.99268C77.9117 9.93458 77.9472 9.88336 77.9951 9.84576C78.0431 9.80817 78.1012 9.78597 78.162 9.78202C78.2228 9.77807 78.2834 9.79255 78.3358 9.82363C78.3882 9.8547 78.4299 9.90089 78.4556 9.95613C78.5158 10.1001 78.5834 10.2408 78.6581 10.3778C78.7058 10.3596 78.7486 10.3305 78.783 10.2927C78.8175 10.2549 78.8425 10.2096 78.8562 10.1604C78.8699 10.1111 78.8718 10.0593 78.8618 10.0092C78.8518 9.95907 78.8302 9.91201 78.7986 9.8718C73.9424 3.75057 63.1435 -1.2434 55.3594 0.274607C55.2948 0.288663 55.2189 0.288657 55.1486 0.304118C54.8984 0.365963 54.8914 0.798905 55.1739 0.798905Z" fill="#E1E5E9"/>
<path d="M77.8948 9.99272C77.8767 10.0372 77.8719 10.086 77.8808 10.1332C78.2375 11.3802 79.0077 12.4687 80.065 13.2199C80.7379 13.78 81.3789 14.3774 81.985 15.0092C82.4653 15.609 82.8968 16.2464 83.2753 16.9151C83.3169 16.8933 83.3648 16.8865 83.4108 16.8957C83.4568 16.9049 83.4983 16.9296 83.5283 16.9657C83.6295 17.0908 83.7237 17.2299 83.8179 17.3621C83.8693 17.35 83.9152 17.321 83.9481 17.2797C83.981 17.2384 83.999 17.1872 83.9992 17.1344C83.9121 14.0984 79.999 12.8305 78.6581 10.3876C78.5834 10.2506 78.5159 10.1099 78.4557 9.96599C78.4288 9.91312 78.3872 9.86913 78.3359 9.83932C78.2846 9.80952 78.2259 9.7952 78.1666 9.79802C78.1074 9.80084 78.0502 9.8207 78.002 9.85524C77.9538 9.88978 77.9166 9.93753 77.8948 9.99272Z" fill="#E1E5E9"/>
<path d="M83.2727 16.9137C83.2159 16.9368 83.1705 16.9813 83.1461 17.0375C83.1217 17.0937 83.1202 17.1572 83.142 17.2145C85.4246 22.9408 87.5119 28.0654 87.3966 34.3989C87.2677 40.535 85.1915 46.4712 81.4679 51.35C81.427 51.4131 81.4043 51.4863 81.4022 51.5616C81.4002 51.6368 81.419 51.7111 81.4565 51.7763C81.494 51.8416 81.5487 51.8952 81.6147 51.9314C81.6807 51.9675 81.7554 51.9847 81.8305 51.9811C81.9102 51.9762 81.9852 51.9422 82.0414 51.8855C86.4548 47.4285 88.1879 40.6312 88.2259 34.4875C88.2695 28.9369 87.242 21.9653 83.8124 17.3677C83.7112 17.2356 83.6241 17.0964 83.5229 16.9713C83.4952 16.9331 83.4545 16.9063 83.4085 16.8957C83.3626 16.8851 83.3143 16.8915 83.2727 16.9137Z" fill="#E1E5E9"/>
<path d="M29.5083 52.7584C27.0811 49.3022 25.294 45.4384 24.2319 41.3508C23.3984 38.2586 24.2684 34.6126 22.9781 31.703C22.9275 31.5934 22.8839 31.4838 22.8376 31.3797C22.8174 31.3442 22.7898 31.3134 22.7566 31.2896C22.7234 31.2658 22.6854 31.2495 22.6453 31.2419C22.6051 31.2343 22.5638 31.2355 22.5242 31.2454C22.4846 31.2554 22.4476 31.2739 22.4159 31.2996C22.3804 31.3277 22.3539 31.3656 22.3397 31.4085C22.3254 31.4515 22.3241 31.4976 22.3358 31.5414C23.2859 35.5008 22.6914 39.3788 23.9226 43.3748C24.9951 46.8353 26.35 50.6627 29.1331 53.1041C29.1258 53.0544 29.1309 53.0037 29.1477 52.9563C29.1645 52.9089 29.1926 52.8664 29.2295 52.8323C29.2665 52.7982 29.3112 52.7737 29.3598 52.7608C29.4084 52.748 29.4594 52.7471 29.5083 52.7584Z" fill="#E1E5E9"/>
<path d="M34.1411 57.3771C34.2648 57.4726 34.3941 57.5598 34.5178 57.6582C34.1355 56.4998 33.4804 55.4503 32.6076 54.598C31.7348 53.7458 30.67 53.1158 29.5028 52.7612C29.4526 52.7475 29.3997 52.7463 29.3489 52.7578C29.2981 52.7693 29.2509 52.7931 29.2115 52.8271C29.1721 52.8611 29.1416 52.9043 29.1228 52.9528C29.104 53.0014 29.0974 53.0538 29.1036 53.1056C29.1101 53.1573 29.1304 53.2063 29.1623 53.2476C29.1942 53.2889 29.2365 53.3209 29.2849 53.3403C30.4152 53.8479 31.4305 54.58 32.2689 55.4922C32.7942 56.1381 33.2782 56.8164 33.7181 57.5232C33.7316 57.4821 33.7544 57.4446 33.7849 57.4137C33.8153 57.3828 33.8524 57.3594 33.8934 57.3452C33.9343 57.3311 33.978 57.3266 34.021 57.3321C34.064 57.3376 34.1051 57.353 34.1411 57.3771Z" fill="#E1E5E9"/>
<path d="M45.3744 63.5573C45.5922 63.733 45.8087 63.8946 46.0265 64.0563C46.0496 64.0043 46.0527 63.9456 46.0354 63.8914C46.018 63.8373 45.9814 63.7914 45.9324 63.7625C44.0911 62.7786 42.0699 62.1644 40.1991 61.2184C38.2031 60.2033 36.3038 59.0083 34.5248 57.6483C34.4011 57.5527 34.2718 57.4656 34.1481 57.3672C34.1139 57.3426 34.0743 57.3265 34.0326 57.3204C33.9909 57.3143 33.9484 57.3183 33.9086 57.3321C33.8687 57.3459 33.8328 57.369 33.8038 57.3996C33.7748 57.4302 33.7536 57.4673 33.7419 57.5078C33.7244 57.5516 33.7192 57.5994 33.7268 57.646C33.7345 57.6926 33.7548 57.7361 33.7855 57.772C35.3439 59.3857 37.1773 60.7088 39.1997 61.6795C41.034 62.7995 43.0285 63.6327 45.1143 64.1504C45.0691 64.0997 45.0278 64.0457 44.9906 63.9888C44.8093 63.733 45.0989 63.338 45.3744 63.5573Z" fill="#E1E5E9"/>
<path d="M51.9777 65.3691C51.1159 65.4596 50.249 65.4915 49.383 65.4647C48.149 65.3431 46.9801 64.8534 46.0279 64.0591C45.81 63.8975 45.6062 63.7358 45.3757 63.5601C45.0946 63.3408 44.8135 63.7358 44.985 63.993C45.0215 64.0521 45.0651 64.0956 45.1087 64.1547C46.9359 66.6327 50.5904 66.8604 53.2919 65.8849C53.3227 65.8727 53.3505 65.8537 53.3731 65.8294C53.3957 65.8051 53.4126 65.776 53.4226 65.7444C52.9798 65.795 52.5385 65.854 52.0887 65.9355C51.7176 65.9988 51.6516 65.4858 51.9777 65.3691Z" fill="#E1E5E9"/>
<path d="M75.677 58.815C75.7416 58.4341 75.2933 58.0307 74.9377 58.361C74.9012 58.3975 74.8505 58.427 74.814 58.4636C71.6443 61.1185 67.8998 62.9987 63.8773 63.9551C59.9558 65.0402 55.8473 64.1603 51.9834 65.3607C51.6433 65.4774 51.715 65.9918 52.0846 65.9328C52.5344 65.8597 52.9757 65.7922 53.4185 65.7416C57.5129 65.2651 61.464 65.7275 65.5148 64.4147C69.2084 63.3942 72.6309 61.5704 75.5378 59.0736C75.5771 59.042 75.6097 59.0028 75.6336 58.9584C75.6575 58.9139 75.6722 58.8652 75.677 58.815Z" fill="#E1E5E9"/>
<path d="M8.1227 18.9602C8.15555 18.9108 8.17189 18.8521 8.16937 18.7928C8.16684 18.7334 8.14559 18.6764 8.10865 18.6299C5.75292 15.3606 2.2601 13.0653 1.1722 8.9006C-0.487774 2.52918 6.70168 2.47858 10.9858 2.86652C11.1601 2.88057 11.333 2.89605 11.4933 2.91713C11.544 2.91785 11.5933 2.90107 11.6331 2.86965C11.6729 2.83822 11.7007 2.79406 11.7117 2.74457C11.7228 2.69508 11.7165 2.64328 11.6938 2.59791C11.6712 2.55254 11.6336 2.51636 11.5874 2.49544C11.3916 2.42235 11.1887 2.3563 10.9788 2.29727C7.13037 1.13908 0.896706 1.5495 0.0786679 6.37339C-0.624114 10.5226 3.52088 16.1393 6.96592 18.5582C7.21892 18.7339 7.47332 18.9026 7.7193 19.0417C7.75068 19.0642 7.78638 19.08 7.82413 19.0881C7.86189 19.0962 7.9009 19.0964 7.93875 19.0888C7.97659 19.0811 8.01247 19.0658 8.04412 19.0437C8.07576 19.0215 8.10251 18.9932 8.1227 18.9602Z" fill="#E1E5E9"/>
<path d="M97.2902 60.9557C97.2279 60.9326 97.159 60.9351 97.0987 60.9628C97.0383 60.9905 96.9914 61.041 96.9683 61.1032C96.9452 61.1655 96.9478 61.2344 96.9754 61.2948C97.0031 61.3551 97.0536 61.402 97.1159 61.4251C99.9931 62.7295 112.654 62.2249 108.886 56.5127C108.755 56.3145 108.379 56.4832 108.452 56.7179C110.14 62.1026 100.515 61.9621 97.2902 60.9557Z" fill="#E1E5E9"/>
<path d="M4.46964 5.69732C4.52976 5.66509 4.57526 5.61108 4.59683 5.54637C4.61839 5.48166 4.6144 5.41116 4.58563 5.34931C4.55686 5.28747 4.50551 5.23897 4.44213 5.21377C4.37874 5.18857 4.30812 5.1886 4.24475 5.21381C-2.39373 8.12473 15.7971 23.9387 18.819 25.7575C18.8608 25.7864 18.9123 25.7975 18.9623 25.7884C19.0122 25.7793 19.0565 25.7508 19.0854 25.709C19.1143 25.6673 19.1254 25.6157 19.1163 25.5658C19.1072 25.5158 19.0787 25.4716 19.0369 25.4427C16.6896 23.3161 -0.922099 8.63073 4.46964 5.69732Z" fill="#E1E5E9"/>
<path d="M22.5958 6.62772C17.4276 5.09566 11.2389 2.91846 5.82466 4.09773C5.79698 4.10252 5.77049 4.11272 5.74675 4.12775C5.723 4.14278 5.70247 4.16234 5.68629 4.18532C5.6701 4.20829 5.65858 4.23421 5.65242 4.26163C5.64626 4.28904 5.64556 4.31741 5.65036 4.3451C5.65516 4.37278 5.66536 4.39925 5.68039 4.42299C5.69542 4.44674 5.71498 4.46729 5.73795 4.48348C5.76092 4.49966 5.78687 4.51116 5.81428 4.51732C5.8417 4.52348 5.87005 4.52418 5.89773 4.51938C11.6887 4.27762 16.9075 5.81674 22.5171 7.01991C22.7266 7.04521 22.8053 6.68676 22.5958 6.62772Z" fill="#E1E5E9"/>
<path d="M26.4078 8.39875C26.7634 8.57444 26.9798 7.98833 26.6256 7.81264C25.9369 7.4753 25.2201 7.24058 24.5089 6.94681C24.2699 6.85124 24.0661 7.22792 24.298 7.35723C24.9797 7.75078 25.698 8.0586 26.4078 8.39875Z" fill="#E1E5E9"/>
<path d="M19.4289 10.2724C19.6468 10.1993 19.5231 9.86203 19.3123 9.89857C17.4499 10.2064 15.0436 11.0568 14.7386 13.2424C14.449 15.317 15.9558 17.7289 17.1814 19.254C17.2171 19.2936 17.2658 19.3192 17.3187 19.3261C17.3716 19.333 17.4252 19.3207 17.4699 19.2915C17.5145 19.2623 17.5472 19.2181 17.5621 19.1669C17.577 19.1157 17.5731 19.0608 17.5511 19.0122C16.7682 17.4366 15.5285 15.92 15.3261 14.1068C15.0436 11.6288 17.5595 10.8853 19.4289 10.2724Z" fill="#E1E5E9"/>
<path d="M25.4801 26.5263C23.4025 24.9773 21.4425 23.2766 19.616 21.4382C19.5788 21.3959 19.5262 21.3701 19.4699 21.3666C19.4136 21.363 19.3583 21.3819 19.316 21.4192C19.2736 21.4565 19.2479 21.5091 19.2443 21.5653C19.2408 21.6216 19.2597 21.677 19.297 21.7193C21.08 23.6551 23.0818 25.3772 25.2622 26.851C25.459 26.9888 25.6614 26.681 25.4801 26.5263Z" fill="#E1E5E9"/>
<path d="M43.2069 41.6586C43.4529 41.7753 43.6708 41.3649 43.4318 41.237C35.6337 36.9121 28.523 31.4781 20.7685 27.1307C20.5366 26.9986 20.2976 27.3219 20.5225 27.4821C27.719 32.5604 35.2711 37.8467 43.2069 41.6586Z" fill="#E1E5E9"/>
<path d="M45.7229 42.7367C45.505 42.554 45.1944 42.8983 45.3897 43.1036C45.6551 43.3753 45.9638 43.601 46.3033 43.7712C46.604 43.9866 46.9625 44.1065 47.3322 44.1156C47.3743 44.1081 47.4137 44.0897 47.4463 44.062C47.4789 44.0344 47.5036 43.9986 47.5179 43.9583C47.5322 43.918 47.5356 43.8747 47.5276 43.8327C47.5197 43.7907 47.5008 43.7515 47.4728 43.7192C47.2143 43.5278 46.9254 43.3814 46.6182 43.2863C46.2969 43.1431 45.9959 42.9584 45.7229 42.7367Z" fill="#E1E5E9"/>
<path d="M53.4563 44.8184C45.7956 40.8078 38.4222 36.271 31.389 31.2406C31.1711 31.086 30.9462 31.4163 31.15 31.5779C37.9863 36.925 45.4096 41.4756 53.2764 45.1416C53.4788 45.2288 53.6446 44.9139 53.4563 44.8184Z" fill="#E1E5E9"/>
<path d="M91.0201 42.8154C94.0139 45.8065 102.363 50.5798 100.666 55.6974C100.643 55.7687 100.648 55.8462 100.68 55.9139C100.713 55.9816 100.77 56.0342 100.84 56.0607C100.91 56.0872 100.988 56.0855 101.057 56.056C101.126 56.0266 101.181 55.9716 101.21 55.9026C103.472 50.6234 94.34 45.375 91.3026 42.5737C91.1367 42.4064 90.8458 42.6341 91.0201 42.8154Z" fill="#E1E5E9"/>
<path d="M95.2816 43.4845C95.1143 43.3299 94.8388 43.5575 95.0005 43.7192C97.2901 45.9681 109.264 54.2609 103.856 57.415C103.791 57.4503 103.742 57.5089 103.72 57.5788C103.697 57.6487 103.702 57.7246 103.733 57.791C103.765 57.8575 103.82 57.9094 103.889 57.9362C103.957 57.963 104.033 57.9626 104.102 57.9351C111.176 55.1633 97.3323 45.3749 95.2816 43.4845Z" fill="#E1E5E9"/>
<path d="M81.0981 56.9667C72.7403 54.3365 64.527 51.2676 56.4923 47.7728C56.2112 47.6562 56.0495 48.0961 56.325 48.2198C64.0608 51.872 72.0058 55.0635 80.1184 57.7777C80.1593 57.5484 80.2802 57.3411 80.4596 57.1926C80.6389 57.0441 80.8652 56.964 81.0981 56.9667Z" fill="#E1E5E9"/>
<path d="M81.8741 58.2935C85.4555 59.3309 89.1191 60.0593 92.8249 60.4707C93.0779 60.5002 93.106 60.1264 92.8615 60.0744C88.9905 59.231 85.2292 58.219 81.5186 57.0974C81.707 57.2249 81.8454 57.4138 81.9102 57.6319C81.9751 57.8499 81.9623 58.0838 81.8741 58.2935Z" fill="#E1E5E9"/>
<path d="M10.4629 7.5077C10.6808 7.47819 10.6737 7.09726 10.4489 7.10428C8.87603 7.15629 7.39034 7.73539 7.57869 9.58933C7.9172 11.5762 8.89425 13.3985 10.3617 14.7801C10.5641 14.9487 10.8045 14.6845 10.7243 14.4723C9.86133 12.288 5.72335 8.11631 10.4629 7.5077Z" fill="#E1E5E9"/>
<path d="M11.7912 10.5647C11.5741 10.9149 11.5015 11.3357 11.5888 11.7384C11.6394 11.9211 11.9374 12.0026 11.995 11.7749C12.1356 11.2253 12.0456 10.6392 12.7709 10.5731C13.0169 10.5507 13.0028 10.1332 12.7568 10.1332C12.572 10.1119 12.3848 10.1407 12.2149 10.2167C12.045 10.2926 11.8987 10.4128 11.7912 10.5647Z" fill="#E1E5E9"/>
<path d="M14.3185 17.6108C14.0655 17.362 13.8041 17.1203 13.5497 16.8771C13.3178 16.6578 12.9411 16.9657 13.166 17.2074C13.4119 17.4647 13.6523 17.7205 13.8983 17.9692C14.0936 18.1674 14.3326 18.5188 14.6081 18.5849C14.7599 18.6214 14.9637 18.5118 14.9131 18.3277C14.84 18.0227 14.5364 17.816 14.3185 17.6108Z" fill="#E1E5E9"/>
<path d="M55.268 53.762C54.158 52.9799 52.9259 52.3876 51.622 52.0092C51.5589 51.9896 51.4908 51.9949 51.4315 52.0239C51.3722 52.053 51.3263 52.1036 51.3031 52.1654C51.2799 52.2272 51.2812 52.2955 51.3068 52.3564C51.3324 52.4173 51.3803 52.466 51.4407 52.4927C52.6513 53.0353 53.8592 53.5853 55.0642 54.1429C55.3031 54.2609 55.4409 53.9166 55.268 53.762Z" fill="#E1E5E9"/>
<path d="M51.5139 57.6413C49.9758 56.379 48.2298 55.3939 46.3541 54.7303C46.028 54.6052 45.8466 55.1113 46.1657 55.2434C47.938 56.0241 49.6483 56.9384 51.2819 57.9786C51.3267 58.0049 51.3797 58.0132 51.4303 58.0019C51.481 57.9906 51.5255 57.9606 51.5549 57.9179C51.5843 57.8751 51.5964 57.8228 51.5888 57.7715C51.5811 57.7202 51.5544 57.6737 51.5139 57.6413Z" fill="#E1E5E9"/>
<path d="M48.0562 58.9822C48.2305 59.0778 48.52 58.9162 48.3893 58.7011C47.955 57.9829 47.0413 57.616 46.4215 57.0805C46.2106 56.8977 45.9 57.2421 46.0954 57.4473C46.3768 57.742 46.6877 58.0072 47.0231 58.2387C47.3514 58.5081 47.6964 58.7564 48.0562 58.9822Z" fill="#E1E5E9"/>
<path d="M50.9981 64.5398C51.237 64.6495 51.4478 64.2587 51.2159 64.1182C46.3232 61.3984 40.7937 60.2543 36.3732 56.6321C36.1623 56.4564 35.9389 56.8008 36.1342 56.9765C40.3664 60.7209 45.983 62.1939 50.9981 64.5398Z" fill="#E1E5E9"/>
<path d="M48.2446 53.0746C48.2944 53.0905 48.3483 53.0883 48.3966 53.0683C48.445 53.0484 48.4847 53.0121 48.5089 52.9657C48.5331 52.9194 48.5402 52.866 48.5288 52.815C48.5175 52.7639 48.4886 52.7185 48.447 52.6867C47.7099 52.2266 46.9366 51.8271 46.1349 51.492C45.8664 51.3669 45.6275 51.8223 45.8959 51.9614C46.6459 52.3984 47.4316 52.7708 48.2446 53.0746Z" fill="#E1E5E9"/>
<path d="M48.7673 3.14617C49.0287 3.19817 49.1005 2.79479 48.8685 2.69921C48.5554 2.54804 48.2013 2.50406 47.8607 2.57409C47.4558 2.68178 47.078 2.87332 46.7517 3.1363C46.5775 3.26843 46.7222 3.61282 46.9401 3.54676C47.5115 3.27811 48.1359 3.14121 48.7673 3.14617Z" fill="#E1E5E9"/>
<path d="M45.1649 3.66762C38.7949 5.23623 31.6195 10.486 28.7634 16.5791C28.6045 16.9165 29.119 17.1737 29.3256 16.8729C33.1881 11.2127 38.5658 6.10347 45.2478 4.13006C45.5275 4.05557 45.4544 3.60156 45.1649 3.66762Z" fill="#E1E5E9"/>
<path d="M38.6937 9.44455C38.0001 9.79296 37.4047 10.3095 36.962 10.9471C36.8215 11.1383 37.0857 11.3687 37.267 11.2282C37.7938 10.7667 38.358 10.3497 38.9537 9.98146C39.2657 9.78187 39.0479 9.28291 38.6937 9.44455Z" fill="#E1E5E9"/>
<path d="M28.1828 23.3456C29.5013 21.5183 30.4008 19.3861 31.6251 17.4872C32.9591 15.4123 34.61 13.5592 36.5179 11.9956C36.7287 11.8199 36.4602 11.5121 36.2367 11.6724C32.4165 14.6462 29.4798 18.6058 27.7429 23.1249C27.7212 23.1821 27.7214 23.2454 27.7437 23.3025C27.7659 23.3596 27.8085 23.4063 27.8633 23.4338C27.918 23.4613 27.981 23.4674 28.04 23.4511C28.0991 23.4348 28.15 23.3972 28.1828 23.3456Z" fill="#E1E5E9"/>
<path d="M27.4759 19.5533C27.1961 20.5815 26.8501 21.5904 26.44 22.5739C26.4222 22.6271 26.4238 22.685 26.4445 22.7372C26.4653 22.7893 26.5038 22.8324 26.5534 22.8589C26.6029 22.8853 26.6602 22.8934 26.7151 22.8816C26.77 22.8699 26.819 22.839 26.8533 22.7946C27.5141 21.8511 27.9278 20.757 28.0565 19.6123C28.1183 19.2314 27.5448 19.1879 27.4759 19.5533Z" fill="#E1E5E9"/>
<path d="M82.6415 45.2541C87.0409 40.5173 85.3121 32.9301 85.1856 27.0787C85.1785 26.785 84.7512 26.7273 84.7287 27.0352C84.1567 33.5008 85.7871 38.9712 82.2859 44.9238C82.1565 45.1486 82.4391 45.4719 82.6415 45.2541Z" fill="#E1E5E9"/>
<path d="M80.5403 46.7103C80.4321 47.004 80.3224 47.2964 80.1847 47.5831C80.0329 47.8909 79.801 48.1453 79.6478 48.456C79.5536 48.6387 79.7996 48.8594 79.9738 48.7567C80.5522 48.2933 80.9392 47.6326 81.0604 46.9014C81.1489 46.5627 80.6668 46.3729 80.5403 46.7103Z" fill="#E1E5E9"/>
<path d="M82.446 32.5844C82.4229 32.5232 82.3791 32.472 82.3222 32.4396C82.2653 32.4073 82.1989 32.3957 82.1345 32.4071C82.0701 32.4184 82.0116 32.4519 81.9692 32.5017C81.9268 32.5515 81.903 32.6145 81.9021 32.6799C82.2703 35.373 82.0262 38.1144 81.1881 40.7001C80.35 43.2858 78.9394 45.6491 77.0613 47.614C76.873 47.7968 77.0613 48.1341 77.3143 48.0104C81.7362 45.8599 83.6998 36.9655 82.446 32.5844Z" fill="#E1E5E9"/>
<path d="M75.459 46.8424C76.3754 45.9495 77.0788 44.8616 77.5168 43.6595C77.9548 42.4574 78.1162 41.172 77.989 39.8989C77.9754 39.8243 77.9327 39.7582 77.8704 39.7151C77.808 39.672 77.7311 39.6555 77.6566 39.6691C77.582 39.6827 77.5159 39.7253 77.4728 39.7877C77.4297 39.85 77.4131 39.9269 77.4267 40.0015C77.7079 42.568 76.3023 44.4304 75.1287 46.5416C75.0092 46.7468 75.2566 47.0405 75.459 46.8424Z" fill="#E1E5E9"/>
<path d="M62.0583 2.90441C61.7182 2.85241 61.6746 3.38092 62.0077 3.43995C67.502 4.42384 72.9148 7.05503 76.1266 11.7904C76.2784 12.0096 76.6129 11.7763 76.5033 11.5416C74.1475 6.33678 67.2701 3.68872 62.0583 2.90441Z" fill="#E1E5E9"/>
<path d="M78.4303 13.8791C78.311 13.3816 78.0369 12.9347 77.6474 12.6028C77.4085 12.3681 77.0023 12.7054 77.2482 12.9472C77.5578 13.2596 77.8172 13.618 78.0171 14.0098C78.0403 14.0567 78.0795 14.0938 78.1277 14.1143C78.1759 14.1349 78.2298 14.1375 78.2797 14.1217C78.3297 14.1059 78.3723 14.0727 78.3999 14.0282C78.4275 13.9838 78.4383 13.9309 78.4303 13.8791Z" fill="#E1E5E9"/>
<path d="M79.7348 14.6971C79.5099 14.4849 79.1402 14.7856 79.3651 15.0119C79.9861 15.6249 80.574 16.2705 81.1263 16.946C81.6077 17.6408 82.0308 18.3741 82.3913 19.1387C82.4192 19.1909 82.4646 19.2315 82.5195 19.2536C82.5745 19.2756 82.6354 19.2775 82.6916 19.259C82.7479 19.2406 82.7958 19.2029 82.827 19.1526C82.8582 19.1023 82.8706 19.0427 82.8622 18.9841C82.7427 17.296 80.8593 15.778 79.7348 14.6971Z" fill="#E1E5E9"/>
<path d="M73.0023 11.1368C71.2408 9.67729 69.3342 8.40233 67.3125 7.33192C67.0595 7.19136 66.7911 7.55961 67.0441 7.71282C68.9865 8.90755 70.863 10.2133 72.7774 11.4446C72.8183 11.47 72.8674 11.479 72.9147 11.4698C72.962 11.4606 73.004 11.4339 73.0325 11.395C73.0609 11.356 73.0736 11.3078 73.068 11.2599C73.0624 11.2121 73.0389 11.1681 73.0023 11.1368Z" fill="#E1E5E9"/>
<path d="M75.3073 13.3885C75.0894 13.2128 74.8575 13.5642 75.0613 13.7399C77.5721 15.8079 79.3531 18.627 80.1424 21.7826C80.2 22.0243 80.5992 22.0398 80.5922 21.7685C80.5838 18.4837 77.663 15.324 75.3073 13.3885Z" fill="#E1E5E9"/>
<path d="M38.9692 13.7259C38.5941 14.0081 38.2911 14.3751 38.0851 14.7969C38.0699 14.8423 38.0682 14.8912 38.0801 14.9376C38.092 14.9839 38.117 15.0259 38.1522 15.0584C38.1874 15.0909 38.2312 15.1126 38.2784 15.1208C38.3255 15.129 38.3741 15.1235 38.4182 15.1048C38.8106 14.9026 39.1482 14.6084 39.4021 14.2473C39.425 14.2289 39.4445 14.2065 39.4597 14.1813C39.5862 13.9156 39.3051 13.4096 38.9692 13.7259Z" fill="#E1E5E9"/>
<path d="M31.2569 26.3211C31.5799 24.424 32.2139 22.5932 33.1333 20.9026C34.1758 19.2718 35.3907 17.7578 36.7569 16.3866C36.9382 16.1954 36.6767 15.8806 36.4884 16.0717C33.8178 18.7704 30.7621 22.1353 30.8141 26.2114C30.8155 26.4602 31.1922 26.5994 31.2569 26.3211Z" fill="#E1E5E9"/>
<path d="M32.9885 27.2741C34.3365 24.5768 34.7061 21.4818 37.1771 19.4732C37.4161 19.2821 37.1195 18.9377 36.8721 19.1134C34.4011 20.9322 33.3793 24.2606 32.5149 27.09C32.499 27.1507 32.5061 27.2151 32.5346 27.271C32.5632 27.3268 32.6112 27.3702 32.6697 27.393C32.7282 27.4157 32.793 27.4162 32.8518 27.3942C32.9105 27.3723 32.9592 27.3295 32.9885 27.2741Z" fill="#E1E5E9"/>
<path d="M39.866 19.4226C37.5398 21.8346 34.6767 25.3021 34.6036 28.8582C34.5966 29.1295 34.9873 29.2546 35.0815 28.9678C35.4969 27.2701 36.1024 25.6245 36.8863 24.0624C37.8482 22.5437 38.9763 21.137 40.2498 19.8682C40.4971 19.6054 40.1275 19.1513 39.866 19.4226Z" fill="#E1E5E9"/>
<path d="M36.6627 27.0464C36.329 27.6732 36.0876 28.345 35.9459 29.0409C35.9417 29.0907 35.9538 29.1405 35.9806 29.1828C36.0073 29.225 36.0471 29.2573 36.0939 29.2749C36.1407 29.2924 36.192 29.2941 36.2399 29.2798C36.2878 29.2654 36.3296 29.2359 36.3591 29.1955C36.7163 28.5831 36.9868 27.9242 37.1631 27.2375C37.2503 26.9072 36.7864 26.7245 36.6627 27.0464Z" fill="#E1E5E9"/>
<path d="M70.9233 46.5121C74.0155 43.514 73.2931 37.1356 72.7506 33.2633C72.707 32.9822 72.2938 33.058 72.3162 33.3434C72.7 37.6247 73.2074 42.5147 70.5761 46.1958C70.4229 46.4095 70.7265 46.6962 70.9233 46.5121Z" fill="#E1E5E9"/>
<path d="M72.9894 45.5295C73.8618 44.8151 74.4358 43.8004 74.5987 42.6847C74.6564 42.3839 74.142 42.263 74.0773 42.568C73.7577 43.5268 73.2771 44.4242 72.6563 45.2217C72.6273 45.2672 72.6153 45.3215 72.6223 45.375C72.6293 45.4285 72.6548 45.4779 72.6944 45.5146C72.734 45.5512 72.7853 45.5727 72.8392 45.5755C72.8931 45.5782 72.9462 45.5619 72.9894 45.5295Z" fill="#E1E5E9"/>
<path d="M69.2112 45.947C70.0004 45.2735 70.503 44.3245 70.6168 43.2933C70.6744 42.963 70.1754 42.9264 70.1094 43.2427C70.0136 43.7008 69.8526 44.1429 69.6315 44.5555C69.4136 44.9448 69.11 45.2582 68.8781 45.6335C68.8477 45.6792 68.8344 45.7341 68.8406 45.7886C68.8468 45.843 68.8722 45.8935 68.9121 45.9311C68.9521 45.9687 69.004 45.9909 69.0588 45.9938C69.1135 45.9967 69.1675 45.9801 69.2112 45.947Z" fill="#E1E5E9"/>
<path d="M53.3102 63.4041C59.838 64.3871 66.5007 62.9672 72.0604 59.4081C72.4371 59.1593 71.9803 58.6238 71.6106 58.8726C66.1458 62.4652 59.7027 63.0583 53.3608 62.8981C53.2949 62.8937 53.23 62.9152 53.1797 62.9578C53.1293 63.0004 53.0974 63.061 53.0909 63.1266C53.0843 63.1923 53.1035 63.2579 53.1444 63.3097C53.1854 63.3615 53.2448 63.3954 53.3102 63.4041Z" fill="#E1E5E9"/>
<path d="M54.4501 60.8094C54.1886 61.0737 54.5372 61.5206 54.8268 61.2634C55.1599 60.9696 55.3272 61.1088 55.6898 61.2564C55.7357 61.2728 55.7853 61.2752 55.8326 61.2634C55.8798 61.2515 55.9225 61.2259 55.9552 61.1898C55.9879 61.1536 56.009 61.1086 56.0161 61.0604C56.0232 61.0122 56.0157 60.963 55.9948 60.9191C55.9216 60.783 55.8151 60.6676 55.6854 60.5837C55.5556 60.4997 55.4068 60.45 55.2526 60.4391C55.0985 60.4281 54.944 60.4563 54.8037 60.5211C54.6634 60.5858 54.5418 60.685 54.4501 60.8094Z" fill="#E1E5E9"/>
<path d="M58.2746 61.0329C62.0186 60.8669 65.6995 60.0091 69.1312 58.5029C69.5079 58.3342 69.2324 57.7552 68.8501 57.9238C65.4628 59.3777 61.8625 60.2739 58.1889 60.5775C57.8909 60.6028 57.9851 61.0498 58.2746 61.0329Z" fill="#E1E5E9"/>
<path d="M63.1758 58.3511C63.8575 58.1459 64.5813 58.285 65.249 58.1023C65.4444 58.0433 65.5385 57.7144 65.2926 57.6483C64.5316 57.4993 63.7443 57.5626 63.0169 57.8311C62.7189 57.9266 62.8778 58.4397 63.1758 58.3511Z" fill="#E1E5E9"/>
<path d="M25.2635 35.03C23.7272 39.3339 26.1616 44.3855 28.0605 48.1679C28.0839 48.2088 28.1218 48.2393 28.1668 48.2533C28.2118 48.2672 28.2604 48.2635 28.3028 48.243C28.3451 48.2224 28.3781 48.1865 28.395 48.1425C28.4119 48.0986 28.4114 48.0498 28.3937 48.0062C26.7773 44.0031 24.3864 39.5967 25.6472 35.1692C25.7118 34.9204 25.3492 34.7812 25.2635 35.03Z" fill="#E1E5E9"/>
<path d="M29.1472 45.7488C28.748 42.6186 27.2694 39.8764 27.6011 36.6351C27.6056 36.5699 27.5846 36.5056 27.5424 36.4557C27.5003 36.4057 27.4404 36.3741 27.3754 36.3675C27.3104 36.361 27.2454 36.3799 27.1942 36.4204C27.1429 36.4609 27.1094 36.5198 27.1007 36.5845C26.5385 39.6416 27.84 42.9925 28.7747 45.8612C28.8506 46.0861 29.1767 45.954 29.1472 45.7488Z" fill="#E1E5E9"/>
<path d="M29.3509 47.919C29.5614 49.4239 30.1775 50.8432 31.1332 52.0247C31.1672 52.0607 31.2127 52.0836 31.2619 52.0894C31.3111 52.0952 31.3608 52.0834 31.4022 52.0563C31.4436 52.0291 31.4741 51.9883 31.4884 51.9408C31.5027 51.8934 31.4999 51.8425 31.4804 51.7969C30.7374 50.5614 30.1555 49.236 29.7487 47.8529C29.736 47.8039 29.7055 47.7615 29.6631 47.7339C29.6207 47.7063 29.5695 47.6956 29.5196 47.7039C29.4697 47.7122 29.4247 47.7389 29.3935 47.7787C29.3622 47.8185 29.3471 47.8685 29.3509 47.919Z" fill="#E1E5E9"/>
<path d="M32.366 49.3133C30.5717 45.9469 29.7653 42.1421 30.0398 38.3373C30.0364 38.2867 30.0152 38.2389 29.98 38.2023C29.9448 38.1658 29.8978 38.143 29.8473 38.1377C29.7968 38.1325 29.7462 38.1453 29.7042 38.1739C29.6623 38.2024 29.6318 38.2448 29.6181 38.2937C29.2721 42.1782 30.1189 46.0758 32.0455 49.4665C32.1636 49.6577 32.4812 49.5115 32.366 49.3133Z" fill="#E1E5E9"/>
<path d="M32.3223 41.3691C32.4191 40.9266 32.4867 40.4782 32.5246 40.0268C32.5176 39.7555 32.1184 39.6965 32.103 39.9832C32.0234 40.4439 31.9727 40.9091 31.9512 41.3761C31.9526 41.6081 32.2998 41.5785 32.3223 41.3691Z" fill="#E1E5E9"/>
<path d="M34.2648 48.9029C33.4987 47.2726 32.9292 45.557 32.5682 43.7923C32.5247 43.4985 32.0833 43.58 32.1184 43.8724C32.3581 45.708 32.9724 47.4748 33.9232 49.0631C33.9444 49.1084 33.9828 49.1434 34.0299 49.1604C34.0769 49.1774 34.1288 49.175 34.1741 49.1538C34.2194 49.1325 34.2544 49.0941 34.2714 49.0471C34.2884 49 34.286 48.9482 34.2648 48.9029Z" fill="#E1E5E9"/>
<path d="M34.3223 53.7985C34.6803 54.2429 35.1074 54.6268 35.5873 54.9356C35.7757 55.0312 35.964 54.795 35.8769 54.6123C35.5375 54.1112 35.1248 53.664 34.6526 53.2855C34.2183 52.8638 33.7615 52.4716 33.3117 52.0612C33.1234 51.8925 32.8479 52.2018 33.0151 52.3915C33.4452 52.868 33.8655 53.3445 34.3223 53.7985Z" fill="#E1E5E9"/>
<path d="M36.6051 52.8694C36.9101 52.2102 36.4969 51.7112 36.0246 51.2854C35.7786 51.0577 35.3654 51.3739 35.6113 51.6368C35.7835 51.7735 35.9238 51.946 36.0226 52.1423C36.1214 52.3387 36.1762 52.5542 36.1834 52.7738C36.1782 52.8267 36.1924 52.8796 36.2235 52.9227C36.2545 52.9658 36.3003 52.996 36.3521 53.0078C36.4039 53.0195 36.4581 53.0119 36.5047 52.9865C36.5513 52.961 36.587 52.9193 36.6051 52.8694Z" fill="#E1E5E9"/>
<path d="M43.9183 57.6343C41.5697 56.7992 39.3933 55.5421 37.4963 53.925C37.2503 53.7338 36.9889 54.1232 37.2152 54.3214C39.0618 56.1174 41.3218 57.4318 43.796 58.1487C44.0926 58.2063 44.2008 57.7214 43.9183 57.6343Z" fill="#E1E5E9"/>
<path d="M40.5617 57.7214C40.3298 57.5162 40.0543 57.9196 40.2806 58.1178C40.5925 58.3519 40.9337 58.5442 41.2955 58.6899C41.4543 58.763 41.6651 58.5577 41.5639 58.3961C41.3446 58.0363 40.8597 57.9856 40.5617 57.7214Z" fill="#E1E5E9"/>
<path d="M43.2014 59.4306C45.3243 60.5226 47.5731 61.3501 49.8975 61.8945C50.166 61.9536 50.2742 61.4841 50.0057 61.411C47.7352 60.7692 45.5119 59.9708 43.3518 59.0216C43.0917 58.9176 42.9554 59.3167 43.2014 59.4306Z" fill="#E1E5E9"/>
<path d="M53.1879 9.99551C52.9925 10.2302 53.3396 10.5085 53.5645 10.3399C54.0592 9.94298 54.6863 9.74905 55.3187 9.79734C55.6708 9.83754 56.0066 9.96797 56.2935 10.1761C56.5803 10.3841 56.8086 10.6628 56.9562 10.985C57.0967 11.2198 57.5071 11.1396 57.4425 10.8304C57.0714 8.95257 54.2884 8.68131 53.1879 9.99551Z" fill="#E1E5E9"/>
<path d="M57.7602 11.4967C57.5789 11.7019 57.9008 11.9662 58.1004 11.8116C58.4956 11.4867 58.9946 11.315 59.506 11.328C59.9358 11.4042 60.3588 11.5146 60.771 11.6583C60.8181 11.661 60.8649 11.65 60.9059 11.6265C60.9468 11.603 60.98 11.5681 61.0014 11.5261C61.0229 11.4841 61.0316 11.4368 61.0267 11.3899C61.0217 11.343 61.0032 11.2985 60.9734 11.2619C60.7487 11.0627 60.4864 10.9105 60.202 10.8142C59.9176 10.718 59.6168 10.6797 59.3173 10.7015C59.0178 10.7234 58.7258 10.805 58.4584 10.9416C58.1909 11.0782 57.9536 11.2669 57.7602 11.4967Z" fill="#E1E5E9"/>
<path d="M75.6979 23.9458C75.9115 24.6638 75.9562 25.4214 75.8286 26.1595C75.8294 26.1971 75.839 26.2339 75.8565 26.2671C75.8741 26.3003 75.8992 26.3289 75.9299 26.3507C75.9515 26.335 75.9763 26.3242 76.0025 26.3191C76.0287 26.314 76.0558 26.3147 76.0817 26.3212C76.1211 26.33 76.1596 26.3423 76.1969 26.3577C76.2109 26.3437 76.2335 26.3437 76.2475 26.3212C77.2623 24.6345 75.8849 22.706 74.3922 21.9737C74.1673 21.8641 73.9705 22.245 74.1898 22.3701C74.8504 22.7174 75.3799 23.2706 75.6979 23.9458Z" fill="#E1E5E9"/>
<path d="M75.9299 26.3577C75.8947 26.3849 75.867 26.4208 75.8497 26.4618C75.8324 26.5029 75.8259 26.5477 75.831 26.5919C75.8361 26.6362 75.8526 26.6784 75.8788 26.7144C75.905 26.7505 75.94 26.7791 75.9805 26.7976C76.2892 26.9006 76.571 27.0711 76.8054 27.2967C77.0398 27.5224 77.2209 27.7975 77.3355 28.102C77.4566 28.6765 77.5318 29.2598 77.5604 29.8463C77.5706 29.8976 77.5972 29.9442 77.636 29.9793C77.6749 30.0143 77.724 30.0358 77.7761 30.0407C77.8282 30.0456 77.8804 30.0336 77.9251 30.0064C77.9698 29.9792 78.0046 29.9384 78.0242 29.8899C78.1441 29.5167 78.1879 29.1233 78.1532 28.733C78.1184 28.3426 78.0057 27.9631 77.8218 27.6171C77.6707 27.2952 77.4454 27.0137 77.1644 26.7958C76.8834 26.5778 76.5548 26.4296 76.2054 26.3633C76.1618 26.3563 76.1323 26.3338 76.0887 26.3268C76.0616 26.3202 76.0334 26.3195 76.006 26.3249C75.9786 26.3302 75.9526 26.3414 75.9299 26.3577Z" fill="#E1E5E9"/>
<path d="M78.1845 34.7657C78.3901 34.5557 78.547 34.3031 78.6442 34.0257C78.7413 33.7483 78.7763 33.453 78.7467 33.1606C78.7079 32.8922 78.5878 32.6423 78.4026 32.4443C78.2174 32.2462 77.9759 32.1097 77.7108 32.053C77.6485 32.0299 77.5797 32.0325 77.5193 32.0601C77.4589 32.0878 77.4121 32.1384 77.3889 32.2006C77.3658 32.2629 77.3684 32.3317 77.3961 32.3921C77.4237 32.4525 77.4743 32.4994 77.5365 32.5225C77.7345 32.5724 77.9074 32.6933 78.0222 32.8623C78.1369 33.0312 78.1857 33.2364 78.1592 33.4389C78.1086 33.8423 77.8471 34.1642 77.7895 34.5634C77.7857 34.6107 77.7961 34.6581 77.8192 34.6995C77.8424 34.741 77.8773 34.7746 77.9195 34.7963C77.9618 34.8179 78.0094 34.8266 78.0566 34.8212C78.1038 34.8157 78.1483 34.7964 78.1845 34.7657Z" fill="#E1E5E9"/>
<path d="M43.3012 23.6815C43.2639 23.7333 43.2487 23.7978 43.259 23.8608C43.2693 23.9238 43.3041 23.9801 43.356 24.0174C43.4078 24.0547 43.4723 24.0699 43.5353 24.0596C43.5983 24.0493 43.6546 24.0144 43.6919 23.9626C44.0295 23.4521 44.4845 23.0298 45.0188 22.7313C45.6097 22.5622 46.2415 22.609 46.801 22.8634C46.8127 22.8003 46.8376 22.7405 46.8741 22.6877C46.9317 22.6287 46.9908 22.5627 47.0554 22.505C47.0414 22.4826 47.0414 22.4614 47.0119 22.446C45.5838 21.4115 44.1304 22.4207 43.3012 23.6815Z" fill="#E1E5E9"/>
<path d="M46.8389 22.8607C46.8469 22.9027 46.8656 22.942 46.893 22.9749C46.9205 23.0077 46.9559 23.0329 46.9958 23.0483C47.0358 23.0636 47.0791 23.0685 47.1214 23.0625C47.1638 23.0565 47.204 23.0397 47.2381 23.0138C47.527 22.7188 47.872 22.4846 48.2529 22.3251C48.6561 22.2352 49.0776 22.276 49.4561 22.4418C49.6444 22.4854 49.8777 22.2591 49.702 22.0904C48.8474 21.2696 47.7736 21.8093 47.0638 22.5121C47.0062 22.5711 46.9401 22.6287 46.8824 22.6948C46.8645 22.7181 46.8514 22.7448 46.8439 22.7733C46.8364 22.8018 46.8347 22.8315 46.8389 22.8607Z" fill="#E1E5E9"/>
<path d="M35.2711 44.5401C35.2413 44.5291 35.2096 44.5241 35.1779 44.5253C35.1461 44.5266 35.1149 44.5341 35.0861 44.5474C35.0278 44.5743 34.9827 44.6232 34.9605 44.6834C34.9383 44.7436 34.9409 44.8102 34.9678 44.8684C34.9947 44.9267 35.0436 44.9719 35.1038 44.994C35.5546 45.1661 35.9244 45.5012 36.1397 45.933C36.256 46.4208 36.2488 46.93 36.1186 47.4144C36.1144 47.4642 36.1266 47.5141 36.1533 47.5563C36.18 47.5985 36.2198 47.6309 36.2667 47.6484C36.3135 47.6659 36.3647 47.6677 36.4126 47.6533C36.4605 47.639 36.5024 47.6094 36.5319 47.569C36.7286 47.2947 36.849 46.9731 36.8808 46.637C36.9127 46.301 36.8548 45.9625 36.7132 45.6561C36.5766 45.3704 36.3751 45.1206 36.1247 44.9268C35.8742 44.733 35.5819 44.6006 35.2711 44.5401Z" fill="#E1E5E9"/>
<path d="M36.5039 47.7587C36.2143 47.7728 36.2495 48.2352 36.525 48.2648C36.8333 48.2822 37.1236 48.4158 37.3374 48.6386C37.4965 48.8822 37.6165 49.1493 37.693 49.43C37.7113 49.4682 37.7403 49.5003 37.7766 49.5223C37.8129 49.5443 37.8548 49.5551 37.8972 49.5537C37.9396 49.5522 37.9806 49.5384 38.0152 49.5139C38.0498 49.4894 38.0766 49.4554 38.0921 49.4159C38.1509 49.1988 38.1474 48.9695 38.0821 48.7542C38.0167 48.539 37.8921 48.3465 37.7225 48.1987C37.5665 48.0372 37.3755 47.9135 37.1643 47.8372C36.953 47.761 36.7271 47.7341 36.5039 47.7587Z" fill="#E1E5E9"/>
<path d="M43.9898 31.63C43.9856 31.5867 43.9679 31.546 43.9392 31.5133C43.5939 31.234 43.2736 30.9249 42.9821 30.5898C42.744 30.2033 42.5658 29.783 42.4536 29.3431C42.4387 29.2857 42.4029 29.2359 42.3531 29.2038C42.3032 29.1716 42.2432 29.1593 42.1847 29.1694C42.1263 29.1795 42.0738 29.2112 42.0377 29.2582C42.0015 29.3053 41.9844 29.3642 41.9897 29.4232C42.0316 29.9454 42.2093 30.4474 42.5052 30.8796C42.8011 31.3119 43.2048 31.6592 43.6764 31.8872C43.6992 31.8511 43.7163 31.8118 43.727 31.7705C43.7503 31.7223 43.7883 31.6827 43.8355 31.6574C43.8828 31.6322 43.9368 31.6225 43.9898 31.63Z" fill="#E1E5E9"/>
<path d="M45.0412 34.3483C45.2366 34.4003 45.4474 34.1726 45.2872 33.9969C45.0061 33.6821 44.5985 33.5134 44.3455 33.1606C44.2316 32.9692 44.1601 32.7556 44.1358 32.5343C44.1116 32.3129 44.1351 32.0888 44.2049 31.8773C44.2107 31.8473 44.2098 31.8164 44.2023 31.7868C44.1948 31.7571 44.181 31.7295 44.1617 31.7058C44.1424 31.6821 44.1181 31.6629 44.0907 31.6495C44.0632 31.6362 44.0331 31.629 44.0025 31.6285C43.9494 31.6183 43.8944 31.6267 43.8468 31.6523C43.7991 31.6779 43.7618 31.7191 43.7411 31.7691C43.7271 31.8068 43.7172 31.8459 43.7116 31.8858C43.6291 32.1346 43.5985 32.3976 43.6214 32.6587C43.6443 32.9198 43.7204 33.1734 43.8449 33.404C43.9694 33.6346 44.1398 33.8374 44.3455 33.9998C44.5512 34.1622 44.788 34.2808 45.0412 34.3483Z" fill="#E1E5E9"/>
<path d="M42.2288 7.72126C42.4603 7.32643 42.8309 7.03231 43.268 6.89658C43.7051 6.76084 44.1771 6.79329 44.5915 6.98755C44.6106 6.9912 44.6301 6.9912 44.6492 6.98755C44.6137 6.98369 44.58 6.97057 44.5512 6.94946C44.5225 6.92836 44.4999 6.90003 44.4856 6.86736C44.4713 6.8347 44.466 6.79884 44.47 6.76343C44.474 6.72802 44.4874 6.69429 44.5086 6.66568C44.5522 6.6221 44.5958 6.57013 44.6393 6.52515C44.1458 6.27397 43.5728 6.22863 43.0459 6.39909C42.519 6.56954 42.0811 6.9419 41.8282 7.43456C41.6567 7.70583 42.0404 7.99254 42.2288 7.72126Z" fill="#E1E5E9"/>
<path d="M44.7742 6.95105C44.7507 6.96921 44.7232 6.98172 44.6941 6.9876C44.7237 6.98314 44.7514 6.97047 44.7742 6.95105Z" fill="#E1E5E9"/>
<path d="M44.642 6.98762H44.6926C44.7231 6.98652 44.7519 6.97338 44.7727 6.95107C45.1332 6.64146 45.4679 6.30301 45.7735 5.93907C45.9253 5.74088 45.6428 5.49911 45.4615 5.65794C45.16 5.92283 44.8812 6.21244 44.6279 6.52376C44.5844 6.57436 44.5408 6.61935 44.4972 6.66432C44.382 6.79083 44.5043 6.96654 44.642 6.98762Z" fill="#E1E5E9"/>
<path d="M54.4572 2.53053C54.4544 2.51725 54.4482 2.50494 54.4394 2.49463C54.4306 2.48432 54.4193 2.47635 54.4066 2.47151C54.0708 2.24031 53.6792 2.10338 53.2726 2.07495C52.8659 2.04652 52.4591 2.12765 52.0945 2.30988C52.0483 2.33699 52.0139 2.38035 51.998 2.43149C51.9821 2.48263 51.9858 2.53786 52.0085 2.58638C52.0312 2.63489 52.0711 2.67322 52.1206 2.69383C52.17 2.71444 52.2253 2.71586 52.2758 2.69782C52.5886 2.5873 52.9222 2.54838 53.252 2.58389C53.5819 2.61941 53.8996 2.72845 54.1817 2.90302C54.2323 2.92336 54.2884 2.92489 54.34 2.90736C54.3916 2.88982 54.4351 2.85438 54.4628 2.80746C54.4292 2.76949 54.4101 2.72076 54.4091 2.67002C54.408 2.61929 54.4251 2.56983 54.4572 2.53053Z" fill="#E1E5E9"/>
<path d="M54.4613 2.52356C54.4428 2.54198 54.4281 2.56386 54.418 2.58799C54.408 2.61211 54.4028 2.638 54.4028 2.66412C54.4028 2.69025 54.408 2.7161 54.418 2.74022C54.4281 2.76434 54.4428 2.78627 54.4613 2.80469C54.5022 2.85333 54.5598 2.88481 54.6228 2.89288C54.6859 2.90095 54.7496 2.88504 54.8014 2.84827C55.0834 2.61948 55.4173 2.46362 55.7737 2.39449C56.1301 2.32536 56.4981 2.34507 56.8451 2.45188C57.0559 2.51794 57.2443 2.21714 57.0335 2.09204C56.6236 1.8458 56.1393 1.75398 55.6677 1.83309C55.1962 1.91219 54.7684 2.15705 54.4613 2.52356Z" fill="#E1E5E9"/>
<path d="M82.2579 24.73C82.4027 24.5867 82.5172 24.4159 82.5947 24.2275C82.6723 24.0392 82.7112 23.8372 82.7092 23.6335C82.7073 23.4298 82.6644 23.2286 82.5833 23.0418C82.5021 22.8549 82.3843 22.6863 82.2368 22.5458C82.0555 22.3631 81.7519 22.6119 81.9248 22.81C82.4968 23.4482 82.1637 24.0638 81.7505 24.6724C81.7729 24.6331 81.8083 24.6027 81.8506 24.5866C81.8929 24.5704 81.9394 24.5694 81.9824 24.5838C82.0836 24.6344 82.1707 24.678 82.2579 24.73Z" fill="#E1E5E9"/>
<path d="M82.2577 24.73C82.1672 24.6771 82.0733 24.6302 81.9767 24.5895C81.9342 24.5705 81.8858 24.5692 81.8424 24.5858C81.7989 24.6024 81.7638 24.6356 81.7447 24.678C81.7285 24.6991 81.7168 24.7233 81.7102 24.749C81.7037 24.7748 81.7023 24.8016 81.7064 24.8279C81.7105 24.8542 81.7198 24.8794 81.7339 24.9019C81.748 24.9245 81.7665 24.9439 81.7883 24.9591C82.1202 25.164 82.3926 25.4524 82.5782 25.7954C82.6924 26.118 82.789 26.4464 82.8678 26.7794C82.8863 26.8161 82.9149 26.8469 82.9504 26.8678C82.9858 26.8888 83.0265 26.8992 83.0677 26.8977C83.1088 26.8962 83.1487 26.883 83.1825 26.8595C83.2163 26.836 83.2427 26.8033 83.2585 26.7653C83.3435 26.3198 83.2496 25.8588 82.9971 25.482C82.8242 25.1683 82.5685 24.9082 82.2577 24.73Z" fill="#E1E5E9"/>
<path d="M111.408 59.8621C111.32 59.29 111.205 58.718 111.074 58.1389C110.8 56.8702 110.38 55.6377 109.821 54.4661C109.81 54.4426 109.795 54.4214 109.776 54.4038C109.757 54.3862 109.734 54.3725 109.71 54.3636C109.686 54.3547 109.66 54.3508 109.634 54.352C109.608 54.3531 109.583 54.3595 109.559 54.3706C109.531 54.379 109.506 54.3935 109.484 54.413C109.463 54.4325 109.446 54.4566 109.434 54.4835C109.423 54.5104 109.418 54.5394 109.42 54.5685C109.421 54.5976 109.429 54.626 109.443 54.6517C109.559 54.8934 109.653 55.1352 109.748 55.377C110.216 56.7784 110.603 58.2055 110.907 59.6513C110.93 59.7468 110.958 59.8424 110.98 59.9324C110.99 59.989 111.021 60.0397 111.068 60.0732C111.114 60.1066 111.172 60.1202 111.229 60.1109C111.286 60.1015 111.336 60.0701 111.37 60.0234C111.403 59.9768 111.417 59.9187 111.408 59.8621Z" fill="#E1E5E9"/>
<path d="M80.2001 58.316C80.2732 58.4481 80.3407 58.5732 80.4025 58.7039C80.465 58.8266 80.5616 58.9288 80.6806 58.9981C80.7996 59.0674 80.9361 59.101 81.0737 59.0947C81.2113 59.0885 81.3442 59.0428 81.4565 58.963C81.5688 58.8832 81.6557 58.7728 81.7069 58.6449C81.7434 58.5718 81.7715 58.5198 81.8081 58.4467C81.8327 58.3965 81.8544 58.3449 81.8728 58.2921C81.9612 58.0833 81.9749 57.8503 81.9114 57.6326C81.8478 57.4149 81.711 57.2258 81.5242 57.0973C81.4056 57.0242 81.272 56.979 81.1334 56.9652C80.8946 56.9556 80.6602 57.0327 80.4738 57.1823C80.2873 57.3319 80.1611 57.5438 80.1186 57.779C80.0843 57.9621 80.113 58.1513 80.2001 58.316Z" fill="#E1E5E9"/>
</svg>
