<svg width="13" height="13" viewBox="0 0 13 13" fill="none" xmlns="http://www.w3.org/2000/svg">
<path d="M7.64054 2.037C8.0504 1.59294 8.25533 1.37092 8.47308 1.24141C8.99849 0.928918 9.64551 0.919199 10.1797 1.21578C10.4011 1.33869 10.6123 1.55447 11.0348 1.98602C11.4572 2.41757 11.6685 2.63335 11.7888 2.85951C12.0791 3.40521 12.0696 4.06613 11.7637 4.60288C11.6369 4.82534 11.4195 5.03468 10.9849 5.45335L5.81284 10.4349C4.98909 11.2283 4.5772 11.625 4.06244 11.826C3.54767 12.0271 2.98176 12.0123 1.84995 11.9827L1.69596 11.9787C1.3514 11.9697 1.17912 11.9652 1.07898 11.8515C0.978826 11.7379 0.992499 11.5624 1.01984 11.2114L1.03469 11.0208C1.11166 10.0329 1.15013 9.53902 1.34304 9.09501C1.53594 8.65099 1.86869 8.29052 2.53419 7.56947L7.64054 2.037Z" stroke="#21E786" stroke-linejoin="round"/>
<path d="M7.6001 2.1001L10.9001 5.4001" stroke="#21E786" stroke-linejoin="round"/>
<path d="M7.6001 12H12.0001" stroke="#21E786" stroke-linecap="round" stroke-linejoin="round"/>
</svg>
