<svg xmlns="http://www.w3.org/2000/svg" viewBox="0 0 877 526"><path fill="#f0b623" stroke="#f0b623" d="M11.11 6.396C2.702 11.056 5.873 24 15.423 24c4.541 0 4.521-1.337.605 41.211C8.336 148.793 4.506 205.09 5.291 223c1.193 27.192 9.907 47.124 28.62 65.469C39.596 294.041 41.361 297 39 297c-1.345 0-1.266 2.601.147 4.864.972 1.556-.007 3.575-6.415 13.236-11.525 17.374-18.937 35.541-22.603 55.4-3.235 17.527-6.105 74.736-6.122 122.034L4 512.569l3.011 1.778c3.656 2.16 10.232 2.4 13.126.478 1.924-1.278 2.376-1.158 4.807 1.273 7.571 7.571 29.196 4.919 31.188-3.825l.631-2.773.119 2.677c.256 5.802 11.935 9.124 20.553 5.848L80 517.05v-27.025c0-17.35-.358-27.025-1-27.025-.664 0-1-74.5-1-221.5V20h721.181l-.29 248.568c-.253 216.241-.102 248.686 1.159 249.484.798.505 4.652.924 8.565.933 10.647.023 12.323-1.616 12.586-12.308l.201-8.177.34 7.696c.408 9.242 2.688 11.921 11.748 13.802 11.931 2.477 20.546-1.58 21.584-10.164l.644-5.334.141 4.715c.173 5.788 2.214 7.225 9.297 6.544 8.839-.849 8.845-.867 8.835-25.664-.036-81.773-4.351-124.883-15.08-150.654-3.222-7.74-15.758-29.401-19.207-33.187-1.847-2.029-1.909-2.502-.638-4.877 1.274-2.38 1.219-2.773-.58-4.149-1.911-1.463-1.608-1.903 8.014-11.641 18.268-18.489 26.503-40.124 26.487-69.587-.01-19.007-4.516-82.532-10.002-141-.541-5.775-1.661-18.15-2.488-27.5-.827-9.35-1.669-18.575-1.872-20.5l-.368-3.5 4.133.332c10.23.821 14.53-12.719 5.519-17.379-3.946-2.041-6.084-1.824-10.314 1.047l-3.684 2.5H25.089l-3.684-2.5c-4.106-2.786-6.749-3.07-10.295-1.104" fill-rule="evenodd"/><path fill="#fbfbfb" stroke="#fbfbfb" d="m852.457 15.054.336 4.946H799v274h2.839c2.073 0 3.154.688 4 2.547 1.785 3.916 1.461 4.453-2.685 4.453h-3.845l-.573 107.75c-.36 67.595-.219 108.116.377 108.732 2.005 2.071 15.139 1.778 18.637-.415l3.25-2.038.215-12.764.215-12.765.319 11.971c.275 10.334.592 12.263 2.32 14.103 4.55 4.843 17.789 6.126 25.365 2.458l4.405-2.132.639-7.7c.927-11.154 1.275-11.769 1.406-2.485.13 9.235.906 10.285 7.6 10.285 7.348 0 9.183-1.952 9.997-10.638 1.339-14.291-1.117-95.593-3.53-116.862-3.888-34.268-13.383-60.336-29.305-80.457-1.934-2.444-3.294-4.804-3.022-5.243.272-.44-1.035-.8-2.904-.8-2.672 0-3.647-.545-4.559-2.547-1.639-3.597-1.556-3.718 2.269-3.271 1.886.22 3.224.067 2.972-.341-.252-.407.539-1.274 1.758-1.927 3.46-1.851 11.667-9.856 16.388-15.984 12.529-16.261 19.453-38.141 19.438-61.43-.01-17.572-5.866-97.648-10.988-150.25L860 45.75c-.55-5.638-1.113-13.285-1.25-16.995-.138-3.709-.576-6.747-.974-6.75-1.389-.01-3.957-6.279-3.516-8.583.255-1.333-.106-2.533-.848-2.817-.974-.374-1.209.72-.955 4.449m-828.01-2.222c1.001 3.153-1.142 7.933-4.335 9.668-1.437.781-2.071 1.438-1.409 1.46.832.028 1.057 1.506.729 4.79C15.414 69.071 7.411 168.251 5.837 197.236 3.4 242.107 9.679 263.089 32.73 287.093c4.538 4.725 7.954 8.89 7.59 9.254-.364.364 1.44.374 4.009.021 5.112-.7 5.2-.623 3.51 3.085-.906 1.989-1.891 2.547-4.5 2.547-2.342 0-3.339.46-3.339 1.543 0 .848-1.765 3.931-3.921 6.851C22.134 329.269 12.996 351.932 9.622 376c-3.053 21.79-5.553 75.649-5.605 120.765L4 512.029l3.25 1.982c3.841 2.342 10.554 2.605 13.309.521 2.517-1.904 3.441-1.897 3.441.024 0 2.598 8.688 5.799 15.5 5.71 11.23-.147 16.172-3.769 16.754-12.278l.376-5.488.185 6.265c.175 5.913.368 6.376 3.435 8.246 3.723 2.27 13.053 2.719 17.203.828l2.547-1.16v-26.84C80 472.613 79.642 463 79 463c-.658 0-1-27.667-1-81v-81h-3.5c-2.174 0-3.5-.484-3.5-1.277 0-2.265 3.056-5.723 5.057-5.723C77.972 294 78 292.001 78 157V20H25.909l.622-3.314c.462-2.461.179-3.682-1.099-4.742-1.562-1.297-1.653-1.215-.985.888M53 295.729c-4.47 1.701-3.859 5.271.902 5.271 3.437 0 4.027-.358 4.948-3 .997-2.858.919-2.996-1.652-2.921-1.484.043-3.373.336-4.198.65m7.975 1.836c-1.349 3.55-1.46 3.435 3.306 3.435 3.838 0 4.398-.31 5.413-3l1.132-3h-4.438c-3.843 0-4.568.343-5.413 2.565M808 296.066c0 3.139 2.195 4.934 6.035 4.934 4.425 0 4.335.103 2.99-3.435-1.016-2.672-9.025-4.003-9.025-1.499m11.117 1.838c.873 2.507 1.601 2.952 5.309 3.25 4.254.343 4.287.32 3.377-2.291-.636-1.824-1.864-2.825-3.986-3.25-5.462-1.092-5.819-.918-4.7 2.291" fill-rule="evenodd"/><path fill="#c63a55" stroke="#c63a55" d="M25 15.077c0 2.015-.949 4.037-2.75 5.86-2.329 2.357-2.796 3.763-3.047 9.173-.164 3.515-1.612 21.015-3.218 38.89C4.764 193.887 3.498 223.968 8.599 244.5c5.704 22.958 26.514 51.5 37.549 51.5h3.903l-1.551 3c-1.134 2.193-2.284 3.012-4.276 3.045-2.852.048-3.339.675-15.084 19.411-18.976 30.271-23.732 61.235-24.334 158.413-.189 30.598-.098 32.445 1.671 33.738 4.086 2.988 11.807 2.966 14.815-.041 1.242-1.242 1.713-1.05 3.563 1.452 4.833 6.537 22.146 6.67 29.395.227 1.258-1.118 1.8-3.268 1.927-7.65l.176-6.095.574 7c.554 6.772.687 7.059 4.073 8.804 4.082 2.104 14.759 1.971 17.395-.217C80.302 515.504 80.889 463 79 463c-.658 0-1-27.667-1-81v-81H70.097l1.359-3.25c.96-2.296 2.12-3.343 3.951-3.566l2.593-.317V21H25.246l.507-4.5c.279-2.475.224-4.5-.123-4.5-.346 0-.63 1.385-.63 3.077m828.413 1.173.341 4.75H799V293.873l3.183.314c2.521.248 3.458.989 4.503 3.563l1.32 3.25H799v67.336c0 37.035-.297 85.566-.66 107.846l-.66 40.511 3.309 1.153c6.326 2.206 18.791.117 19.126-3.205.064-.627.22-1.591.348-2.141.128-.55.367-6.175.531-12.5l.299-11.5.786 12.353c.961 15.099.829 14.75 6.483 17.173 6.372 2.732 14.735 2.619 20.476-.276l4.462-2.25.294-8.494c.391-11.259 2.206-13.121 2.206-2.263 0 11.148 3.261 13.537 13.103 9.599l4.144-1.658-.555-47.592c-1.025-87.967-4.545-110.262-22.294-141.203-3.593-6.264-8.078-13.375-9.966-15.803-1.887-2.428-3.432-4.79-3.432-5.25 0-.46-1.338-.836-2.974-.836-2.294 0-3.33-.687-4.526-3l-1.551-3h2.915c8.959 0 27.021-20.5 34.407-39.05 10.2-25.621 9.846-42.155-4.288-199.95-2.862-31.944-2.912-32.323-4.673-35.568-.876-1.613-1.962-4.507-2.415-6.432-.747-3.178-.791-3.063-.482 1.25M63.25 294.706c-1.237.238-2.256.739-2.264 1.114-.007.374-.285 1.692-.616 2.93-.973 3.631 7.805 3.356 9.469-.297 2.055-4.509.868-5.184-6.589-3.747m743.75-.491c0 4.339 2.418 6.785 6.706 6.785 4.421 0 4.497-.055 3.821-2.748-.379-1.511-.801-2.859-.937-2.996-.52-.519-9.59-1.504-9.59-1.041M50.526 297.95c-2.092 4.045-2.088 4.05 2.876 4.05 4.126 0 6.598-2.491 6.598-6.649 0-.193-1.788-.351-3.974-.351-3.39 0-4.199.434-5.5 2.95M818 295.351c0 4.158 2.472 6.649 6.598 6.649 2.421 0 4.402-.158 4.402-.351 0-4.158-2.472-6.649-6.598-6.649-2.421 0-4.402.158-4.402.351" fill-rule="evenodd"/><path fill="#8c2949" stroke="#8c2949" d="M25.232 15c0 1.925.206 2.712.457 1.75.252-.963.252-2.537 0-3.5-.251-.963-.457-.175-.457 1.75m828 0c0 1.925.206 2.712.457 1.75.252-.963.252-2.537 0-3.5-.251-.963-.457-.175-.457 1.75M22.145 21.544C20.85 22.895 20.261 24 20.836 24s1.324-.45 1.664-1c.34-.55 4.416-1 9.059-1H40l-.01 3.75c-.005 2.063-.442 10.05-.97 17.75-4.919 71.682-7.57 169.361-5.022 185.056 1.918 11.813 12.041 36.458 22.514 54.809 4.871 8.536 5.22 9.635 3.064 9.635-.838 0-4.645-6.447-9.254-15.668-8.66-17.328-10.979-19.913-10.062-11.217 1.026 9.728 3.415 14.872 10.05 21.635 5.783 5.894 5.981 6.25 3.475 6.25-4.712 0-18.209-22.445-25.189-41.889-8.84-24.621-9.307-48.532-2.582-132.111.553-6.875 2.348-29.375 3.987-50 1.64-20.625 3.226-39.637 3.525-42.25.298-2.613.157-4.75-.314-4.75-.472 0-1.623 9.563-2.559 21.25A28439.99 28439.99 0 0 1 27.521 83c-9.089 111.219-9.766 132.715-4.866 154.44 3.535 15.671 13.973 39.052 22.469 50.329 2.184 2.899 3.697 5.711 3.364 6.25-.333.54-.099.981.52.981.672 0 .895.909.554 2.25l-.573 2.25 1.159-2.25c1.318-2.562 9.823-3.422 9.882-1 .017.694.484.471 1.05-.5.83-1.425 2.544-1.772 9.22-1.866 4.51-.064 7.478-.309 6.596-.545-4.376-1.171-8.117-80.621-5.927-125.839 1.507-31.093 4.966-94.439 6.035-110.5.531-7.975.907-18.325.836-23l-.129-8.5-.786 11.5c-7.521 110.151-9.631 172.227-7.069 208 1.298 18.124 2.97 38.403 3.65 44.25.323 2.783.068 3.75-.99 3.75-1.651 0-2.175-2.714-3.052-15.805-1.131-16.893-3.979-22.145-7.048-12.996-2.506 7.472-2.329 17.078.428 23.193 2.455 5.443 2.216 7.558-.304 2.686-4.935-9.543-12.451-36.584-15.031-54.078-3.103-21.036-2.997-48.66.487-126.5.517-11.55 1.415-32.25 1.995-46 .58-13.75 1.299-28.6 1.599-33l.545-8 12.932.329c8.794.224 12.933-.016 12.933-.75C78 21.334 69.824 21 51.583 21c-15.9 0-26.549-.381-26.75-.956-.183-.526-1.393.149-2.688 1.5M854 19.833c0 .861-7.231 1.167-27.568 1.167h-27.569l.436 12.75c.24 7.013.684 13.425.986 14.25.303.825.833 7.125 1.179 14 .346 6.875 1.503 28.475 2.571 48 4.637 84.782 4.859 107.177 1.493 150.5-2.538 32.663-2.489 32.337-4.902 32.811-1.169.229 1.789.478 6.574.553 7.139.112 8.884.45 9.72 1.886.566.971 1.033 1.194 1.05.5.059-2.422 8.564-1.562 9.882 1l1.159 2.25-.586-2.289c-.53-2.074-.328-2.225 2.144-1.604 1.95.489 2.524.353 2.011-.477-.395-.64-1.106-.923-1.58-.63-2.646 1.636-1.545-2.202 2.016-7.021 13.474-18.24 23.699-46.914 25.615-71.834.946-12.309-1.768-55.21-9.175-145.068C847.555 47.52 846 27.116 846 25.235v-3.42l5.418.342c4.684.297 5.264.14 4.283-1.157a79.768 79.768 0 0 1-1.418-1.917c-.156-.229-.283.109-.283.75M41.712 22.75c-.224.413-.491 3.45-.593 6.75-.103 3.3-1.064 21.525-2.136 40.5-4.316 76.379-5.847 133.058-4.101 151.833 1.323 14.219 4.1 22.687 14.896 45.428 5.928 12.485 8.979 17.486 6.179 10.128-2.178-5.72-6.941-24.432-9.176-36.043-3.764-19.555-3.028-81.701 2.23-188.346.529-10.725.968-22.087.975-25.25L50 22h-3.941c-2.168 0-4.124.337-4.347.75m770.788-.005-12 .312.676 12.722c.372 6.996 1.602 27.796 2.733 46.221 2.018 32.876 4.347 79.343 5.613 112 .63 16.238-.859 47.747-3.946 83.5-1.382 16.015-1.382 16.023.713 15.219.937-.359 1.437-2.551 1.568-6.873.399-13.215 2.917-26.846 4.958-26.846 1.412 0 3.144 4.726 4.386 11.968 1.171 6.827.588 10.034-3.685 20.282-1.297 3.11.95 1.854 2.353-1.316 5.479-12.377 11.932-36.164 14.768-54.434 2.23-14.364 2.428-51.264.529-98.5-4.079-101.429-4.798-115.175-6.001-114.784-.366.119-6.065.357-12.665.529m15.502 4.005c0 2.613.444 13.975.985 25.25 7.433 154.801 6.974 179.421-4.024 215.5-4.585 15.043-4.507 15.054 2.777.408 15.529-31.222 16.92-38.955 15.913-88.408-.696-34.132-2.495-75.582-5.686-131-1.594-27.689-1.324-26.5-6.028-26.5H828l.002 4.75M838 24.734c0 1.503.676 13.316 1.501 26.25 4.729 74.057 6.946 160.521 4.546 177.274-1.512 10.554-7.717 26.363-18.697 47.636-5.303 10.273-8.11 16.746-7.519 17.337 1.225 1.225 1.263 1.164 10.169-16.608 9.798-19.553 12.851-21.035 8.47-4.111-2.226 8.596-2.547 9.153-8.781 15.206-5.979 5.805-6.269 6.28-3.829 6.258 4.951-.045 18.573-22.385 25.587-41.965 8.552-23.873 9.348-45.981 4.05-112.511-.788-9.9-2.127-27-2.976-38-2.394-31.051-5.464-68.452-6.094-74.25-.545-5.008-.706-5.25-3.499-5.25-2.523 0-2.928.378-2.928 2.734M64.019 263.5c-2.706 6.839-2.501 16.676.486 23.332 4.653 10.369 5.229 8.576 3.426-10.673-1.326-14.154-2.201-16.984-3.912-12.659m747.569.151C809.756 272.15 808.53 293 809.863 293c1.834 0 6.137-11.741 6.093-16.625-.09-10.172-3.056-18.809-4.368-12.724m-770.159 2.52c1.617 9.392 3.782 14.199 8.672 19.246l4.924 5.083-5.681-12c-7.01-14.81-8.829-17.643-7.915-12.329m788.225 10.558-6.832 13.771 5.018-4.892c4.409-4.299 5.277-5.853 7.153-12.807 3.228-11.962 2.152-11.171-5.339 3.928M41 295.173c0 .455 1.35.827 3 .827s3-.174 3-.387c0-.212-1.35-.584-3-.826s-3-.069-3 .386m29.624 1.366c-.965 2.514-.681 3.163.498 1.136.584-1.004.851-2.036.593-2.293-.257-.258-.749.263-1.091 1.157m-2.094 4.412C68.132 301.595 62.907 302 55 302c-7.378 0-13.142.421-13.491.985-.377.611.55.753 2.441.375 3.986-.797 3.852-.118-.963 4.894-9.47 9.855-10.923 14.746-4.38 14.746 4.572 0 6.507-2.196 10.464-11.874 2.803-6.854 3.683-8.126 5.626-8.126 3.055 0 3.067-.043-2.753 9.593C38.637 334.624 29.521 361.885 26.062 390c-2.385 19.382-5.135 120.219-3.31 121.347.563.348 1.176-15.877 1.554-41.136 1.145-76.461 4.015-100.796 15.191-128.816C45.931 325.264 58.335 303 60.888 303c1.441 0 .46 3.697-6.17 23.25l-7.884 23.25 1.562 8.443c1.554 8.404 3.663 12.398 5.548 10.513 1.138-1.138 4.053-17.164 4.063-22.337.007-3.42 2.317-19.825 5.051-35.869 1.013-5.948 1.568-7.25 3.089-7.25 2.305 0 2.39-1.278-1.1 16.5-8.727 44.445-11.521 91.904-9.241 157 .822 23.458.886 21.607 1.045-30 .19-61.474.932-75.036 5.747-105 3.499-21.773 6.721-37.074 8.026-38.118 1.196-.957 1.193-1.289-.024-2.299-.971-.806-1.628-.847-2.07-.132m738.441.067c-1.264.781-1.242 1.077.16 2.193.892.709 1.917 2.864 2.278 4.789 10.596 56.501 11.542 67.214 11.732 132.895.078 27.012.478 46.162.901 43.105 1.103-7.981 1.083-74.579-.029-94.5-1.199-21.478-4.052-43.961-8.518-67.119C809.372 301.004 809.526 303 812 303c1.1 0 2 .353 2 .785 0 .431 1.101 7.519 2.447 15.75 1.345 8.231 2.927 19.69 3.514 25.465 1.417 13.932 3.021 22.871 4.238 23.623 1.978 1.223 3.931-2.455 5.48-10.317l1.581-8.025-7.63-22.891c-8.338-25.015-8.175-24.394-6.38-24.381 2.519.017 13.975 20.112 19.95 34.991 12.259 30.53 15.16 51.943 16.422 121.214.412 22.627 1.056 37.485 1.611 37.142 1.911-1.181-1.201-91.654-3.785-110.067-3.915-27.889-13.845-55.941-27.115-76.604l-4.377-6.815 3.066.315c2.835.291 3.322.953 6.478 8.796 3.772 9.376 5.297 11.019 10.223 11.019 4.421 0 4.987-1.93 1.952-6.657-2.928-4.559-11.675-13.258-11.675-11.61 0 .632.462 1.434 1.026 1.783 2.107 1.303 10.974 12.643 10.974 14.036 0 1.743-2.012 1.855-5.42.302-1.786-.813-3.419-3.317-5.634-8.637-3.511-8.435-3.085-9.661 3.054-8.797 2.572.363 3.055.237 1.82-.474-.923-.531-6.988-.992-13.477-1.023-6.489-.03-12.273-.45-12.854-.932-.607-.504-1.678-.492-2.518.027M73 302c0 .55.45 1 1 1s1-.45 1-1-.45-1-1-1-1 .45-1 1m3.5 0c.34.55.816 1 1.059 1s.441-.45.441-1-.477-1-1.059-1-.781.45-.441 1m726.5 0c0 .55.45 1 1 1s1-.45 1-1-.45-1-1-1-1 .45-1 1m-759.946 8.649c-7.58 8.117-8.558 11.003-3.605 10.641 1.579-.116 3.256-.595 3.726-1.065.978-.978 7.949-17.225 7.39-17.225-.202 0-3.582 3.442-7.511 7.649m11.533 21.057c-6.192 18.681-6.673 23.047-3.528 32.043 2.174 6.217 3.754.542 5.919-21.249.546-5.5 1.655-14.031 2.465-18.959.81-4.927 1.363-9.069 1.228-9.203-.134-.135-2.872 7.681-6.084 17.368M817.467 316c.487 2.36 3.378 23.935 5.554 41.454 1.149 9.252 2.253 11.053 3.903 6.372 3.249-9.211 2.668-14.159-3.857-32.826-3.364-9.625-5.884-16.375-5.6-15" fill-rule="evenodd"/></svg>